<?xml version="1.0" encoding="UTF-8" standalone="no"?>
<!-- Created with Inkscape (http://www.inkscape.org/) -->

<svg
   width="155.73988mm"
   height="229.10756mm"
   viewBox="0 0 155.73988 229.10756"
   version="1.1"
   id="svg1"
   xml:space="preserve"
   inkscape:export-filename="experiment.png"
   inkscape:export-xdpi="96"
   inkscape:export-ydpi="96"
   inkscape:version="1.3.2 (091e20e, 2023-11-25)"
   sodipodi:docname="stimuli.svg"
   xmlns:inkscape="http://www.inkscape.org/namespaces/inkscape"
   xmlns:sodipodi="http://sodipodi.sourceforge.net/DTD/sodipodi-0.dtd"
   xmlns="http://www.w3.org/2000/svg"
   xmlns:svg="http://www.w3.org/2000/svg"><sodipodi:namedview
     id="namedview1"
     pagecolor="#505050"
     bordercolor="#eeeeee"
     borderopacity="1"
     inkscape:showpageshadow="0"
     inkscape:pageopacity="0"
     inkscape:pagecheckerboard="0"
     inkscape:deskcolor="#505050"
     inkscape:document-units="mm"
     inkscape:zoom="0.70749973"
     inkscape:cx="377.3853"
     inkscape:cy="414.13443"
     inkscape:window-width="1192"
     inkscape:window-height="950"
     inkscape:window-x="519"
     inkscape:window-y="39"
     inkscape:window-maximized="0"
     inkscape:current-layer="layer1" /><defs
     id="defs1" /><g
     inkscape:label="Layer 1"
     inkscape:groupmode="layer"
     id="layer1"
     transform="translate(-11.965258,-14.120257)"><rect
       style="fill:#ffffff;stroke:#000000;stroke-width:0.735863;stroke-linecap:round;stroke-linejoin:bevel;stroke-miterlimit:10;stroke-dasharray:none;stroke-opacity:1;fill-opacity:0.48051947"
       id="rect1"
       width="28.465149"
       height="28.465149"
       x="33.018269"
       y="44.746067" /><rect
       style="fill:#ffffff;stroke:#000000;stroke-width:0.735863;stroke-linecap:round;stroke-linejoin:bevel;stroke-miterlimit:10;stroke-dasharray:none;stroke-opacity:1;fill-opacity:0.48051947"
       id="rect2"
       width="28.465149"
       height="28.465149"
       x="75.54425"
       y="44.746067"
       ry="14.232574" /><path
       sodipodi:type="star"
       style="fill:#ffffff;stroke:#000000;stroke-width:0.959192;stroke-linecap:round;stroke-linejoin:bevel;stroke-miterlimit:10;stroke-dasharray:none;stroke-opacity:1;fill-opacity:0.48051947"
       id="path2"
       inkscape:flatsided="true"
       sodipodi:sides="3"
       sodipodi:cx="115.93055"
       sodipodi:cy="11.593055"
       sodipodi:r1="20.653143"
       sodipodi:r2="10.326571"
       sodipodi:arg1="1.0471976"
       sodipodi:arg2="2.0943951"
       inkscape:rounded="0"
       inkscape:randomized="0"
       d="M 126.25712,29.479202 95.277407,11.593054 126.25712,-6.2930912 Z"
       inkscape:transform-center-x="-0.0982996"
       transform="matrix(0.69166037,-0.41032226,0.41032226,0.69166037,47.382088,102.50159)"
       inkscape:transform-center-y="-4.0669557" /><path
       style="fill:#9b0f0f;fill-opacity:1;stroke:none;stroke-width:0.217456"
       d="m 49.036106,131.64376 c -1.255233,-0.21881 -2.04934,-1.60066 -1.697068,-2.95311 0.249414,-0.95757 0.836629,-1.56911 1.568291,-1.63326 1.307955,-0.11468 2.297838,1.49097 1.945116,3.1551 -0.22622,1.06731 -0.892474,1.59231 -1.816339,1.43127 z m -8.313133,-1.6044 c -0.267801,-0.0703 -0.390888,-0.15219 -0.647981,-0.43111 -0.294483,-0.31947 -0.447115,-0.78238 -0.387985,-1.17669 0.07501,-0.50018 0.450871,-1.09999 1.187192,-1.89453 0.420909,-0.4542 0.751103,-0.93979 1.01059,-1.48619 0.18242,-0.38413 0.201123,-0.46748 0.179856,-0.80149 -0.03383,-0.53134 -0.305813,-0.84845 -0.875697,-1.02101 -0.553596,-0.16763 -2.861806,-0.0221 -5.413998,0.34127 -0.569598,0.0811 -1.321088,0.15071 -1.669977,0.15467 -0.575211,0.007 -0.660978,-0.007 -0.920049,-0.13976 -0.592427,-0.3048 -0.796011,-0.96916 -0.547601,-1.787 0.109562,-0.36072 0.173799,-0.46359 0.481328,-0.77087 0.613828,-0.61333 1.195149,-0.75542 3.404256,-0.83212 1.808392,-0.0628 2.687194,-0.17125 3.423343,-0.42252 0.888463,-0.30327 1.405269,-0.72242 1.601859,-1.2992 0.230475,-0.6762 -0.180632,-1.23989 -1.122365,-1.53894 -0.745226,-0.23666 -1.627983,-0.31495 -3.339016,-0.29616 -1.731785,0.0191 -1.976952,-0.0184 -2.441543,-0.37278 -0.359901,-0.27451 -0.474724,-0.50546 -0.476407,-0.95823 -0.0018,-0.49505 0.137621,-0.796 0.595902,-1.2859 0.885191,-0.94628 1.867999,-1.06322 4.46238,-0.53097 1.058934,0.21725 1.449749,0.27314 1.956195,0.27976 0.715758,0.009 0.891795,-0.048 0.891795,-0.2903 0,-0.12059 -0.280568,-0.4275 -1.405119,-1.53705 -1.055924,-1.04183 -1.478266,-1.49984 -1.699457,-1.84297 -0.642656,-0.99695 -0.83012,-1.58592 -0.797791,-2.50647 0.01876,-0.53427 0.04237,-0.64908 0.204177,-0.99297 0.230151,-0.48916 0.6818,-0.97213 1.100757,-1.17711 0.447918,-0.21915 0.991144,-0.21926 1.466057,-2.1e-4 0.859158,0.3961 1.285695,0.98808 2.022843,2.8074 0.442841,1.09298 0.697867,1.48439 1.091888,1.67581 0.2278,0.11069 0.279572,0.11616 0.493273,0.0521 0.509248,-0.15257 0.972324,-0.78804 1.28316,-1.76084 0.08089,-0.25315 0.254861,-0.79686 0.386604,-1.20824 0.336939,-1.05212 0.633698,-1.65722 0.902247,-1.8397 0.478088,-0.32487 1.093192,-0.0975 1.368876,0.506 0.136134,0.29801 0.198369,0.62346 0.315554,1.65014 0.09243,0.80981 0.320684,1.11285 0.830513,1.10261 0.60904,-0.0122 1.329083,-0.63704 2.410648,-2.09186 0.915919,-1.232 1.316825,-1.54229 1.99264,-1.54229 0.429195,0 0.656151,0.0929 0.93255,0.38166 0.314026,0.32809 0.46566,0.71515 0.46566,1.18862 0,0.3587 -0.02604,0.44533 -0.294379,0.97944 -0.163879,0.32619 -0.57542,0.96853 -0.928349,1.44897 -1.72305,2.34561 -1.841508,3.70504 -0.343862,3.94625 0.476558,0.0767 1.038033,-0.005 2.383928,-0.34913 1.286542,-0.3285 2.222843,-0.44601 2.72659,-0.34221 0.593944,0.12239 0.971823,0.38759 1.191234,0.83607 0.138709,0.2835 0.150001,0.35778 0.128142,0.84289 -0.02783,0.61763 -0.182386,1.02445 -0.539286,1.41951 -0.449232,0.49724 -1.024057,0.71463 -2.134702,0.80729 -1.690577,0.14103 -2.142894,0.27257 -2.571423,0.74783 -0.279809,0.31031 -0.395038,0.58448 -0.404265,0.96185 -0.0082,0.33693 0.102478,0.53245 0.429529,0.75858 0.188489,0.13032 0.223403,0.13411 0.901463,0.0979 0.911268,-0.0487 1.303387,0.0462 1.6588,0.40166 0.29504,0.29504 0.388242,0.56371 0.358359,1.03303 -0.02983,0.46849 -0.228377,0.77132 -0.640308,0.97659 -0.390393,0.19454 -0.958597,0.19405 -2.157232,-0.002 -1.187271,-0.19406 -1.588769,-0.1979 -1.945252,-0.0186 -0.379654,0.19095 -0.497944,0.42415 -0.466109,0.91888 0.05022,0.78035 0.649662,1.61651 1.558417,2.1738 0.573457,0.35167 1.380252,0.73985 2.023678,0.97368 1.806033,0.65632 2.474009,1.49047 2.110977,2.63611 -0.442333,1.39589 -2.011126,2.30414 -3.368983,1.95047 -0.477296,-0.12432 -0.766026,-0.28851 -1.147922,-0.65277 -0.433712,-0.4137 -0.704281,-0.82983 -1.389217,-2.13661 -0.631978,-1.20575 -0.885406,-1.57097 -1.314728,-1.89472 -0.694224,-0.5235 -1.829116,-0.67931 -2.734448,-0.3754 -0.976039,0.32765 -2.027011,0.99405 -2.692806,1.70746 -0.186771,0.20014 -0.610668,0.72546 -0.941995,1.1674 -1.028869,1.37235 -2.039099,2.2783 -2.863748,2.56815 -0.360633,0.12675 -1.03515,0.18498 -1.30926,0.11302 z m 4.660348,-17.66846 c 0.951143,-0.3284 1.817283,-1.11604 2.360763,-2.14683 0.317168,-0.60154 0.344546,-0.8439 0.120632,-1.06781 -0.162323,-0.16233 -0.486477,-0.19517 -0.643124,-0.0651 -0.04718,0.0391 -0.191839,0.28826 -0.321454,0.55357 -0.265247,0.54293 -0.847038,1.21572 -1.301263,1.5048 -0.549511,0.34971 -0.909378,0.39661 -2.035715,0.26532 -0.281751,-0.0328 -0.34,-0.0221 -0.444433,0.0824 -0.390074,0.39007 -0.108304,0.82844 0.633566,0.9857 0.388339,0.0823 1.237075,0.0241 1.631028,-0.11197 z m 14.770858,11.04061 c -0.598501,-0.30392 -0.867146,-1.04122 -0.596168,-1.63621 0.252047,-0.55343 0.868925,-0.85766 1.454288,-0.71724 0.394443,0.0946 0.814343,0.49039 0.91295,0.86048 0.142124,0.53339 -0.07807,1.12566 -0.529589,1.42446 -0.327506,0.21673 -0.888596,0.2477 -1.241481,0.0685 z m -26.74137,-11.69766 c -0.756202,-0.35212 -1.094378,-1.30807 -0.721389,-2.03919 0.467018,-0.91543 1.698403,-1.12796 2.41036,-0.41599 0.960761,0.96076 0.298351,2.59063 -1.052885,2.59063 -0.241793,0 -0.43235,-0.0405 -0.636086,-0.13545 z m 10.014317,-6.68739 c -0.259157,-0.14106 -0.486008,-0.37031 -0.615349,-0.62187 -0.179751,-0.3496 -0.130554,-0.92372 0.107373,-1.25306 0.38785,-0.53685 1.123964,-0.69384 1.670127,-0.35616 0.163295,0.10095 0.341128,0.27878 0.442084,0.44207 0.337998,0.5467 0.180725,1.28225 -0.357271,1.67093 -0.21532,0.15557 -0.304706,0.18203 -0.661655,0.19594 -0.297599,0.0116 -0.460843,-0.0101 -0.585309,-0.0778 z"
       id="path3" /><path
       style="fill:#2323dc;fill-opacity:1;stroke-width:0.217456"
       d="m 91.562086,131.64376 c -1.255233,-0.21881 -2.04934,-1.60066 -1.697068,-2.95311 0.249413,-0.95757 0.836629,-1.56911 1.568291,-1.63326 1.307954,-0.11468 2.297837,1.49097 1.945115,3.1551 -0.226219,1.06731 -0.892473,1.59231 -1.816338,1.43127 z m -8.313133,-1.6044 c -0.267801,-0.0703 -0.390888,-0.15219 -0.647981,-0.43111 -0.294483,-0.31947 -0.447115,-0.78238 -0.387985,-1.17669 0.07501,-0.50018 0.450871,-1.09999 1.187192,-1.89453 0.420909,-0.4542 0.751102,-0.93979 1.01059,-1.48619 0.18242,-0.38413 0.201123,-0.46748 0.179856,-0.80149 -0.03383,-0.53134 -0.305813,-0.84845 -0.875697,-1.02101 -0.553597,-0.16763 -2.861807,-0.0221 -5.413998,0.34127 -0.569598,0.0811 -1.321088,0.15071 -1.669977,0.15467 -0.575211,0.007 -0.660978,-0.007 -0.920049,-0.13976 -0.592427,-0.3048 -0.796011,-0.96916 -0.547601,-1.787 0.109562,-0.36072 0.173799,-0.46359 0.481328,-0.77087 0.613828,-0.61333 1.195149,-0.75542 3.404256,-0.83212 1.808392,-0.0628 2.687194,-0.17125 3.423342,-0.42252 0.888464,-0.30327 1.405269,-0.72242 1.60186,-1.2992 0.230475,-0.6762 -0.180632,-1.23989 -1.122365,-1.53894 -0.745226,-0.23666 -1.627983,-0.31495 -3.339016,-0.29616 -1.731785,0.0191 -1.976952,-0.0184 -2.441543,-0.37278 -0.359901,-0.27451 -0.474725,-0.50546 -0.476407,-0.95823 -0.0018,-0.49505 0.137621,-0.796 0.595901,-1.2859 0.885192,-0.94628 1.868,-1.06322 4.462381,-0.53097 1.058934,0.21725 1.449749,0.27314 1.956195,0.27976 0.715758,0.009 0.891795,-0.048 0.891795,-0.2903 0,-0.12059 -0.280568,-0.4275 -1.405119,-1.53705 -1.055924,-1.04183 -1.478266,-1.49984 -1.699457,-1.84297 -0.642656,-0.99695 -0.83012,-1.58592 -0.797792,-2.50647 0.01877,-0.53427 0.04237,-0.64908 0.204178,-0.99297 0.230151,-0.48916 0.6818,-0.97213 1.100757,-1.17711 0.447918,-0.21915 0.991144,-0.21926 1.466057,-2.1e-4 0.859158,0.3961 1.285695,0.98808 2.022842,2.8074 0.442842,1.09298 0.697868,1.48439 1.091889,1.67581 0.2278,0.11069 0.279572,0.11616 0.493272,0.0521 0.509249,-0.15257 0.972325,-0.78804 1.283161,-1.76084 0.08089,-0.25315 0.25486,-0.79686 0.386603,-1.20824 0.33694,-1.05212 0.633699,-1.65722 0.902248,-1.8397 0.478087,-0.32487 1.093192,-0.0975 1.368875,0.506 0.136134,0.29801 0.19837,0.62346 0.315555,1.65014 0.09243,0.80981 0.320684,1.11285 0.830513,1.10261 0.60904,-0.0122 1.329083,-0.63704 2.410647,-2.09186 0.91592,-1.232 1.316825,-1.54229 1.992641,-1.54229 0.429195,0 0.656151,0.0929 0.932552,0.38166 0.314022,0.32809 0.465661,0.71515 0.465661,1.18862 0,0.3587 -0.02605,0.44533 -0.294382,0.97944 -0.163877,0.32619 -0.57542,0.96853 -0.928349,1.44897 -1.72305,2.34561 -1.841508,3.70504 -0.343863,3.94625 0.476559,0.0767 1.038031,-0.005 2.383932,-0.34913 1.286539,-0.3285 2.222839,-0.44601 2.726589,-0.34221 0.59394,0.12239 0.97182,0.38759 1.19123,0.83607 0.13871,0.2835 0.15,0.35778 0.12815,0.84289 -0.0278,0.61763 -0.18239,1.02445 -0.53929,1.41951 -0.44923,0.49724 -1.02406,0.71463 -2.13471,0.80729 -1.690568,0.14103 -2.142889,0.27257 -2.571419,0.74783 -0.279807,0.31031 -0.395037,0.58448 -0.404264,0.96185 -0.0082,0.33693 0.102479,0.53245 0.429534,0.75858 0.188484,0.13032 0.223401,0.13411 0.901462,0.0979 0.911263,-0.0487 1.303383,0.0462 1.658797,0.40166 0.29504,0.29504 0.38824,0.56371 0.35836,1.03303 -0.0298,0.46849 -0.22838,0.77132 -0.640306,0.97659 -0.390397,0.19454 -0.958601,0.19405 -2.157234,-0.002 -1.187273,-0.19406 -1.58877,-0.1979 -1.945254,-0.0186 -0.379653,0.19095 -0.497943,0.42415 -0.466108,0.91888 0.05022,0.78035 0.649662,1.61651 1.558416,2.1738 0.573458,0.35167 1.380251,0.73985 2.023682,0.97368 1.806024,0.65632 2.474004,1.49047 2.110974,2.63611 -0.44233,1.39589 -2.011125,2.30414 -3.368983,1.95047 -0.477296,-0.12432 -0.766027,-0.28851 -1.147923,-0.65277 -0.433711,-0.4137 -0.70428,-0.82983 -1.389216,-2.13661 -0.631978,-1.20575 -0.885406,-1.57097 -1.314728,-1.89472 -0.694224,-0.5235 -1.829116,-0.67931 -2.734448,-0.3754 -0.976039,0.32765 -2.027011,0.99405 -2.692806,1.70746 -0.186771,0.20014 -0.610668,0.72546 -0.941995,1.1674 -1.02887,1.37235 -2.039099,2.2783 -2.863748,2.56815 -0.360633,0.12675 -1.03515,0.18498 -1.30926,0.11302 z m 4.660348,-17.66846 c 0.951143,-0.3284 1.817283,-1.11604 2.360763,-2.14683 0.317168,-0.60154 0.344545,-0.8439 0.120632,-1.06781 -0.162323,-0.16233 -0.486477,-0.19517 -0.643124,-0.0651 -0.04718,0.0391 -0.191839,0.28826 -0.321454,0.55357 -0.265247,0.54293 -0.847038,1.21572 -1.301263,1.5048 -0.549511,0.34971 -0.909378,0.39661 -2.035715,0.26532 -0.281751,-0.0328 -0.34,-0.0221 -0.444433,0.0824 -0.390075,0.39007 -0.108305,0.82844 0.633565,0.9857 0.38834,0.0823 1.237076,0.0241 1.631029,-0.11197 z m 14.770859,11.04061 c -0.5985,-0.30392 -0.86715,-1.04122 -0.59617,-1.63621 0.25205,-0.55343 0.86893,-0.85766 1.45429,-0.71724 0.39444,0.0946 0.81435,0.49039 0.91295,0.86048 0.14213,0.53339 -0.0781,1.12566 -0.52959,1.42446 -0.32751,0.21673 -0.88859,0.2477 -1.24148,0.0685 z M 75.938788,111.71385 c -0.756201,-0.35212 -1.094377,-1.30807 -0.721388,-2.03919 0.467017,-0.91543 1.698403,-1.12796 2.41036,-0.41599 0.960761,0.96076 0.29835,2.59063 -1.052885,2.59063 -0.241794,0 -0.43235,-0.0405 -0.636087,-0.13545 z m 10.014318,-6.68739 c -0.259157,-0.14106 -0.486009,-0.37031 -0.615349,-0.62187 -0.179752,-0.3496 -0.130554,-0.92372 0.107373,-1.25306 0.38785,-0.53685 1.123964,-0.69384 1.670127,-0.35616 0.163295,0.10095 0.341128,0.27878 0.442084,0.44207 0.337998,0.5467 0.180725,1.28225 -0.357271,1.67093 -0.21532,0.15557 -0.304706,0.18203 -0.661655,0.19594 -0.297599,0.0116 -0.460843,-0.0101 -0.585309,-0.0778 z"
       id="path4" /><path
       style="fill:#107010;fill-opacity:1;stroke-width:0.217456"
       d="m 134.20483,131.64376 c -1.25524,-0.21881 -2.04935,-1.60066 -1.69707,-2.95311 0.24941,-0.95757 0.83662,-1.56911 1.56828,-1.63326 1.30796,-0.11468 2.29785,1.49097 1.94513,3.1551 -0.22622,1.06731 -0.89248,1.59231 -1.81634,1.43127 z m -8.31314,-1.6044 c -0.2678,-0.0703 -0.39089,-0.15219 -0.64798,-0.43111 -0.29448,-0.31947 -0.44711,-0.78238 -0.38799,-1.17669 0.075,-0.50018 0.45087,-1.09999 1.1872,-1.89453 0.42091,-0.4542 0.7511,-0.93979 1.01059,-1.48619 0.18241,-0.38413 0.20112,-0.46748 0.17985,-0.80149 -0.0339,-0.53134 -0.30581,-0.84845 -0.8757,-1.02101 -0.55359,-0.16763 -2.8618,-0.0221 -5.41399,0.34127 -0.5696,0.0811 -1.32109,0.15071 -1.66998,0.15467 -0.57521,0.007 -0.66098,-0.007 -0.92005,-0.13976 -0.59243,-0.3048 -0.79601,-0.96916 -0.5476,-1.787 0.10957,-0.36072 0.1738,-0.46359 0.48133,-0.77087 0.61383,-0.61333 1.19515,-0.75542 3.40425,-0.83212 1.8084,-0.0628 2.6872,-0.17125 3.42335,-0.42252 0.88846,-0.30327 1.40527,-0.72242 1.60185,-1.2992 0.23048,-0.6762 -0.18062,-1.23989 -1.12236,-1.53894 -0.74522,-0.23666 -1.62798,-0.31495 -3.33901,-0.29616 -1.73179,0.0191 -1.97696,-0.0184 -2.44155,-0.37278 -0.3599,-0.27451 -0.47472,-0.50546 -0.4764,-0.95823 -0.001,-0.49505 0.13762,-0.796 0.59589,-1.2859 0.8852,-0.94628 1.86801,-1.06322 4.46239,-0.53097 1.05894,0.21725 1.44974,0.27314 1.9562,0.27976 0.71575,0.009 0.89179,-0.048 0.89179,-0.2903 0,-0.12059 -0.28057,-0.4275 -1.40512,-1.53705 -1.05592,-1.04183 -1.47827,-1.49984 -1.69946,-1.84297 -0.64265,-0.99695 -0.83012,-1.58592 -0.79779,-2.50647 0.0188,-0.53427 0.0424,-0.64908 0.20418,-0.99297 0.23015,-0.48916 0.6818,-0.97213 1.10075,-1.17711 0.44792,-0.21915 0.99115,-0.21926 1.46606,-2.1e-4 0.85916,0.3961 1.2857,0.98808 2.02285,2.8074 0.44284,1.09298 0.69786,1.48439 1.09188,1.67581 0.22781,0.11069 0.27957,0.11616 0.49328,0.0521 0.50924,-0.15257 0.97232,-0.78804 1.28316,-1.76084 0.0809,-0.25315 0.25486,-0.79686 0.3866,-1.20824 0.33694,-1.05212 0.6337,-1.65722 0.90225,-1.8397 0.47809,-0.32487 1.09319,-0.0975 1.36887,0.506 0.13614,0.29801 0.19838,0.62346 0.31555,1.65014 0.0924,0.80981 0.32069,1.11285 0.83052,1.10261 0.60904,-0.0122 1.32908,-0.63704 2.41065,-2.09186 0.91592,-1.232 1.31682,-1.54229 1.99264,-1.54229 0.42919,0 0.65615,0.0929 0.93255,0.38166 0.31402,0.32809 0.46566,0.71515 0.46566,1.18862 0,0.3587 -0.026,0.44533 -0.29438,0.97944 -0.16388,0.32619 -0.57542,0.96853 -0.92835,1.44897 -1.72305,2.34561 -1.8415,3.70504 -0.34386,3.94625 0.47656,0.0767 1.03803,-0.005 2.38392,-0.34913 1.28655,-0.3285 2.22285,-0.44601 2.7266,-0.34221 0.59394,0.12239 0.97182,0.38759 1.19123,0.83607 0.13871,0.2835 0.15,0.35778 0.12814,0.84289 -0.0278,0.61763 -0.18238,1.02445 -0.53928,1.41951 -0.44923,0.49724 -1.02406,0.71463 -2.13471,0.80729 -1.69058,0.14103 -2.14289,0.27257 -2.57142,0.74783 -0.27981,0.31031 -0.39504,0.58448 -0.40427,0.96185 -0.008,0.33693 0.10249,0.53245 0.42953,0.75858 0.18849,0.13032 0.22341,0.13411 0.90146,0.0979 0.91128,-0.0487 1.30339,0.0462 1.65881,0.40166 0.29504,0.29504 0.38824,0.56371 0.35836,1.03303 -0.0298,0.46849 -0.22838,0.77132 -0.64031,0.97659 -0.39039,0.19454 -0.9586,0.19405 -2.15723,-0.002 -1.18727,-0.19406 -1.58877,-0.1979 -1.94525,-0.0186 -0.37966,0.19095 -0.49795,0.42415 -0.46612,0.91888 0.0502,0.78035 0.64967,1.61651 1.55842,2.1738 0.57346,0.35167 1.38025,0.73985 2.02368,0.97368 1.80603,0.65632 2.47401,1.49047 2.11098,2.63611 -0.44233,1.39589 -2.01113,2.30414 -3.36898,1.95047 -0.4773,-0.12432 -0.76603,-0.28851 -1.14793,-0.65277 -0.43371,-0.4137 -0.70428,-0.82983 -1.38921,-2.13661 -0.63198,-1.20575 -0.88541,-1.57097 -1.31473,-1.89472 -0.69422,-0.5235 -1.82912,-0.67931 -2.73445,-0.3754 -0.97604,0.32765 -2.02701,0.99405 -2.69281,1.70746 -0.18677,0.20014 -0.61066,0.72546 -0.94199,1.1674 -1.02887,1.37235 -2.0391,2.2783 -2.86375,2.56815 -0.36063,0.12675 -1.03515,0.18498 -1.30926,0.11302 z m 4.66035,-17.66846 c 0.95114,-0.3284 1.81728,-1.11604 2.36077,-2.14683 0.31716,-0.60154 0.34453,-0.8439 0.12063,-1.06781 -0.16233,-0.16233 -0.48648,-0.19517 -0.64313,-0.0651 -0.0472,0.0391 -0.19184,0.28826 -0.32145,0.55357 -0.26525,0.54293 -0.84704,1.21572 -1.30126,1.5048 -0.54952,0.34971 -0.90938,0.39661 -2.03572,0.26532 -0.28175,-0.0328 -0.34,-0.0221 -0.44444,0.0824 -0.39007,0.39007 -0.1083,0.82844 0.63357,0.9857 0.38834,0.0823 1.23708,0.0241 1.63103,-0.11197 z m 14.77085,11.04061 c -0.59849,-0.30392 -0.86714,-1.04122 -0.59616,-1.63621 0.25205,-0.55343 0.86893,-0.85766 1.45428,-0.71724 0.39445,0.0946 0.81435,0.49039 0.91296,0.86048 0.14212,0.53339 -0.0781,1.12566 -0.52959,1.42446 -0.32751,0.21673 -0.88859,0.2477 -1.24149,0.0685 z m -26.74136,-11.69766 c -0.75621,-0.35212 -1.09438,-1.30807 -0.72139,-2.03919 0.46701,-0.91543 1.6984,-1.12796 2.41036,-0.41599 0.96076,0.96076 0.29835,2.59063 -1.05289,2.59063 -0.24179,0 -0.43235,-0.0405 -0.63608,-0.13545 z m 10.01431,-6.68739 c -0.25915,-0.14106 -0.48601,-0.37031 -0.61535,-0.62187 -0.17975,-0.3496 -0.13055,-0.92372 0.10738,-1.25306 0.38785,-0.53685 1.12396,-0.69384 1.67013,-0.35616 0.16329,0.10095 0.34112,0.27878 0.44208,0.44207 0.338,0.5467 0.18072,1.28225 -0.35727,1.67093 -0.21532,0.15557 -0.30471,0.18203 -0.66165,0.19594 -0.29761,0.0116 -0.46085,-0.0101 -0.58532,-0.0778 z"
       id="path5" /><text
       xml:space="preserve"
       style="font-weight:500;font-size:10.3838px;font-family:Avenir;-inkscape-font-specification:'Avenir Medium';letter-spacing:0.107084px;fill:#000000;fill-opacity:1;stroke:none;stroke-width:0.735863;stroke-linecap:round;stroke-linejoin:bevel;stroke-miterlimit:10;stroke-dasharray:none;stroke-opacity:1"
       x="44.914482"
       y="85.094543"
       id="text6"><tspan
         sodipodi:role="line"
         id="tspan6"
         style="fill:#000000;fill-opacity:1;stroke-width:0.735863"
         x="44.914482"
         y="85.094543">1</tspan></text><text
       xml:space="preserve"
       style="font-weight:500;font-size:10.3838px;font-family:Avenir;-inkscape-font-specification:'Avenir Medium';letter-spacing:0.107084px;fill:#000000;fill-opacity:1;stroke:none;stroke-width:0.735863;stroke-linecap:round;stroke-linejoin:bevel;stroke-miterlimit:10;stroke-dasharray:none;stroke-opacity:1"
       x="86.890121"
       y="85.094543"
       id="text7"><tspan
         sodipodi:role="line"
         id="tspan7"
         style="fill:#000000;fill-opacity:1;stroke-width:0.735863"
         x="86.890121"
         y="85.094543">2</tspan></text><text
       xml:space="preserve"
       style="font-weight:500;font-size:10.3838px;font-family:Avenir;-inkscape-font-specification:'Avenir Medium';letter-spacing:0.107084px;fill:#000000;fill-opacity:1;stroke:none;stroke-width:0.735863;stroke-linecap:round;stroke-linejoin:bevel;stroke-miterlimit:10;stroke-dasharray:none;stroke-opacity:1"
       x="129.53285"
       y="85.094543"
       id="text8"><tspan
         sodipodi:role="line"
         id="tspan8"
         style="fill:#000000;fill-opacity:1;stroke-width:0.735863"
         x="129.53285"
         y="85.094543">3</tspan></text><text
       xml:space="preserve"
       style="font-weight:500;font-size:10.3838px;font-family:Avenir;-inkscape-font-specification:'Avenir Medium';letter-spacing:0.107084px;fill:#000000;fill-opacity:1;stroke:none;stroke-width:0.735863;stroke-linecap:round;stroke-linejoin:bevel;stroke-miterlimit:10;stroke-dasharray:none;stroke-opacity:1"
       x="43.474697"
       y="144.72272"
       id="text9"><tspan
         sodipodi:role="line"
         id="tspan9"
         style="fill:#000000;fill-opacity:1;stroke-width:0.735863"
         x="43.474697"
         y="144.72272">-1</tspan></text><text
       xml:space="preserve"
       style="font-weight:500;font-size:10.3838px;font-family:Avenir;-inkscape-font-specification:'Avenir Medium';letter-spacing:0.107084px;fill:#000000;fill-opacity:1;stroke:none;stroke-width:0.735863;stroke-linecap:round;stroke-linejoin:bevel;stroke-miterlimit:10;stroke-dasharray:none;stroke-opacity:1"
       x="85.253044"
       y="144.72272"
       id="text10"><tspan
         sodipodi:role="line"
         id="tspan10"
         style="fill:#000000;fill-opacity:1;stroke-width:0.735863"
         x="85.253044"
         y="144.72272">-2</tspan></text><text
       xml:space="preserve"
       style="font-weight:500;font-size:10.3838px;font-family:Avenir;-inkscape-font-specification:'Avenir Medium';letter-spacing:0.107084px;fill:#000000;fill-opacity:1;stroke:none;stroke-width:0.735863;stroke-linecap:round;stroke-linejoin:bevel;stroke-miterlimit:10;stroke-dasharray:none;stroke-opacity:1"
       x="127.89577"
       y="144.72272"
       id="text11"><tspan
         sodipodi:role="line"
         id="tspan11"
         style="fill:#000000;fill-opacity:1;stroke-width:0.735863"
         x="127.89577"
         y="144.72272">-3</tspan></text><rect
       style="fill:#2323dc;fill-opacity:1;stroke:#000000;stroke-width:0.735863;stroke-linecap:round;stroke-linejoin:bevel;stroke-miterlimit:10;stroke-dasharray:none;stroke-opacity:1"
       id="rect11"
       width="28.465149"
       height="28.465149"
       x="33.018269"
       y="167.75616" /><path
       sodipodi:type="star"
       style="fill:#9b0f0f;fill-opacity:1;stroke:#000000;stroke-width:0.959192;stroke-linecap:round;stroke-linejoin:bevel;stroke-miterlimit:10;stroke-dasharray:none;stroke-opacity:1"
       id="path11"
       inkscape:flatsided="true"
       sodipodi:sides="3"
       sodipodi:cx="115.93055"
       sodipodi:cy="11.593055"
       sodipodi:r1="20.653143"
       sodipodi:r2="10.326571"
       sodipodi:arg1="1.0471976"
       sodipodi:arg2="2.0943951"
       inkscape:rounded="0"
       inkscape:randomized="0"
       d="M 126.25712,29.479202 95.277407,11.593054 126.25712,-6.2930912 Z"
       inkscape:transform-center-x="-0.098299785"
       transform="matrix(0.69166037,-0.41032226,0.41032226,0.69166037,4.7393503,225.51169)"
       inkscape:transform-center-y="-4.066962" /><rect
       style="fill:#107010;fill-opacity:1;stroke:#000000;stroke-width:0.735863;stroke-linecap:round;stroke-linejoin:bevel;stroke-miterlimit:10;stroke-dasharray:none;stroke-opacity:1"
       id="rect12"
       width="28.465149"
       height="28.465149"
       x="118.18699"
       y="167.75616"
       ry="14.232574" /><text
       xml:space="preserve"
       style="font-weight:500;font-size:10.3838px;font-family:Avenir;-inkscape-font-specification:'Avenir Medium';letter-spacing:0.107084px;fill:#1a1a1a;fill-opacity:1;stroke:none;stroke-width:0.735863;stroke-linecap:round;stroke-linejoin:bevel;stroke-miterlimit:10;stroke-dasharray:none;stroke-opacity:1"
       x="43.474697"
       y="212.96994"
       id="text12"><tspan
         sodipodi:role="line"
         id="tspan12"
         style="fill:#1a1a1a;fill-opacity:1;stroke-width:0.735863"
         x="43.474697"
         y="212.96994">-1</tspan></text><text
       xml:space="preserve"
       style="font-weight:500;font-size:10.3838px;font-family:Avenir;-inkscape-font-specification:'Avenir Medium';letter-spacing:0.107084px;fill:#1a1a1a;fill-opacity:1;stroke:none;stroke-width:0.735863;stroke-linecap:round;stroke-linejoin:bevel;stroke-miterlimit:10;stroke-dasharray:none;stroke-opacity:1"
       x="86.890121"
       y="212.96994"
       id="text13"><tspan
         sodipodi:role="line"
         id="tspan13"
         style="fill:#1a1a1a;stroke-width:0.735863"
         x="86.890121"
         y="212.96994">2</tspan></text><text
       xml:space="preserve"
       style="font-weight:500;font-size:10.3838px;font-family:Avenir;-inkscape-font-specification:'Avenir Medium';letter-spacing:0.107084px;fill:#1a1a1a;fill-opacity:1;stroke:none;stroke-width:0.735863;stroke-linecap:round;stroke-linejoin:bevel;stroke-miterlimit:10;stroke-dasharray:none;stroke-opacity:1"
       x="128.64342"
       y="212.96994"
       id="text14"><tspan
         sodipodi:role="line"
         id="tspan14"
         style="fill:#1a1a1a;stroke-width:0.735863"
         x="128.64342"
         y="212.96994">-1</tspan></text></g></svg>
