<?xml version="1.0" encoding="UTF-8" standalone="no"?>
<!-- Created with Inkscape (http://www.inkscape.org/) -->

<svg
   width="476.74731mm"
   height="295.79886mm"
   viewBox="0 0 476.74731 295.79886"
   version="1.1"
   id="svg1"
   inkscape:version="1.4 (e7c3feb1, 2024-10-09)"
   sodipodi:docname="coronal.svg"
   xmlns:inkscape="http://www.inkscape.org/namespaces/inkscape"
   xmlns:sodipodi="http://sodipodi.sourceforge.net/DTD/sodipodi-0.dtd"
   xmlns="http://www.w3.org/2000/svg"
   xmlns:svg="http://www.w3.org/2000/svg">
  <sodipodi:namedview
     id="namedview1"
     pagecolor="#505050"
     bordercolor="#eeeeee"
     borderopacity="1"
     inkscape:showpageshadow="0"
     inkscape:pageopacity="0"
     inkscape:pagecheckerboard="0"
     inkscape:deskcolor="#505050"
     inkscape:document-units="mm"
     inkscape:zoom="0.021380471"
     inkscape:cx="-654.80315"
     inkscape:cy="514.48819"
     inkscape:window-width="1248"
     inkscape:window-height="785"
     inkscape:window-x="453"
     inkscape:window-y="43"
     inkscape:window-maximized="0"
     inkscape:current-layer="layer1" />
  <defs
     id="defs1" />
  <g
     inkscape:label="Layer 1"
     inkscape:groupmode="layer"
     id="layer1"
     transform="translate(-269.08124,-12.964621)">
    <path
       style="fill:none;fill-opacity:1;fill-rule:evenodd;stroke:#000000;stroke-width:3.52174;stroke-linecap:round;stroke-linejoin:round;stroke-miterlimit:10;stroke-opacity:1"
       d="m 270.84211,262.04257 c 21.60798,10.6801 103.23577,17.51609 135.21224,20.13832 31.97645,2.62221 80.4575,5.93067 102.34293,-10.83282 21.88544,-16.76349 8.38762,-65.25887 -14.20372,-63.88167 -22.59135,1.377 -27.97063,35.03769 -54.3684,38.41184 -26.39775,3.37415 -60.63413,-29.16124 -74.69094,-40.69174 -9.62062,-7.8915 -3.94122,39.38813 14.74063,49.1567 13.14741,6.87468 40.71609,12.43296 61.79933,12.2698 28.41568,-0.21989 33.57925,-31.00795 43.86411,-42.21968 9.65448,-10.52452 30.56327,18.56701 16.1633,33.1857 -25.62029,26.00949 -75.76023,-19.63838 -82.56003,-29.66719 -18.65695,-27.51653 -0.11386,-29.59393 20.41886,-20.68543 50.76244,22.02468 -56.60343,31.73498 -70.90639,-16.0594 -14.30295,-47.7942 4.34501,-28.4092 13.13303,-75.3289 8.78804,-46.9195 31.26775,-36.8582 58.20562,-42.1167 26.93793,-5.2585 15.9583,57.5796 11.66436,79.4042 -4.29392,21.8247 -25.47595,-28.6211 -40.12056,-22.1744 -14.64456,6.4467 -31.49244,24.4883 -22.77391,42.8436 8.71854,18.3554 54.38908,3.1988 41.92018,-11.9939 -12.46893,-15.1928 -39.64548,18.005 -21.89005,28.1922 17.75547,10.187 38.08039,4.2566 52.14772,-7.9764 14.06733,-12.2331 -46.8629,-70.0437 -31.82484,-77.1308 15.03805,-7.0872 71.34168,49.601 57.17486,55.3539 -14.16682,5.7531 -7.24556,39.4116 8.77167,33.0708 16.01723,-6.3409 19.10601,-38.6899 18.60682,-59.5569 -0.23725,-9.9176 -10.10446,-34.3091 -21.81932,-45.0812 -12.93385,-11.8929 -33.42207,2.5543 -22.6232,26.1446 20.57996,44.9571 26.08894,-14.5786 33.45999,-42.7138 3.15562,-12.0451 12.98094,-43.5196 -6.35989,-31.9462 -7.04885,4.218 -18.08129,25.779 -24.48311,29.6064 -11.19411,6.6924 -1.80295,-24.618 -15.49406,-21.5104 -13.69111,3.1075 -48.46126,33.6371 -48.82764,19.1633 -0.36637,-14.4736 27.71754,-30.3671 43.39184,-33.252 15.67429,-2.8848 25.11201,-2.9228 38.93774,-11.7788 13.82572,-8.856 34.50094,-3.1932 36.41127,18.0246 1.91034,21.2178 4.67549,59.7826 4.82814,114.7946 0.17575,63.3418 1.61077,120.9207 8.07909,121.08069 5.81792,0.14391 11.09881,-27.99681 1.42238,-184.69269 -1.87253,-30.323 10.00439,-67.9876 26.35819,-74.7471 16.35381,-6.7594 14.53775,4.3987 30.09391,9.0464 15.55615,4.6476 36.11735,-0.3719 38.22154,18.3102 2.1042,18.682 -21.35991,31.681 -36.92359,31.9427 -15.5637,0.2616 -25.03576,-27.0662 -10.46385,-25.0761 14.5719,1.9902 27.83946,15.5026 31.65592,-1.0958 3.81646,-16.5986 -44.50173,-16.147 -50.58947,-2.9405 -6.08775,13.2066 1.57563,31.2211 -9.34466,45.4808 -10.92027,14.2598 35.39246,21.3613 50.75341,16.553 15.36096,-4.8083 -26.5946,-2.893 -18.52801,-16.3891 8.06657,-13.4963 34.87729,-6.9138 44.45063,-26.7546 9.57334,-19.8406 33.92005,-10.1381 43.85787,3.2173 9.93782,13.3552 25.9315,21.6248 31.50135,37.9588 5.56985,16.3341 -16.43987,32.5839 -31.73878,32.8622 -15.29892,0.2784 -30.17375,7.6019 -40.27399,-8.6684 -10.10024,-16.2705 8.65305,-22.9522 27.0454,-11.2012 18.39258,11.7509 17.12065,-36.5661 -5.96033,-39.2873 -23.08098,-2.7212 -29.70486,31.4093 -41.57315,39.8448 -11.86829,8.4355 -45.36349,-12.1595 -53.32171,6.4669 -7.95821,18.6264 34.83187,62.7711 41.09127,30.7337 6.25939,-32.0374 -41.10313,-21.4684 -42.16009,-4.1741 -1.05695,17.2942 10.88774,27.295 28.90805,29.0167 18.02032,1.7218 29.1988,-13.911 43.64041,-27.106 14.44161,-13.195 42.91672,-2.6187 61.43582,-7.8983 18.51909,-5.2796 18.09793,18.8774 16.03818,34.2421 -2.05974,15.3646 -24.14283,28.685 -39.8023,27.8244 -15.65947,-0.8605 -18.79323,-14.0504 -11.09545,-21.6182 7.69778,-7.5677 21.10578,-7.7499 10.52809,-20.8541 -10.57769,-13.1042 -29.38828,-3.5747 -34.83857,11.2497 -5.45029,14.8242 -15.26005,18.6192 4.05719,29.5204 19.31721,10.90119 35.59522,20.73582 56.93486,6.6762 21.33967,-14.0597 27.77176,71.87387 -60.36628,67.61491 -88.13806,-4.25897 -31.75263,-41.67748 -30.90894,-41.27783 16.43987,7.78747 20.19079,41.81416 50.23264,17.12102 30.04186,-24.69314 -45.48557,-32.56237 -25.7631,-11.46293 19.72248,21.09943 20.73465,-19.10907 -0.95137,-21.40388 -21.68603,-2.29482 -65.19452,3.57964 -65.30655,-18.67179 -0.11199,-22.2515 24.6944,-19.2546 39.90299,-6.1078 15.20859,13.1469 -9.77093,30.47315 -29.41702,30.66057 -19.64609,0.18742 -22.97599,32.80379 -7.23666,43.90148 15.73933,11.09768 27.85387,12.31457 53.07855,22.64774 25.22467,10.33316 84.56458,11.71704 104.54522,5.58236 19.98065,-6.13467 10.5686,-6.88487 15.70789,-10.52053"
       id="path9"
       sodipodi:nodetypes="czzzzssssssszzzzzzzzzzzzsssssszzzzzssszzzzzzzzzzzzzzzzzzzzzzzzzzzzzzzzzzzzzzzzzzc" />
  </g>
</svg>
