<?xml version="1.0" encoding="UTF-8" standalone="no"?>
<!-- Created with Inkscape (http://www.inkscape.org/) -->

<svg
   width="210mm"
   height="297mm"
   viewBox="0 0 210 297"
   version="1.1"
   id="svg1"
   xml:space="preserve"
   inkscape:version="1.4 (e7c3feb1, 2024-10-09)"
   sodipodi:docname="doodles.svg"
   xmlns:inkscape="http://www.inkscape.org/namespaces/inkscape"
   xmlns:sodipodi="http://sodipodi.sourceforge.net/DTD/sodipodi-0.dtd"
   xmlns:xlink="http://www.w3.org/1999/xlink"
   xmlns="http://www.w3.org/2000/svg"
   xmlns:svg="http://www.w3.org/2000/svg"><sodipodi:namedview
     id="namedview1"
     pagecolor="#505050"
     bordercolor="#eeeeee"
     borderopacity="1"
     inkscape:showpageshadow="0"
     inkscape:pageopacity="0"
     inkscape:pagecheckerboard="0"
     inkscape:deskcolor="#505050"
     inkscape:document-units="mm"
     inkscape:zoom="0.087258435"
     inkscape:cx="292.23536"
     inkscape:cy="-3254.6997"
     inkscape:window-width="1248"
     inkscape:window-height="785"
     inkscape:window-x="453"
     inkscape:window-y="43"
     inkscape:window-maximized="0"
     inkscape:current-layer="layer1"
     showguides="true" /><defs
     id="defs1"><linearGradient
       id="linearGradient6"
       inkscape:collect="always"><stop
         style="stop-color:#ffd82d;stop-opacity:1;"
         offset="0"
         id="stop6" /><stop
         style="stop-color:#a58635;stop-opacity:1;"
         offset="1"
         id="stop7" /></linearGradient><linearGradient
       inkscape:collect="always"
       xlink:href="#linearGradient6"
       id="linearGradient7"
       x1="-301.46459"
       y1="-1001.721"
       x2="250.87461"
       y2="-1001.721"
       gradientUnits="userSpaceOnUse" /><linearGradient
       inkscape:collect="always"
       xlink:href="#linearGradient6"
       id="linearGradient9"
       x1="-819.71149"
       y1="-1039.2769"
       x2="-421.32318"
       y2="-1039.2769"
       gradientUnits="userSpaceOnUse" /><linearGradient
       inkscape:collect="always"
       xlink:href="#linearGradient6"
       id="linearGradient11"
       x1="453.1171"
       y1="-1052.3273"
       x2="859.23523"
       y2="-1052.3273"
       gradientUnits="userSpaceOnUse"
       gradientTransform="matrix(1.1739129,0,0,1.1739129,-121.25343,177.63465)" /></defs><g
     inkscape:label="Layer 1"
     inkscape:groupmode="layer"
     id="layer1"><rect
       style="opacity:1;fill:#1a1a45;fill-opacity:1;fill-rule:evenodd;stroke:#ffffff;stroke-width:4.03219;stroke-linecap:round;stroke-linejoin:round;stroke-miterlimit:10;stroke-opacity:1"
       id="rect9"
       width="2472.1821"
       height="698.80396"
       x="-972.61377"
       y="-1394.048" /><path
       style="opacity:1;fill:none;fill-opacity:1;fill-rule:evenodd;stroke:none;stroke-width:3;stroke-linecap:round;stroke-linejoin:round;stroke-miterlimit:10;stroke-opacity:1"
       d="m 21.107995,-7.3066136 c 5.300015,0.6710052 10.97121,-0.8776185 16.236921,0 1.651812,-0.2819699 2.63022,1.3378902 4.059229,1.6236918 0.796079,0.1592161 1.639456,-0.159216 2.435537,0 7.343402,1.4686803 -2.205159,0.076793 2.435538,1.623692 0.513458,0.1711521 1.098621,-0.1312677 1.623692,0 0.887621,0.2219053 5.472681,2.7363411 6.494767,3.24738384 2.327288,1.16364342 4.217945,3.73266306 6.494769,4.87107576 1.455079,0.7275393 3.415998,1.7079989 4.871074,2.4355379 1.400075,0.7000362 2.529023,2.7373144 4.059232,3.2473839 0.513456,0.1711521 1.110234,-0.1711521 1.62369,0 0.726139,0.2420456 0.939086,1.2813874 1.623692,1.6236914 0.242047,0.121023 0.620493,-0.191353 0.811848,0 0.191352,0.191354 -0.191355,0.620493 0,0.811847 0.191352,0.191353 0.569799,-0.121023 0.811845,0 2.300256,1.150127 4.660106,4.660106 6.494767,6.494767 0.808214,0.808214 0.586803,1.917093 1.623692,2.435538 0.837396,0.418698 1.862524,0.47766 2.43554,1.623692 0.121023,0.242046 -0.191355,0.620492 0,0.811846 0.191352,0.191354 0.569798,-0.121023 0.811845,0 1.6804,0.840201 6.644938,5.171418 7.306614,6.494769 0.865446,1.730896 0.191828,3.822871 0.811845,5.682921 0.423531,1.270596 1.249971,2.564342 1.623692,4.05923 0.262535,1.050142 -0.262536,2.197243 0,3.247385 0.949809,3.799236 2.480384,7.53084 3.247385,11.365841 0.357732,1.78866 -0.442979,3.911012 0,5.682921 2.158431,8.633749 0.811844,22.373638 0.811844,31.661994 0,7.440073 1.028527,16.343866 0,23.543536 -0.121023,0.84716 -0.671158,1.59142 -0.811844,2.43554 -0.61091,3.66545 0.72845,7.72359 0,11.36584 -0.982999,4.91499 -0.811848,0.33637 -0.811848,4.05923 0,9.74215 0,19.4843 0,29.22645 0,4.13567 0.997863,9.80994 0,13.80138 -1.340392,5.36158 -1.906617,10.87386 -3.247382,16.23693 -0.328171,1.31267 0.265359,2.73242 0,4.05922 -0.324765,1.62383 -1.298929,3.24726 -1.623692,4.87108 -0.265362,1.3268 0.427879,2.77559 0,4.05923 -0.121023,0.36307 -0.690825,0.44878 -0.811848,0.81185 -0.171151,0.51345 0.131268,1.09862 0,1.62369 -0.744532,2.97814 -2.285087,6.04342 -3.247382,8.9303 -0.729625,2.18888 -2.299898,3.78795 -3.247384,5.68292 -2.737171,5.47435 -5.630056,13.22491 -11.365844,17.04877 -1.927368,1.28491 -6.030473,4.34908 -8.118459,4.87108 -0.525071,0.13126 -1.110237,-0.17116 -1.623693,0 -1.564012,0.52133 -3.307061,2.72604 -4.871077,3.24738 -0.513455,0.17115 -1.110234,-0.17115 -1.623689,0 -0.363069,0.12102 -0.448779,0.69082 -0.811848,0.81185 -0.513455,0.17115 -1.098621,-0.13127 -1.623692,0 -1.415516,0.35388 -2.643711,1.26981 -4.05923,1.62369 -2.07891,0.51972 -4.318484,1.18843 -6.494766,1.62369 -1.492663,0.29853 -3.432448,-0.47954 -4.871077,0 -0.363069,0.12102 -0.448776,0.69082 -0.811845,0.81185 -2.130287,0.71009 -7.533256,0.44178 -9.742151,0 -2.88729,-0.57746 -5.354224,-1.74448 -8.118461,-2.43554 -7.026188,-1.75655 -12.308479,-4.23362 -17.0487653,-10.554 -3.3512803,-4.46837 -8.6428029,-13.17571 -9.7421514,-18.67246 -0.1592162,-0.79608 0.159216,-1.63945 0,-2.43554 -0.1416703,-0.70835 -3.1292537,-8.05939 -3.2473839,-8.11845 -3.1063114,-1.55316 -17.5801924,0.28041 -18.6724574,-0.81185 -0.191354,-0.19135 0.121023,-0.5698 0,-0.81185 -1.792697,-3.58539 -0.673899,0.68975 -1.623692,-4.05923 -0.588936,-2.94468 -2.515685,-6.00351 -3.247385,-8.9303 -0.379727,-1.51891 -0.32091,-3.39827 -0.811845,-4.87108 -1.249674,-3.74902 -3.503874,-3.63212 -4.871077,-5.68292 -0.335655,-0.50349 -0.383963,-1.19581 -0.811845,-1.62369 -0.85576,-0.85576 -2.2792,-0.89756 -3.247384,-1.62369 -2.840781,-2.13059 -0.657463,-0.87662 -2.435537,-3.24739 -4.587471,-6.11663 -7.256018,-14.05436 -5.682922,-21.91984 0.777742,-3.88872 3.320306,-11.80661 4.871077,-15.42507 0.384352,-0.89683 1.187336,-1.56283 1.623689,-2.43554 1.841458,-3.68291 4.084146,-9.86672 4.871077,-13.80138 0.881722,-4.4086 1.363478,-8.70129 2.435538,-12.98954 0.509394,-2.03757 -0.509392,-4.45719 0,-6.49476 0.146761,-0.58705 0.693174,-1.03033 0.811847,-1.6237 0.318431,-1.59216 -0.266933,-3.26947 0,-4.871071 0.459457,-2.756747 2.50553,-6.599759 4.05923,-8.930307 2.618335,-3.927501 6.474163,-3.504263 9.742151,-5.682922 1.485464,-0.990309 0.081,-1.035055 2.435538,-1.623692 2.20164,-0.55041 4.514361,-0.950233 6.494767,-2.435537 1.574664,-1.180997 2.4403694,-2.168144 4.0592304,-3.247385 1.1095197,-0.73968 1.1625517,-1.513255 1.6236919,-2.435537 0.3423044,-0.68461 1.2813876,-0.939083 1.623692,-1.623693 0.8185216,-1.637043 -0.8672801,-9.686715 0,-10.553996 0.1913538,-0.191354 0.6204919,0.191352 0.8118459,0 1.6797382,-1.679739 -2.5668626,0.06566 0.8118459,-1.623692 0.2420456,-0.121023 0.6204921,0.191355 0.811846,0 0.1913539,-0.191355 -0.1913539,-0.620493 0,-0.811848 0.3955481,-0.395546 3.43196182,-0.602755 4.0592298,-0.811844 3.1097385,-1.03658 9.9628621,-5.091787 12.1776891,-7.306615 1.303947,-1.303946 1.243863,-2.539912 1.623692,-4.059229 0.659927,-2.639706 3.260503,-4.910431 4.05923,-7.306614 0.171152,-0.513456 -0.171152,-1.110234 0,-1.623693 0.242046,-0.726135 1.281388,-0.939083 1.623692,-1.623689 3.105414,-6.210829 14.852613,-8.990153 21.107995,-10.553999 1.050142,-0.262536 2.197243,0.262535 3.247385,0 1.671219,-0.417805 3.199855,-1.205887 4.871074,-1.623692 1.518912,-0.379728 3.398271,-0.320911 4.871077,-0.811846 0.363069,-0.121023 0.448778,-0.690823 0.811845,-0.811846 1.078979,-0.359659 3.028437,0.515397 4.059229,0 2.16293,-1.081464 7.977053,-2.435538 10.553999,-2.435538 0.635683,0 3.654137,-0.405092 4.05923,0 0.191354,0.191354 -0.191355,0.620492 0,0.811846 0.191354,0.191354 0.620493,-0.191354 0.811847,0 0.191352,0.191354 -0.121023,0.569801 0,0.811846 0.487106,0.974215 1.948429,1.461323 2.435537,2.435538 0.847583,1.695164 0.99758,3.804589 1.623693,5.682921 0.933098,2.799297 1.811298,8.367491 0.811845,11.365844 -0.39928,1.197843 -1.28324,2.22603 -1.623693,3.247385 -0.171151,0.513455 0.171154,1.110234 0,1.623692 -1.374873,4.124624 -9.397735,3.476993 -12.177688,1.62369 -2.668434,-1.778955 -7.72469,-5.879804 -11.365844,-4.05923 -2.268492,1.134248 -2.576983,3.671718 -3.247385,5.682922 -0.950428,2.85129 -3.305389,5.103103 -4.059229,8.118462 -0.4449,1.779595 0.359894,3.883453 0,5.682922 -0.512876,2.564384 -2.070248,11.244079 -4.871074,12.177688 -0.513459,0.171151 -1.110237,-0.171151 -1.623693,0 -0.363069,0.121023 -0.469543,0.640694 -0.811847,0.811845 -2.079903,1.039953 -8.166635,2.094487 -10.553996,2.43554 -2.917235,0.416748 -6.013074,-0.416748 -8.930307,0 -0.84716,0.121023 -1.591421,0.671158 -2.435538,0.811845 -3.579824,0.596638 -7.112639,-0.335272 -10.5539974,0.811845 -2.4128569,0.804285 -4.4176699,5.408736 -5.6829217,7.306614 -0.944589,1.416883 -2.29699536,2.633649 -3.24738386,4.059229 -1.15778524,1.73668 -1.40240804,3.96104 -2.43553794,5.682922 -0.3938032,0.656339 -1.2298889,0.967354 -1.6236918,1.623692 -1.5123117,2.520517 -4.8710759,12.478467 -4.8710759,15.425077 0,1.81317 -0.5686204,4.7889 0,6.49477 3.1430512,9.42915 19.3834753,10.10448 27.6027626,8.9303 3.665774,-0.52368 7.369502,-2.46698 10.553998,-4.05923 2.31303,-1.15651 5.100119,-1.92349 7.306614,-3.24738 2.410619,-1.44638 12.489313,-12.92396 12.989534,-15.42507 0.159218,-0.79609 -0.1969,-1.64794 0,-2.43554 0.09282,-0.37128 0.640694,-0.46954 0.811847,-0.81185 1.087988,-2.17598 3.485685,-5.824275 4.05923,-8.118459 0.658238,-2.63295 1.075878,-5.379386 1.623692,-8.118461 0.41633,-2.081655 -0.416332,-4.41311 0,-6.494767 0.900864,-4.504322 2.598751,-8.608097 4.05923,-12.989536 1.842116,-5.526349 8.955963,-9.611119 14.613228,-10.553996 0.367176,-0.0612 6.494767,-1.064056 6.494767,-1.623693 0,-0.605115 -1.082461,0.541229 -1.623693,0.811845 -0.726135,0.363069 -1.665353,-0.256728 -2.435537,0 -1.393907,0.464635 -2.926858,2.398107 -4.059229,3.247385 -0.378688,0.284017 -3.928695,2.305002 -4.05923,2.435537 -0.382709,0.382709 0.242046,1.1396 0,1.623692 -0.198451,0.396902 -1.573866,1.673519 -0.811847,2.435538 0.395578,0.395578 7.193811,0.699045 8.118461,1.623692 0.191352,0.191355 -0.121023,0.569801 0,0.811847 0.487106,0.974215 1.948429,1.461323 2.435537,2.435538 0.416259,0.832519 0.395587,2.414865 0.811845,3.247384 1.857751,3.715499 -0.336486,-3.445002 1.623693,2.435537 0.405923,1.217769 -0.405924,2.841461 0,4.05923 0.121023,0.363069 0.690824,0.448778 0.811845,0.811845 0.530015,1.590042 0.430302,11.268334 0,12.989536 -0.293524,1.174094 -1.330167,2.073291 -1.62369,3.247385 -0.397679,1.590721 -0.272256,3.519641 -1.623693,4.871071 -0.427881,0.42788 -1.19581,0.38397 -1.623692,0.81185 -1.42308,1.42308 -2.026377,4.05491 -3.247385,5.68292 -4.485975,5.9813 -10.029697,11.26017 -13.80138,17.86061 -2.448298,4.28452 -5.508808,8.00225 -8.118459,12.17769 -3.009374,4.815 -5.919179,9.79542 -8.930307,14.61323 -4.82727,7.72363 -7.832981,17.78924 -17.860611,20.29615 -9.210716,2.30268 -27.2400903,4.48886 -35.721222,-0.81185 -2.131285,-1.33205 -4.923602,-3.58803 -6.494768,-5.68292 -0.754578,-1.0061 -1.158974,-2.6091 -2.435538,-3.24738 -2.186039,-1.09302 -2.373903,4.12086 -1.623692,4.87107 1.115775,1.11578 1.936548,-2.56226 2.435538,-4.05923 0.651728,-1.95518 1.78381,-3.72774 2.435538,-5.68292 1.263118,-3.78935 1.25464,-6.96706 3.247384,-10.55399 2.045968,-3.68275 3.8602333,-6.58072 6.4947674,-9.74216 1.8653823,-2.23846 2.8990437,-5.56681 5.6829217,-6.49477 0.5134564,-0.17115 1.11023543,0.17116 1.6236919,0 0.36306855,-0.12102 0.44877741,-0.69082 0.81184596,-0.81184 0.80062304,-0.26688 4.28436714,0 4.87107584,0 1.7722049,0 7.5978942,0.27888 8.9303052,0.81184 0.710671,0.28427 0.967354,1.22989 1.623692,1.6237 2.284012,1.3704 3.933767,1.72702 5.682922,4.05923 1.679531,2.23937 4.733794,10.82856 3.247384,13.80138 -1.947575,3.89515 -6.240788,6.38025 -8.930306,9.74215 -3.142174,3.92772 -6.3148907,7.81867 -8.9303054,12.17769 -2.8262227,4.71037 -2.4355379,9.33285 -2.4355379,14.61323 0,3.3837 -0.1994847,7.67403 3.2473839,9.74215 2.2149134,1.32895 5.6929974,1.74255 8.1184594,2.43554 8.552124,2.44346 18.765008,2.96254 26.790919,-1.6237 4.897424,-2.79852 9.595664,-5.60968 14.613225,-8.11845 0.87271,-0.43636 1.497362,-1.35565 2.435537,-1.6237 1.040813,-0.29737 2.175804,0.15309 3.247385,0 2.477815,-0.35397 4.662279,-1.34071 7.306614,-0.81184 4.52165,0.90433 5.012431,7.20154 5.682922,10.55399 0.2858,1.42901 1.33789,2.63023 1.623692,4.05923 0.176049,0.88025 0.409202,8.92375 0,9.74216 -1.293529,2.58706 -22.762918,8.82325 -25.979072,9.74215 -3.90762,1.11646 -8.97343,4.30109 -12.989536,1.62369 -3.031056,-2.02071 -1.623689,-8.38322 -1.623689,-11.36584 0,-8.50365 1.467067,-16.76685 5.682922,-24.35538 0.657111,-1.18281 1.886,-2.01093 2.435537,-3.24739 0.560419,-1.26094 0.375491,-2.75017 0.811845,-4.05923 1.423302,-4.2699 1.465738,-2.11963 3.247384,-5.68292 3.849958,-7.69992 3.1979,-9.71741 11.365844,-13.80138 0.872707,-0.43635 1.538711,-1.23934 2.435537,-1.62369 1.963105,-0.84133 8.428154,-1.87477 10.553999,-0.81185 2.071878,1.03594 3.33194,7.56028 4.059229,9.74215 1.293368,3.88011 3.115504,11.34528 2.435538,15.42508 -0.771599,4.6296 -2.82896,9.29039 -4.05923,13.80138 -2.027859,7.43548 -4.831077,22.93168 -3.247385,30.85015 0.202523,1.01261 2.162295,3.51273 2.43554,4.05923 2.965125,5.93025 12.302781,19.31261 19.484303,21.10799 1.625994,0.4065 10.554001,-0.96469 10.554001,0.81185"
       id="path1" /><path
       style="opacity:1;fill:none;fill-opacity:1;fill-rule:evenodd;stroke:url(#linearGradient9);stroke-width:3;stroke-linecap:round;stroke-linejoin:round;stroke-miterlimit:10;stroke-opacity:1"
       d="m -818.21148,-937.35205 c 16.25324,5.40551 207.88837,-18.99523 175.93639,-43.9561 -57.94401,-45.26585 -49.02197,88.01824 26.20285,36.26624 44.23198,-30.43004 15.49082,-272.16079 -35.83356,-177.64349 -51.32438,94.5174 134.40675,-72.6076 180.5175,-7.4211 46.11075,65.1865 -171.18173,182.43549 -105.99236,105.9819 65.18937,-76.4535 -15.60087,212.61492 154.55747,28.59388"
       id="path3"
       sodipodi:nodetypes="csszzzc" /><path
       style="opacity:1;fill:none;fill-opacity:1;fill-rule:evenodd;stroke:url(#linearGradient7);stroke-width:3;stroke-linecap:round;stroke-linejoin:round;stroke-miterlimit:10"
       d="m -299.96459,-999.23647 c 33.49616,16.253 140.49541,55.84201 196.94423,21.56553 17.558794,-10.66193 39.573053,-59.52186 47.586563,-78.91406 1.32602,-18.1738 -28.746973,-46.9043 -49.349333,-9.6087 -20.60236,37.2956 10.832084,75.46291 -14.8364,62.6909 -79.25661,-39.4362 60.112834,-57.2817 22.561594,18.24466 -11.676884,14.31538 -40.121224,6.80167 -56.105544,-2.95702 -21.79031,-13.30334 -36.34119,-18.80154 -38.53537,-66.19054 -3.11178,1.0733 -2.70771,-41.0735 19.53873,-39.9805 21.31874,0.5647 44.15832,17.9498 39.42609,39.3677 -17.87471,14.5261 -38.28216,-5.4337 -41.10974,-21.743 -7.15427,-23.6581 14.96714,-42.083 34.42557,-50.2097 53.619754,-36.7986 107.574044,6.4348 33.91851,23.3366 -85.40834,19.5987 4.65258,-42.5463 15.695044,-44.5673 22.84525,-4.5851 64.575679,-17.717 80.7545289,3.4039 -29.2540699,16.1162 -16.5910799,33.2015 -27.1812999,71.6161 30.2400699,13.0136 1.781602,-78.4725 53.771682,-68.7496 44.51837,-6.1852 51.711149,8.7433 69.792049,41.4221 25.011096,15.2399 38.317296,30.7812 15.796396,49.2361 -18.377996,14.3711 -47.276096,-35.956 -52.246196,-54.2913 0.6896,-20.1916 -42.1796819,-29.1355 -51.9293419,-8.0817 -12.2339001,17.2411 22.2551419,34.779 38.9153419,37.7888 24.3488,10.3785 66.763896,-30.4868 88.843896,25.2693 29.5328,41.64 -40.829796,84.12821 -42.960796,57.31163 -2.4325,-24.13753 -5.1529,-43.00243 15.8358,-36.20563 20.959096,8.6979 36.855896,20.5461 37.242296,41.42497 -6.1998,20.52742 -33.77312,49.81897 -51.474322,46.37323 -24.4539,-4.67668 -89.7396185,-27.70483 -71.783297,-43.7845 13.082368,-11.71511 48.046199,-58.1128 8.139335,-35.7371 -30.624234,17.171 76.042488,66.75623 29.698588,-21.3228 -6.7525,-12.8336 -47.3289631,-29.8898 -41.4795996,0.4092 5.8493636,30.299 -53.3424404,1.9102 -34.1593904,23.1095 9.39256,10.3798 12.72838,-26.7819 3.2528,-31.2156 -21.60214,-10.1078 -44.07591,32.7774 -49.88337,51.29356 -6.5938,14.72473 -9.99055,25.59486 5.68682,34.47398 12.20348,8.6525 35.522449,19.38989 39.924039,-2.37409 -14.42877,-5.57342 -39.126239,-10.51143 -17.711039,-30.90174 9.47543,-14.61291 30.59547,-18.29651 42.82441041,-6.03051 7.23142999,18.78562 -25.24361041,30.43349 -12.67549041,51.45086 6.5899504,17.35204 25.774806,25.71186 41.022005,34.87027 23.1445,8.66296 58.773677,-18.46154 43.306277,-40.88965 -10.4387,-16.52826 -44.474362,-25.13574 -61.387962,-12.75519 -13.0324896,13.55387 0.616,46.96307 21.0978,38.66871 17.4301,-15.71224 -24.8004996,-38.26014 -30.60022959,-13.38831 -8.82248001,16.60199 -34.43641741,23.94037 -46.18580741,13.96568 -7.06891,-20.36436 21.771027,-15.01949 16.726677,-1.43875 4.73697,25.86687 57.343248,109.60785 51.504566,78.78141 -7.103176,-37.50257 -48.917933,-64.00062 -29.2242756,-68.77113 17.0694696,4.39605 27.1758696,21.23794 42.7047696,29.01198 16.1397,11.04561 39.2674,13.18785 54.706,-0.42158 34.218096,-22.57388 69.324096,-55.21556 113.593096,-49.39601 15.3449,1.68594 33.1146,0.85873 44.9225,12.59482"
       id="path6"
       sodipodi:nodetypes="csczscacccccsccccccccccccccssszsacccccccccccccsccccc" /><path
       style="opacity:1;fill:none;fill-opacity:1;fill-rule:evenodd;stroke:url(#linearGradient11);stroke-width:3.52174;stroke-linecap:round;stroke-linejoin:round;stroke-miterlimit:10"
       d="m 412.42745,-956.52733 c 21.60798,10.6801 103.23577,17.51609 135.21224,20.13832 31.97645,2.62221 80.4575,5.93067 102.34293,-10.83282 21.88544,-16.76349 8.38762,-65.25887 -14.20372,-63.88167 -22.59135,1.377 -27.97063,35.03769 -54.3684,38.41184 -26.39775,3.37415 -60.63413,-29.16124 -74.69094,-40.69174 -9.62062,-7.8915 -3.94122,39.38813 14.74063,49.1567 13.14741,6.87468 40.71609,12.43296 61.79933,12.2698 28.41568,-0.21989 33.57925,-31.00795 43.86411,-42.21968 9.65448,-10.52452 30.56327,18.56701 16.1633,33.1857 -25.62029,26.00949 -75.76023,-19.63838 -82.56003,-29.66719 -18.65695,-27.51653 -0.11386,-29.59393 20.41886,-20.68543 50.76244,22.02468 -56.60343,31.73498 -70.90639,-16.0594 -14.30295,-47.7942 4.34501,-28.4092 13.13303,-75.3289 8.78804,-46.9195 31.26775,-36.8582 58.20562,-42.1167 26.93793,-5.2585 15.9583,57.5796 11.66436,79.4042 -4.29392,21.8247 -25.47595,-28.6211 -40.12056,-22.1744 -14.64456,6.4467 -31.49244,24.4883 -22.77391,42.8436 8.71854,18.3554 54.38908,3.1988 41.92018,-11.9939 -12.46893,-15.1928 -39.64548,18.005 -21.89005,28.1922 17.75547,10.187 38.08039,4.2566 52.14772,-7.9764 14.06733,-12.2331 -46.8629,-70.0437 -31.82484,-77.1308 15.03805,-7.0872 71.34168,49.601 57.17486,55.3539 -14.16682,5.7531 -7.24556,39.4116 8.77167,33.0708 16.01723,-6.3409 19.10601,-38.6899 18.60682,-59.5569 -0.23725,-9.9176 -10.10446,-34.3091 -21.81932,-45.0812 -12.93385,-11.8929 -33.42207,2.5543 -22.6232,26.1446 20.57996,44.9571 26.08894,-14.5786 33.45999,-42.7138 3.15562,-12.0451 12.98094,-43.5196 -6.35989,-31.9462 -7.04885,4.218 -18.08129,25.779 -24.48311,29.6064 -11.19411,6.6924 -1.80295,-24.618 -15.49406,-21.5104 -13.69111,3.1075 -48.46126,33.6371 -48.82764,19.1633 -0.36637,-14.4736 27.71754,-30.3671 43.39184,-33.252 15.67429,-2.8848 25.11201,-2.9228 38.93774,-11.7788 13.82572,-8.856 34.50094,-3.1932 36.41127,18.0246 1.91034,21.2178 4.67549,59.7826 4.82814,114.7946 0.17575,63.3418 1.61077,120.9207 8.07909,121.08069 5.81792,0.14391 11.09881,-27.99681 1.42238,-184.69269 -1.87253,-30.323 10.00439,-67.9876 26.35819,-74.7471 16.35381,-6.7594 14.53775,4.3987 30.09391,9.0464 15.55615,4.6476 36.11735,-0.3719 38.22154,18.3102 2.1042,18.682 -21.35991,31.681 -36.92359,31.9427 -15.5637,0.2616 -25.03576,-27.0662 -10.46385,-25.0761 14.5719,1.9902 27.83946,15.5026 31.65592,-1.0958 3.81646,-16.5986 -44.50173,-16.147 -50.58947,-2.9405 -6.08775,13.2066 1.57563,31.2211 -9.34466,45.4808 -10.92027,14.2598 35.39246,21.3613 50.75341,16.553 15.36096,-4.8083 -26.5946,-2.893 -18.52801,-16.3891 8.06657,-13.4963 34.87729,-6.9138 44.45063,-26.7546 9.57334,-19.8406 33.92005,-10.1381 43.85787,3.2173 9.93782,13.3552 25.9315,21.6248 31.50135,37.9588 5.56985,16.3341 -16.43987,32.5839 -31.73878,32.8622 -15.29892,0.2784 -30.17375,7.6019 -40.27399,-8.6684 -10.10024,-16.2705 8.65305,-22.9522 27.0454,-11.2012 18.39258,11.7509 17.12065,-36.5661 -5.96033,-39.2873 -23.08098,-2.7212 -29.70486,31.4093 -41.57315,39.8448 -11.86829,8.4355 -45.36349,-12.1595 -53.32171,6.4669 -7.95821,18.6264 34.83187,62.7711 41.09127,30.7337 6.25939,-32.0374 -41.10313,-21.4684 -42.16009,-4.1741 -1.05695,17.2942 10.88774,27.295 28.90805,29.0167 18.02032,1.7218 29.1988,-13.911 43.64041,-27.106 14.44161,-13.195 42.91672,-2.6187 61.43582,-7.8983 18.51909,-5.2796 18.09793,18.8774 16.03818,34.2421 -2.05974,15.3646 -24.14283,28.685 -39.8023,27.8244 -15.65947,-0.8605 -18.79323,-14.0504 -11.09545,-21.6182 7.69778,-7.5677 21.10578,-7.7499 10.52809,-20.8541 -10.57769,-13.1042 -29.38828,-3.5747 -34.83857,11.2497 -5.45029,14.8242 -15.26005,18.6192 4.05719,29.5204 19.31721,10.90119 35.59522,20.73582 56.93486,6.6762 21.33967,-14.0597 27.77176,71.87387 -60.36628,67.61491 -88.13806,-4.25897 -31.75263,-41.67748 -30.90894,-41.27783 16.43987,7.78747 20.19079,41.81416 50.23264,17.12102 30.04186,-24.69314 -45.48557,-32.56237 -25.7631,-11.46293 19.72248,21.09943 20.73465,-19.10907 -0.95137,-21.40388 -21.68603,-2.29482 -65.19452,3.57964 -65.30655,-18.67179 -0.11199,-22.2515 24.6944,-19.2546 39.90299,-6.1078 15.20859,13.1469 -9.77093,30.47315 -29.41702,30.66057 -19.64609,0.18742 -22.97599,32.80379 -7.23666,43.90148 15.73933,11.09768 27.85387,12.31457 53.07855,22.64774 25.22467,10.33316 84.56458,11.71704 104.54522,5.58236 19.98065,-6.13467 10.5686,-6.88487 15.70789,-10.52053"
       id="path9"
       sodipodi:nodetypes="czzzzssssssszzzzzzzzzzzzsssssszzzzzssszzzzzzzzzzzzzzzzzzzzzzzzzzzzzzzzzzzzzzzzzzc" /></g></svg>
