<?xml version="1.0" encoding="UTF-8" standalone="no"?>
<!-- Generator: Adobe Illustrator 19.2.1, SVG Export Plug-In . SVG Version: 6.00 Build 0)  -->

<svg
   xmlns:dc="http://purl.org/dc/elements/1.1/"
   xmlns:cc="http://creativecommons.org/ns#"
   xmlns:rdf="http://www.w3.org/1999/02/22-rdf-syntax-ns#"
   xmlns:svg="http://www.w3.org/2000/svg"
   xmlns="http://www.w3.org/2000/svg"
   xmlns:sodipodi="http://sodipodi.sourceforge.net/DTD/sodipodi-0.dtd"
   xmlns:inkscape="http://www.inkscape.org/namespaces/inkscape"
   version="1.1"
   id="Layer_1"
   x="0px"
   y="0px"
   viewBox="0 0 500 500"
   xml:space="preserve"
   sodipodi:docname="Rlogo.svg"
   inkscape:version="0.92.2 5c3e80d, 2017-08-06"
   width="500"
   height="500"><metadata
     id="metadata37"><rdf:RDF><cc:Work
         rdf:about=""><dc:format>image/svg+xml</dc:format><dc:type
           rdf:resource="http://purl.org/dc/dcmitype/StillImage" /><dc:title></dc:title></cc:Work></rdf:RDF></metadata><defs
     id="defs35"><linearGradient
       y2="183.83321"
       x2="344.43188"
       y1="183.83321"
       x1="164.2139"
       gradientUnits="userSpaceOnUse"
       id="SVGID_2_"><stop
         id="stop5613"
         style="stop-color:#88398A"
         offset="0" /><stop
         id="stop5615"
         style="stop-color:#843786"
         offset="0.1652" /><stop
         id="stop5617"
         style="stop-color:#783279"
         offset="0.3365" /><stop
         id="stop5619"
         style="stop-color:#632A65"
         offset="0.5105" /><stop
         id="stop5621"
         style="stop-color:#471E48"
         offset="0.6864" /><stop
         id="stop5623"
         style="stop-color:#220E23"
         offset="0.8621" /><stop
         id="stop5625"
         style="stop-color:#000000"
         offset="1" /></linearGradient><clipPath
       id="clipPath8261"
       clipPathUnits="userSpaceOnUse"><rect
         style="opacity:1;fill:#ffffff;fill-opacity:1;stroke:#000000;stroke-width:0.42131183;stroke-miterlimit:4;stroke-dasharray:0.10532795, 0.10532795;stroke-dashoffset:0;stroke-opacity:1"
         id="rect8263"
         width="519.44196"
         height="219.52083"
         x="-76.518478"
         y="-137.22418"
         inkscape:export-xdpi="50"
         inkscape:export-ydpi="50" /></clipPath><clipPath
       id="clipPath9115"
       clipPathUnits="userSpaceOnUse"><rect
         style="opacity:1;fill:#ffffff;fill-opacity:1;stroke:#000000;stroke-width:0.42131183;stroke-miterlimit:4;stroke-dasharray:0.10532795, 0.10532795;stroke-dashoffset:0;stroke-opacity:1"
         id="rect9117"
         width="519.44196"
         height="219.52083"
         x="-76.518478"
         y="-137.22418"
         inkscape:export-xdpi="50"
         inkscape:export-ydpi="50" /></clipPath></defs><sodipodi:namedview
     pagecolor="#ffffff"
     bordercolor="#666666"
     borderopacity="1"
     objecttolerance="10"
     gridtolerance="10"
     guidetolerance="10"
     inkscape:pageopacity="0"
     inkscape:pageshadow="2"
     inkscape:window-width="1375"
     inkscape:window-height="748"
     id="namedview33"
     showgrid="false"
     inkscape:zoom="0.66612908"
     inkscape:cx="166.91196"
     inkscape:cy="250.79543"
     inkscape:window-x="0"
     inkscape:window-y="0"
     inkscape:window-maximized="0"
     inkscape:current-layer="Layer_1"
     fit-margin-top="20"
     fit-margin-left="20"
     fit-margin-right="20"
     fit-margin-bottom="20" /><style
     type="text/css"
     id="style2">
	.st0{fill:url(#SVGID_1_);}
	.st1{fill:url(#SVGID_2_);}
	.st2{fill:none;}
	.st3{fill:#A7A9AC;}
	.st4{font-family:'OpenSans';}
	.st5{font-size:100px;}
</style><linearGradient
     id="SVGID_1_"
     gradientUnits="userSpaceOnUse"
     x1="-438.34351"
     y1="600.55688"
     x2="-437.8866"
     y2="600.09998"
     gradientTransform="matrix(721.094,0,0,-482.937,316122.16,290049.16)"><stop
       offset="0"
       style="stop-color:#CACDCF"
       id="stop4" /><stop
       offset="1"
       style="stop-color:#83838B"
       id="stop6" /></linearGradient><linearGradient
     id="SVGID_2_-3"
     gradientUnits="userSpaceOnUse"
     x1="164.2139"
     y1="183.83321"
     x2="344.43188"
     y2="183.83321"><stop
       offset="0"
       style="stop-color:#88398A"
       id="stop11" /><stop
       offset="0.1652"
       style="stop-color:#843786"
       id="stop13" /><stop
       offset="0.3365"
       style="stop-color:#783279"
       id="stop15" /><stop
       offset="0.5105"
       style="stop-color:#632A65"
       id="stop17" /><stop
       offset="0.6864"
       style="stop-color:#471E48"
       id="stop19" /><stop
       offset="0.8621"
       style="stop-color:#220E23"
       id="stop21" /><stop
       offset="1"
       style="stop-color:#000000"
       id="stop23" /></linearGradient><g
     transform="matrix(0.43345138,-3.4715835,3.4715835,0.43345138,12755.68,-586.90285)"
     id="g8528"
     style="fill:#1e735f;fill-opacity:1;stroke:none" /><g
     transform="matrix(0.43345138,-3.4715835,3.4715835,0.43345138,12755.68,-586.90285)"
     id="g8530"
     style="fill:#1e735f;fill-opacity:1;stroke:none" /><g
     transform="matrix(0.43345138,-3.4715835,3.4715835,0.43345138,12755.68,-586.90285)"
     id="g8532"
     style="fill:#1e735f;fill-opacity:1;stroke:none" /><g
     transform="matrix(0.43345138,-3.4715835,3.4715835,0.43345138,12755.68,-586.90285)"
     id="g8534"
     style="fill:#1e735f;fill-opacity:1;stroke:none" /><g
     transform="matrix(0.43345138,-3.4715835,3.4715835,0.43345138,12755.68,-586.90285)"
     id="g8536"
     style="fill:#1e735f;fill-opacity:1;stroke:none" /><g
     transform="matrix(0.43345138,-3.4715835,3.4715835,0.43345138,12755.68,-586.90285)"
     id="g8538"
     style="fill:#1e735f;fill-opacity:1;stroke:none" /><g
     transform="matrix(0.43345138,-3.4715835,3.4715835,0.43345138,12755.68,-586.90285)"
     id="g8540"
     style="fill:#1e735f;fill-opacity:1;stroke:none" /><g
     transform="matrix(0.43345138,-3.4715835,3.4715835,0.43345138,12755.68,-586.90285)"
     id="g8542"
     style="fill:#1e735f;fill-opacity:1;stroke:none" /><g
     transform="matrix(0.43345138,-3.4715835,3.4715835,0.43345138,12755.68,-586.90285)"
     id="g8544"
     style="fill:#1e735f;fill-opacity:1;stroke:none" /><g
     transform="matrix(0.43345138,-3.4715835,3.4715835,0.43345138,12755.68,-586.90285)"
     id="g8546"
     style="fill:#1e735f;fill-opacity:1;stroke:none" /><g
     transform="matrix(0.43345138,-3.4715835,3.4715835,0.43345138,12755.68,-586.90285)"
     id="g8548"
     style="fill:#1e735f;fill-opacity:1;stroke:none" /><g
     transform="matrix(0.43345138,-3.4715835,3.4715835,0.43345138,12755.68,-586.90285)"
     id="g8550"
     style="fill:#1e735f;fill-opacity:1;stroke:none" /><g
     transform="matrix(0.43345138,-3.4715835,3.4715835,0.43345138,12755.68,-586.90285)"
     id="g8552"
     style="fill:#1e735f;fill-opacity:1;stroke:none" /><g
     transform="matrix(0.43345138,-3.4715835,3.4715835,0.43345138,12755.68,-586.90285)"
     id="g8554"
     style="fill:#1e735f;fill-opacity:1;stroke:none" /><g
     transform="matrix(0.43345138,-3.4715835,3.4715835,0.43345138,12755.68,-586.90285)"
     id="g8556"
     style="fill:#1e735f;fill-opacity:1;stroke:none" /><g
     transform="matrix(-3.3582007,0.98094892,-0.98094892,-3.3582007,14828.873,-2565.5855)"
     style="fill:#1e735f;fill-opacity:1;stroke:none"
     id="g8566" /><g
     transform="matrix(-3.3582007,0.98094892,-0.98094892,-3.3582007,14828.873,-2565.5855)"
     style="fill:#1e735f;fill-opacity:1;stroke:none"
     id="g8568" /><g
     transform="matrix(-3.3582007,0.98094892,-0.98094892,-3.3582007,14828.873,-2565.5855)"
     style="fill:#1e735f;fill-opacity:1;stroke:none"
     id="g8570" /><g
     transform="matrix(-3.3582007,0.98094892,-0.98094892,-3.3582007,14828.873,-2565.5855)"
     style="fill:#1e735f;fill-opacity:1;stroke:none"
     id="g8572" /><g
     transform="matrix(-3.3582007,0.98094892,-0.98094892,-3.3582007,14828.873,-2565.5855)"
     style="fill:#1e735f;fill-opacity:1;stroke:none"
     id="g8574" /><g
     transform="matrix(-3.3582007,0.98094892,-0.98094892,-3.3582007,14828.873,-2565.5855)"
     style="fill:#1e735f;fill-opacity:1;stroke:none"
     id="g8576" /><g
     transform="matrix(-3.3582007,0.98094892,-0.98094892,-3.3582007,14828.873,-2565.5855)"
     style="fill:#1e735f;fill-opacity:1;stroke:none"
     id="g8578" /><g
     transform="matrix(-3.3582007,0.98094892,-0.98094892,-3.3582007,14828.873,-2565.5855)"
     style="fill:#1e735f;fill-opacity:1;stroke:none"
     id="g8580" /><g
     transform="matrix(-3.3582007,0.98094892,-0.98094892,-3.3582007,14828.873,-2565.5855)"
     style="fill:#1e735f;fill-opacity:1;stroke:none"
     id="g8582" /><g
     transform="matrix(-3.3582007,0.98094892,-0.98094892,-3.3582007,14828.873,-2565.5855)"
     style="fill:#1e735f;fill-opacity:1;stroke:none"
     id="g8584" /><g
     transform="matrix(-3.3582007,0.98094892,-0.98094892,-3.3582007,14828.873,-2565.5855)"
     style="fill:#1e735f;fill-opacity:1;stroke:none"
     id="g8586" /><g
     transform="matrix(-3.3582007,0.98094892,-0.98094892,-3.3582007,14828.873,-2565.5855)"
     style="fill:#1e735f;fill-opacity:1;stroke:none"
     id="g8588" /><g
     transform="matrix(-3.3582007,0.98094892,-0.98094892,-3.3582007,14828.873,-2565.5855)"
     style="fill:#1e735f;fill-opacity:1;stroke:none"
     id="g8590" /><g
     transform="matrix(-3.3582007,0.98094892,-0.98094892,-3.3582007,14828.873,-2565.5855)"
     style="fill:#1e735f;fill-opacity:1;stroke:none"
     id="g8592" /><g
     transform="matrix(-3.3582007,0.98094892,-0.98094892,-3.3582007,14828.873,-2565.5855)"
     style="fill:#1e735f;fill-opacity:1;stroke:none"
     id="g8594" /><g
     id="g5692"
     transform="translate(-13.551739,-45.059906)"><path
       sodipodi:nodetypes="cscccccccccszs"
       inkscape:connector-curvature="0"
       style="fill:#ad957f;fill-opacity:1;fill-rule:evenodd;stroke:none;stroke-width:0.07209086px;stroke-linecap:butt;stroke-linejoin:miter;stroke-opacity:1"
       d="M 225.34719,96.91848 C 95.584122,108.77528 37.473201,188.44341 57.155011,246.15581 c 19.68153,57.71213 54.297479,74.42779 85.212709,76.34839 19.48144,30.93876 59.91917,53.73123 111.06371,42.57374 30.24458,35.98569 35.26911,78.3524 54.0701,119.24928 L 361.98073,494 c -6.7676,-15.80803 -17.34108,-59.44419 -18.15247,-80.53041 92.69005,-27.50811 89.78097,-59.19502 90.74528,-78.28561 26.94325,-2.71622 37.57803,-18.62569 41.98477,-38.46314 4.64932,-30.38583 0.55153,-65.2595 -15.3073,-94.23243 C 430.94767,147.87287 374.2169,88.246241 225.34719,96.91848 Z M 419.84574,332.68564 C 210.84271,442.53544 23.155011,246.15581 219.50054,177.36793 c 196.34552,-68.78788 301.26903,102.2732 200.3452,155.31771 z"
       id="path5324" /><path
       inkscape:connector-curvature="0"
       style="fill:#a9bfbf;fill-opacity:1;stroke-width:1.33102787"
       id="path26"
       d="m 398.85477,356.03004 c -3.32758,-3.59377 -7.85307,-6.25583 -10.51513,-7.58686 -7.58686,-3.85997 -20.76403,-7.98616 -20.76403,-7.98616 0,0 64.82105,-4.9248 64.82105,-70.41138 0,-65.48656 -67.74931,-66.68449 -67.74931,-66.68449 H 215.57224 v 248.50289 h 74.13825 v -97.29813 c 0,0 17.03715,0 19.96541,0 4.12619,0 5.85653,1.19792 9.98272,4.52549 4.9248,3.99309 12.91097,18.10199 12.91097,18.10199 l 39.1322,74.67065 h 83.72165 l -51.77697,-88.77955 c 0,0 -1.59724,-3.59378 -4.7917,-7.05445 z M 335.23164,299.46136 H 290.376 v -42.19359 h 44.85564 c 0,0 20.76403,-1.19792 20.76403,20.76404 0,21.29645 -20.76403,21.42955 -20.76403,21.42955 z"
       class="st1" /></g></svg>