<?xml version="1.0" encoding="UTF-8" standalone="no"?>
<!-- Created with Inkscape (http://www.inkscape.org/) -->

<svg
   width="552.33917mm"
   height="311.67007mm"
   viewBox="0 0 552.33917 311.67007"
   version="1.1"
   id="svg1"
   inkscape:version="1.4 (e7c3feb1, 2024-10-09)"
   sodipodi:docname="sagittal.svg"
   xmlns:inkscape="http://www.inkscape.org/namespaces/inkscape"
   xmlns:sodipodi="http://sodipodi.sourceforge.net/DTD/sodipodi-0.dtd"
   xmlns="http://www.w3.org/2000/svg"
   xmlns:svg="http://www.w3.org/2000/svg">
  <sodipodi:namedview
     id="namedview1"
     pagecolor="#505050"
     bordercolor="#eeeeee"
     borderopacity="1"
     inkscape:showpageshadow="0"
     inkscape:pageopacity="0"
     inkscape:pagecheckerboard="0"
     inkscape:deskcolor="#505050"
     inkscape:document-units="mm"
     inkscape:zoom="0.17771764"
     inkscape:cx="1043.7906"
     inkscape:cy="590.82485"
     inkscape:window-width="1248"
     inkscape:window-height="785"
     inkscape:window-x="453"
     inkscape:window-y="43"
     inkscape:window-maximized="0"
     inkscape:current-layer="layer1" />
  <defs
     id="defs1" />
  <g
     inkscape:label="Layer 1"
     inkscape:groupmode="layer"
     id="layer1"
     transform="translate(127.79376,-91.545827)">
    <path
       style="fill:none;fill-opacity:1;fill-rule:evenodd;stroke:#000000;stroke-width:3;stroke-linecap:round;stroke-linejoin:round;stroke-miterlimit:10;stroke-opacity:1"
       d="m -126.29376,250.26483 c 33.49616,16.253 140.49541,55.84201 196.94423,21.56553 17.558794,-10.66193 39.57305,-59.52186 47.58656,-78.91406 1.32602,-18.1738 -28.74697,-46.9043 -49.34933,-9.6087 -20.60236,37.2956 10.832084,75.46291 -14.8364,62.6909 -79.25661,-39.4362 60.11283,-57.2817 22.561594,18.24466 C 64.93601,278.55854 36.49167,271.04483 20.50735,261.28614 -1.28296,247.9828 -15.83384,242.4846 -18.02802,195.0956 c -3.11178,1.0733 -2.70771,-41.0735 19.53873,-39.9805 21.31874,0.5647 44.15832,17.9498 39.42609,39.3677 -17.87471,14.5261 -38.28216,-5.4337 -41.10974,-21.743 -7.15427,-23.6581 14.96714,-42.083 34.42557,-50.2097 53.619754,-36.7986 107.57404,6.4348 33.91851,23.3366 -85.40834,19.5987 4.65258,-42.5463 15.695044,-44.5673 22.845246,-4.5851 64.575676,-17.717 80.754526,3.4039 -29.25407,16.1162 -16.59108,33.2015 -27.1813,71.6161 30.24007,13.0136 1.7816,-78.4725 53.77168,-68.7496 44.51837,-6.1852 51.71115,8.7433 69.79205,41.4221 25.0111,15.2399 38.3173,30.7812 15.7964,49.2361 -18.378,14.3711 -47.2761,-35.956 -52.2462,-54.2913 0.6896,-20.1916 -42.17968,-29.1355 -51.92934,-8.0817 -12.2339,17.2411 22.25514,34.779 38.91534,37.7888 24.3488,10.3785 66.7639,-30.4868 88.8439,25.2693 29.5328,41.64 -40.8298,84.12821 -42.9608,57.31163 -2.4325,-24.13753 -5.1529,-43.00243 15.8358,-36.20563 20.9591,8.6979 36.8559,20.5461 37.2423,41.42497 -6.1998,20.52742 -33.77312,49.81897 -51.47432,46.37323 -24.4539,-4.67668 -89.73962,-27.70483 -71.7833,-43.7845 13.08237,-11.71511 48.0462,-58.1128 8.13934,-35.7371 -30.62424,17.171 76.04248,66.75623 29.69858,-21.3228 -6.7525,-12.8336 -47.32896,-29.8898 -41.4796,0.4092 5.84937,30.299 -53.34244,1.9102 -34.15939,23.1095 9.39256,10.3798 12.72838,-26.7819 3.2528,-31.2156 -21.60214,-10.1078 -44.07591,32.7774 -49.88337,51.29356 -6.593796,14.72473 -9.990546,25.59486 5.68682,34.47398 12.20348,8.6525 35.52245,19.38989 39.92404,-2.37409 -14.42877,-5.57342 -39.12624,-10.51143 -17.71104,-30.90174 9.47543,-14.61291 30.59547,-18.29651 42.82441,-6.03051 7.23143,18.78562 -25.24361,30.43349 -12.67549,51.45086 6.58995,17.35204 25.77481,25.71186 41.02201,34.87027 23.1445,8.66296 58.77368,-18.46154 43.30628,-40.88965 -10.4387,-16.52826 -44.47437,-25.13574 -61.38797,-12.75519 -13.03249,13.55387 0.616,46.96307 21.0978,38.66871 17.4301,-15.71224 -24.8005,-38.26014 -30.60023,-13.38831 -8.82248,16.60199 -34.43641,23.94037 -46.1858,13.96568 -7.06891,-20.36436 21.77102,-15.01949 16.72667,-1.43875 4.73697,25.86687 57.34325,109.60785 51.50457,78.78141 -7.10318,-37.50257 -48.91793,-64.00062 -29.22428,-68.77113 17.06947,4.39605 27.17587,21.23794 42.70477,29.01198 16.1397,11.04561 39.2674,13.18785 54.706,-0.42158 34.2181,-22.57388 69.3241,-55.21556 113.5931,-49.39601 15.3449,1.68594 33.1146,0.85873 44.9225,12.59482"
       id="path6"
       sodipodi:nodetypes="csczscacccccsccccccccccccccssszsacccccccccccccsccccc" />
  </g>
</svg>
