<svg width="769.189" height="122.95" viewBox="0 0 769.189 122.95" xmlns="http://www.w3.org/2000/svg"><g id="svgGroup" stroke-linecap="round" fill-rule="evenodd" font-size="9pt" stroke="#000" stroke-width="0.25mm" fill="none" style="stroke:#000;stroke-width:0.25mm;fill:none"><path d="M 89.014 52.442 L 89.111 49.903 A 28.174 28.174 0 0 1 89.487 49.959 Q 90.1 50.055 91.016 50.22 A 13.262 13.262 0 0 1 92.291 50.519 Q 92.957 50.708 93.677 50.977 A 14.373 14.373 0 0 1 95.496 51.81 A 17.777 17.777 0 0 1 96.606 52.466 A 9.877 9.877 0 0 1 98.486 54.043 A 12.26 12.26 0 0 1 99.316 55.029 Q 100.537 56.641 101.294 58.985 A 14.54 14.54 0 0 1 101.824 61.299 Q 101.994 62.433 102.037 63.723 A 26.679 26.679 0 0 1 102.051 64.6 Q 102.051 68.164 100.732 71.582 Q 99.414 75 97.07 77.661 Q 94.727 80.322 91.504 81.958 A 15.206 15.206 0 0 1 84.521 83.594 A 21.445 21.445 0 0 1 81.304 83.365 Q 79.608 83.107 78.166 82.56 A 12.938 12.938 0 0 1 77.759 82.398 A 12.809 12.809 0 0 1 74.589 80.521 A 11.405 11.405 0 0 1 73.071 79.029 A 13.405 13.405 0 0 1 70.86 75.275 A 16.309 16.309 0 0 1 70.361 73.804 A 22.262 22.262 0 0 1 69.617 69.84 A 28.294 28.294 0 0 1 69.482 67.041 A 30.852 30.852 0 0 1 69.611 64.345 Q 69.894 61.133 70.801 56.836 A 55.675 55.675 0 0 1 72.243 51.452 Q 73.07 48.853 74.208 45.998 A 108.426 108.426 0 0 1 75.684 42.481 A 178.978 178.978 0 0 1 64.575 46.607 Q 59.082 48.438 53.613 50.049 Q 50.732 54.492 47.217 58.765 A 102.196 102.196 0 0 1 39.868 66.797 A 91.078 91.078 0 0 1 31.982 73.706 A 76.804 76.804 0 0 1 26.955 77.309 A 64.587 64.587 0 0 1 23.975 79.151 Q 20.02 81.445 16.284 82.715 A 25.66 25.66 0 0 1 12.895 83.626 A 18.836 18.836 0 0 1 9.326 83.985 Q 6.445 83.985 4.639 83.154 A 10.053 10.053 0 0 1 3.23 82.374 Q 2.391 81.81 1.807 81.128 Q 0.781 79.932 0.391 78.516 Q 0.027 77.199 0.002 76.094 A 7.188 7.188 0 0 1 0 75.928 A 7.168 7.168 0 0 1 0.156 74.485 Q 0.293 73.815 0.553 73.091 A 12.929 12.929 0 0 1 0.708 72.681 A 12.671 12.671 0 0 1 1.665 70.781 A 17.413 17.413 0 0 1 2.881 69.043 A 19.687 19.687 0 0 1 4.658 67.092 A 26.354 26.354 0 0 1 6.592 65.405 A 28.834 28.834 0 0 1 9.366 63.47 A 37.396 37.396 0 0 1 11.865 62.061 Q 16.553 59.668 21.191 57.764 Q 25.83 55.86 30.396 54.273 A 243.764 243.764 0 0 1 39.453 51.319 A 939.788 939.788 0 0 1 48.438 48.633 A 120.855 120.855 0 0 0 52.856 40.112 A 104.804 104.804 0 0 0 55.594 33.754 A 91.611 91.611 0 0 0 56.372 31.69 A 71.522 71.522 0 0 0 57.986 26.706 A 58.831 58.831 0 0 0 58.716 23.853 Q 59.542 20.241 59.569 17.246 A 22.387 22.387 0 0 0 59.57 17.041 A 12.647 12.647 0 0 0 59.289 14.33 A 10.741 10.741 0 0 0 58.813 12.744 A 9.698 9.698 0 0 0 57.17 9.947 A 9.115 9.115 0 0 0 56.665 9.4 A 9.492 9.492 0 0 0 53.942 7.513 A 11.225 11.225 0 0 0 53.271 7.227 A 11.347 11.347 0 0 0 50.47 6.542 A 14.368 14.368 0 0 0 48.779 6.445 A 34.686 34.686 0 0 0 41.065 7.287 A 32.093 32.093 0 0 0 40.015 7.544 A 38.68 38.68 0 0 0 32.909 10.157 A 35.686 35.686 0 0 0 32.227 10.498 A 33.656 33.656 0 0 0 26.166 14.459 A 31.187 31.187 0 0 0 25.708 14.844 A 34.322 34.322 0 0 0 22.106 18.406 A 29.772 29.772 0 0 0 20.728 20.117 A 25.437 25.437 0 0 0 18.414 23.823 A 21.714 21.714 0 0 0 17.529 25.806 Q 16.406 28.711 16.406 31.445 A 10.767 10.767 0 0 0 16.568 33.362 Q 16.774 34.5 17.242 35.42 A 6.212 6.212 0 0 0 17.554 35.962 Q 18.701 37.744 20.459 38.794 A 12.037 12.037 0 0 0 24.243 40.259 A 21.115 21.115 0 0 0 26.409 40.592 A 16.53 16.53 0 0 0 28.027 40.674 A 21.283 21.283 0 0 0 31.168 40.448 A 19.203 19.203 0 0 0 31.86 40.332 A 46.286 46.286 0 0 0 33.378 40.024 Q 34.07 39.871 34.683 39.709 A 26.743 26.743 0 0 0 35.083 39.6 Q 36.018 39.337 36.711 39.086 A 11.796 11.796 0 0 0 37.329 38.843 L 38.184 38.477 L 39.258 40.82 A 1.509 1.509 0 0 1 39.135 40.885 Q 38.799 41.045 37.866 41.382 Q 36.719 41.797 34.863 42.285 A 32.435 32.435 0 0 1 33.123 42.689 Q 32.227 42.873 31.223 43.034 A 56.19 56.19 0 0 1 30.542 43.14 A 33.505 33.505 0 0 1 27.383 43.45 A 41.645 41.645 0 0 1 25.195 43.506 A 23.288 23.288 0 0 1 20.906 43.122 A 20.798 20.798 0 0 1 19.556 42.822 Q 16.895 42.139 14.917 40.674 A 10.316 10.316 0 0 1 11.792 36.89 A 10.483 10.483 0 0 1 10.931 34.32 Q 10.698 33.175 10.655 31.864 A 18.42 18.42 0 0 1 10.645 31.25 Q 10.645 27.49 12.378 24.024 A 25.913 25.913 0 0 1 15.984 18.664 A 30.065 30.065 0 0 1 17.041 17.505 A 37.369 37.369 0 0 1 22.628 12.755 A 42.415 42.415 0 0 1 23.804 11.963 Q 27.637 9.473 31.86 7.666 A 49.373 49.373 0 0 1 40.405 4.883 A 40.133 40.133 0 0 1 45.645 4.044 A 33.273 33.273 0 0 1 48.633 3.906 A 22.609 22.609 0 0 1 52.55 4.233 A 18.458 18.458 0 0 1 55.151 4.883 A 14.675 14.675 0 0 1 58.982 6.779 A 13.387 13.387 0 0 1 60.254 7.788 A 12.891 12.891 0 0 1 63.285 11.892 A 15.176 15.176 0 0 1 63.599 12.598 Q 64.795 15.479 64.795 19.287 A 30.287 30.287 0 0 1 64.505 23.378 A 38.036 38.036 0 0 1 64.014 26.172 A 59.18 59.18 0 0 1 61.963 33.447 A 69.783 69.783 0 0 1 59.082 40.43 A 63.847 63.847 0 0 1 57.238 44.004 A 50.209 50.209 0 0 1 55.762 46.485 Q 61.23 44.873 66.553 43.091 A 135.389 135.389 0 0 0 77.295 38.965 Q 81.445 30.89 85.279 25.005 A 92.668 92.668 0 0 1 87.598 21.607 A 105.474 105.474 0 0 1 91.124 16.948 Q 92.849 14.804 94.476 13.061 A 48.023 48.023 0 0 1 96.655 10.864 A 43.324 43.324 0 0 1 99.405 8.472 Q 100.779 7.382 102.06 6.588 A 18.089 18.089 0 0 1 104.248 5.42 Q 106.608 4.375 108.526 4.051 A 9.817 9.817 0 0 1 110.156 3.906 Q 112.534 3.906 114.047 4.971 A 4.975 4.975 0 0 1 114.648 5.469 A 5.13 5.13 0 0 1 116.069 8.045 A 7.749 7.749 0 0 1 116.26 9.815 A 9.832 9.832 0 0 1 115.704 12.987 Q 115.279 14.237 114.529 15.545 A 19.463 19.463 0 0 1 113.892 16.577 Q 111.523 20.166 107.471 23.535 Q 101.416 28.565 95.459 32.324 A 122.396 122.396 0 0 1 83.447 39.014 Q 80.664 44.922 78.857 49.658 Q 77.305 53.729 76.311 57.078 A 69.479 69.479 0 0 0 76.001 58.154 Q 74.951 61.914 74.512 64.844 Q 74.072 67.774 74.072 70.02 Q 74.072 72.601 74.721 74.554 A 10.119 10.119 0 0 0 74.854 74.927 A 10.307 10.307 0 0 0 75.891 76.985 A 8.502 8.502 0 0 0 77.026 78.369 Q 78.418 79.737 80.322 80.396 A 11.986 11.986 0 0 0 83.091 80.987 A 14.764 14.764 0 0 0 84.521 81.055 A 13.15 13.15 0 0 0 90.259 79.761 A 15.35 15.35 0 0 0 95.02 76.221 A 16.958 16.958 0 0 0 98.114 71.344 A 19.246 19.246 0 0 0 98.267 70.972 A 17.134 17.134 0 0 0 99.462 64.764 A 19.419 19.419 0 0 0 99.463 64.551 A 20.229 20.229 0 0 0 99.35 62.356 Q 99.181 60.804 98.755 59.57 A 13.262 13.262 0 0 0 98.033 57.857 Q 97.579 56.97 97.023 56.27 A 8.091 8.091 0 0 0 96.948 56.177 A 9.65 9.65 0 0 0 95.643 54.852 A 7.919 7.919 0 0 0 94.531 54.077 A 15.685 15.685 0 0 0 93.41 53.49 Q 92.711 53.16 92.065 52.954 A 12.803 12.803 0 0 0 91.246 52.721 Q 90.841 52.621 90.48 52.565 A 6.27 6.27 0 0 0 90.063 52.515 A 70.281 70.281 0 0 0 89.766 52.49 Q 89.219 52.445 89.042 52.442 A 1.414 1.414 0 0 0 89.014 52.442 Z M 46.289 52.246 L 43.262 53.125 Q 40.576 53.922 37.278 55.026 A 263.912 263.912 0 0 0 36.182 55.396 A 126.247 126.247 0 0 0 29.148 58.026 A 138.556 138.556 0 0 0 28.125 58.447 A 109.076 109.076 0 0 0 20.093 62.183 A 53.785 53.785 0 0 0 15.949 64.547 A 43.133 43.133 0 0 0 13.11 66.504 A 26.786 26.786 0 0 0 10.358 68.866 A 20.14 20.14 0 0 0 8.203 71.362 Q 6.348 73.926 6.348 76.709 A 3.794 3.794 0 0 0 6.542 77.953 A 3.119 3.119 0 0 0 7.788 79.541 A 5.346 5.346 0 0 0 9.501 80.289 Q 10.412 80.518 11.523 80.518 A 17.033 17.033 0 0 0 16.049 79.875 Q 17.924 79.359 19.892 78.43 A 28.542 28.542 0 0 0 20.02 78.369 A 39.422 39.422 0 0 0 25.096 75.435 A 51.393 51.393 0 0 0 29.077 72.437 A 68.457 68.457 0 0 0 34.727 67.163 A 84.297 84.297 0 0 0 38.062 63.477 A 95.891 95.891 0 0 0 46.289 52.246 Z M 85.254 35.205 Q 90.381 32.569 95.508 29.224 A 110.688 110.688 0 0 0 102.627 24.152 A 130.573 130.573 0 0 0 105.908 21.533 A 35.004 35.004 0 0 0 107.892 19.788 A 25.813 25.813 0 0 0 109.546 18.067 A 29.912 29.912 0 0 0 110.742 16.609 Q 111.441 15.695 111.963 14.844 A 16.512 16.512 0 0 0 112.671 13.573 Q 113.071 12.769 113.306 12.036 Q 113.623 11.046 113.698 10.241 A 5.159 5.159 0 0 0 113.721 9.766 A 3.886 3.886 0 0 0 113.527 8.516 A 3.345 3.345 0 0 0 112.866 7.373 A 2.619 2.619 0 0 0 111.74 6.633 Q 111.305 6.48 110.768 6.426 A 6.13 6.13 0 0 0 110.156 6.397 A 7.728 7.728 0 0 0 107.736 6.801 A 10.466 10.466 0 0 0 106.03 7.544 A 18.424 18.424 0 0 0 103.888 8.911 Q 102.875 9.655 101.846 10.592 A 29.64 29.64 0 0 0 101.709 10.718 A 36.885 36.885 0 0 0 99.245 13.229 A 46.999 46.999 0 0 0 97.339 15.503 A 82.437 82.437 0 0 0 94.121 19.888 A 93.75 93.75 0 0 0 93.066 21.46 Q 90.967 24.658 88.989 28.174 A 163.36 163.36 0 0 0 85.254 35.205 Z" id="0" vector-effect="non-scaling-stroke"/><path d="M 147.656 45.215 L 149.219 45.899 A 46.652 46.652 0 0 1 148.869 46.582 Q 148.297 47.681 147.437 49.219 Q 146.289 51.27 144.971 53.736 A 206.705 206.705 0 0 0 142.979 57.558 A 229.844 229.844 0 0 0 142.31 58.887 A 101.388 101.388 0 0 0 140.433 62.847 A 90.74 90.74 0 0 0 139.868 64.136 A 56.061 56.061 0 0 0 138.756 66.927 A 44.118 44.118 0 0 0 138.062 68.97 A 19.963 19.963 0 0 0 137.658 70.447 Q 137.496 71.154 137.421 71.775 A 8.493 8.493 0 0 0 137.354 72.803 A 6.306 6.306 0 0 0 137.383 73.434 Q 137.487 74.467 137.964 74.829 A 2.182 2.182 0 0 0 138.779 75.208 Q 139.131 75.293 139.551 75.293 A 5.334 5.334 0 0 0 141.304 74.985 A 7.232 7.232 0 0 0 142.456 74.463 A 14.499 14.499 0 0 0 144.299 73.235 A 17.845 17.845 0 0 0 145.386 72.315 Q 146.826 70.996 148.193 69.336 A 59.014 59.014 0 0 0 150.757 65.991 A 80.75 80.75 0 0 0 152.166 63.943 A 66.802 66.802 0 0 0 152.93 62.769 A 4260.535 4260.535 0 0 1 153.621 61.68 Q 153.892 61.254 154.134 60.873 A 2104.635 2104.635 0 0 1 154.59 60.156 L 156.348 61.524 A 50.254 50.254 0 0 1 155.444 63.147 A 66.233 66.233 0 0 1 154.395 64.893 A 56.724 56.724 0 0 1 152.261 68.073 A 62.577 62.577 0 0 1 151.929 68.53 A 42.434 42.434 0 0 1 149.023 72.07 A 25.086 25.086 0 0 1 146.051 74.847 A 23.041 23.041 0 0 1 145.728 75.098 A 16.165 16.165 0 0 1 142.327 77.098 A 15.117 15.117 0 0 1 142.09 77.197 A 10.202 10.202 0 0 1 138.184 77.979 Q 136.085 77.979 134.789 77.077 A 4.108 4.108 0 0 1 133.887 76.221 Q 132.52 74.463 132.52 71.68 A 6.181 6.181 0 0 1 132.521 71.572 Q 132.524 71.395 132.536 71.051 A 98.359 98.359 0 0 1 132.544 70.825 Q 132.568 70.166 132.666 69.776 A 52.651 52.651 0 0 1 130.574 72.259 Q 129.254 73.727 128.003 74.854 Q 125.864 76.781 123.861 77.939 A 17.68 17.68 0 0 1 123.706 78.028 A 17.998 17.998 0 0 1 121.667 79.022 A 13.629 13.629 0 0 1 119.702 79.663 A 16.897 16.897 0 0 1 117.358 80.062 A 14.121 14.121 0 0 1 116.016 80.127 A 10.024 10.024 0 0 1 112.989 79.676 A 9.401 9.401 0 0 1 112.524 79.517 A 8.486 8.486 0 0 1 109.644 77.735 A 8.07 8.07 0 0 1 107.882 75.285 A 9.468 9.468 0 0 1 107.69 74.854 A 9.046 9.046 0 0 1 107.118 72.761 A 12.236 12.236 0 0 1 106.982 70.899 Q 106.982 68.606 107.827 65.768 A 29.148 29.148 0 0 1 108.228 64.527 A 21.499 21.499 0 0 1 109.621 61.399 Q 110.812 59.187 112.646 56.787 A 40.714 40.714 0 0 1 115.65 53.225 A 31.895 31.895 0 0 1 118.237 50.781 A 37.431 37.431 0 0 1 121.297 48.456 A 28.654 28.654 0 0 1 123.95 46.851 Q 126.758 45.362 129.297 44.727 A 23.836 23.836 0 0 1 131.38 44.298 Q 132.408 44.137 133.33 44.102 A 13.28 13.28 0 0 1 133.838 44.092 Q 138.164 44.092 140.452 45.473 A 6.254 6.254 0 0 1 140.625 45.581 Q 142.92 47.07 143.408 50.147 A 67.981 67.981 0 0 1 145.459 47.705 Q 146.533 46.485 147.656 45.215 Z M 134.229 64.453 A 75.664 75.664 0 0 0 134.564 63.906 Q 135.06 63.089 135.699 61.998 A 216.375 216.375 0 0 0 135.791 61.841 A 209.166 209.166 0 0 1 137.238 59.406 A 232.238 232.238 0 0 1 137.744 58.57 Q 138.77 56.885 139.746 55.322 A 110.514 110.514 0 0 1 140.444 54.219 Q 140.721 53.788 140.973 53.405 A 55.628 55.628 0 0 1 141.455 52.686 Q 141.455 52.354 141.386 51.718 A 28.686 28.686 0 0 0 141.333 51.27 A 5.262 5.262 0 0 0 140.994 49.977 A 6.625 6.625 0 0 0 140.674 49.292 A 4.164 4.164 0 0 0 139.812 48.198 A 5.73 5.73 0 0 0 138.965 47.559 A 4.214 4.214 0 0 0 137.884 47.091 Q 137.362 46.942 136.734 46.877 A 10.091 10.091 0 0 0 135.693 46.826 Q 134.18 46.826 132.3 47.29 Q 130.449 47.747 128.362 48.819 A 25.231 25.231 0 0 0 128.296 48.853 A 23.228 23.228 0 0 0 125.936 50.266 A 30.782 30.782 0 0 0 123.926 51.758 A 28.307 28.307 0 0 0 121.539 53.926 A 37.935 37.935 0 0 0 119.434 56.25 A 40.183 40.183 0 0 0 116.288 60.563 A 31.332 31.332 0 0 0 114.233 64.38 A 24.711 24.711 0 0 0 113.118 67.325 Q 112.648 68.873 112.487 70.286 A 12.715 12.715 0 0 0 112.402 71.729 A 9.815 9.815 0 0 0 112.533 73.381 Q 112.686 74.277 113.02 74.993 A 4.668 4.668 0 0 0 113.672 76.026 A 4.127 4.127 0 0 0 116.18 77.445 A 6.156 6.156 0 0 0 117.285 77.539 A 10.906 10.906 0 0 0 122.314 76.343 A 19.318 19.318 0 0 0 126.451 73.478 A 21.619 21.619 0 0 0 126.709 73.242 Q 128.76 71.338 130.615 69.019 Q 132.471 66.699 134.229 64.453 Z" id="1" vector-effect="non-scaling-stroke"/><path d="M 169.922 35.108 L 171.631 35.791 L 160.547 58.057 A 77.912 77.912 0 0 1 166.699 51.05 A 38.643 38.643 0 0 1 170.371 47.776 A 30.924 30.924 0 0 1 173.291 45.752 Q 175.781 44.287 177.686 43.726 Q 179.59 43.164 181.299 43.164 A 8.446 8.446 0 0 1 182.439 43.237 Q 183.025 43.317 183.514 43.485 A 4.241 4.241 0 0 1 184.033 43.701 A 4.935 4.935 0 0 1 185.141 44.448 A 4.261 4.261 0 0 1 185.742 45.117 Q 186.377 45.996 186.621 47.046 Q 186.865 48.096 186.865 49.121 A 13.737 13.737 0 0 1 186.084 53.662 A 33.053 33.053 0 0 1 184.155 58.106 Q 183.008 60.303 181.641 62.427 A 88.384 88.384 0 0 0 179.713 65.558 A 78.189 78.189 0 0 0 179.126 66.577 A 34.482 34.482 0 0 0 177.721 69.329 A 29.623 29.623 0 0 0 177.197 70.557 A 11.326 11.326 0 0 0 176.588 72.591 A 8.992 8.992 0 0 0 176.416 74.317 Q 176.416 74.943 176.528 75.408 A 2.66 2.66 0 0 0 176.636 75.757 A 2.704 2.704 0 0 0 176.847 76.187 Q 177.01 76.452 177.222 76.636 A 1.895 1.895 0 0 0 177.747 76.963 A 1.735 1.735 0 0 0 178.027 77.051 Q 178.467 77.149 178.906 77.149 A 2.533 2.533 0 0 0 179.646 77.029 Q 180.28 76.835 181.031 76.327 A 8.55 8.55 0 0 0 181.079 76.294 A 15.936 15.936 0 0 0 182.201 75.444 Q 182.758 74.984 183.345 74.429 A 28.386 28.386 0 0 0 183.74 74.048 A 39.764 39.764 0 0 0 185.356 72.359 A 50.286 50.286 0 0 0 186.646 70.874 Q 188.135 69.092 189.526 67.212 Q 190.918 65.332 192.139 63.501 A 123.247 123.247 0 0 0 193.282 61.756 Q 193.817 60.923 194.28 60.168 A 93.882 93.882 0 0 0 194.287 60.156 L 196.094 61.524 Q 195.609 62.494 194.705 64.022 A 87.961 87.961 0 0 1 194.507 64.356 A 55.101 55.101 0 0 1 193.365 66.181 A 73.082 73.082 0 0 1 192.041 68.14 A 60.321 60.321 0 0 1 189.357 71.686 A 66.436 66.436 0 0 1 188.94 72.193 A 34.874 34.874 0 0 1 185.632 75.67 A 32.19 32.19 0 0 1 185.4 75.879 A 21.647 21.647 0 0 1 183.052 77.716 A 17.959 17.959 0 0 1 181.616 78.589 A 9.175 9.175 0 0 1 179.824 79.343 A 7.028 7.028 0 0 1 177.832 79.639 Q 176.563 79.639 175.391 79.248 Q 174.219 78.858 173.34 78.052 A 5.436 5.436 0 0 1 172.333 76.795 A 6.904 6.904 0 0 1 171.924 75.977 Q 171.422 74.792 171.389 73.181 A 11.193 11.193 0 0 1 171.387 72.949 A 12.593 12.593 0 0 1 171.544 71.028 Q 171.754 69.675 172.241 68.115 A 16.265 16.265 0 0 1 173.105 65.955 Q 173.615 64.89 174.321 63.73 A 36.72 36.72 0 0 1 175.537 61.865 Q 176.913 59.885 178.036 58.354 A 96.881 96.881 0 0 1 179.004 57.056 Q 180.125 55.579 180.946 54.389 A 43.158 43.158 0 0 0 181.421 53.687 Q 182.373 52.246 182.813 51.05 A 7.135 7.135 0 0 0 183.2 49.364 A 8.914 8.914 0 0 0 183.252 48.389 A 3.519 3.519 0 0 0 183.169 47.602 Q 183.044 47.057 182.73 46.663 A 2.115 2.115 0 0 0 182.52 46.436 A 2.618 2.618 0 0 0 181.79 45.945 A 2.282 2.282 0 0 0 180.859 45.752 Q 178.369 45.752 175.732 47.168 Q 173.096 48.584 170.508 50.904 Q 167.92 53.223 165.43 56.201 A 103.081 103.081 0 0 0 160.718 62.28 A 128.801 128.801 0 0 0 157.578 66.863 A 114.233 114.233 0 0 0 156.616 68.36 A 197.815 197.815 0 0 0 155.069 70.849 Q 154.371 71.993 153.764 73.028 A 114.35 114.35 0 0 0 153.369 73.706 A 197.492 197.492 0 0 0 152.724 74.832 Q 152.097 75.934 151.633 76.789 A 61.166 61.166 0 0 0 151.245 77.515 A 214.017 214.017 0 0 1 151.067 77.853 Q 150.541 78.85 150.453 78.985 A 0.141 0.141 0 0 1 150.439 79.004 A 1338.083 1338.083 0 0 1 146.925 86.147 A 1216.874 1216.874 0 0 1 146.436 87.134 A 2938.38 2938.38 0 0 0 144.537 90.961 A 2480.227 2480.227 0 0 0 142.749 94.58 Q 141.016 98.096 139.551 101.001 A 2257.173 2257.173 0 0 0 138.507 103.074 Q 138.095 103.893 137.721 104.638 A 1241.703 1241.703 0 0 0 137.012 106.055 L 135.327 109.424 A 141.737 141.737 0 0 1 135.183 109.711 Q 134.711 110.651 134.668 110.694 L 129.346 107.666 Q 133.35 100.098 136.572 93.994 A 1224.81 1224.81 0 0 1 139.722 88.068 A 1027.69 1027.69 0 0 1 142.725 82.495 A 1061.001 1061.001 0 0 1 148.398 72.18 A 981.799 981.799 0 0 1 148.486 72.022 Q 151.318 66.944 154.492 61.402 A 1223.888 1223.888 0 0 1 157.806 55.652 A 1521.895 1521.895 0 0 1 161.401 49.487 A 1663.026 1663.026 0 0 1 165.134 43.154 Q 167.099 39.836 169.291 36.164 A 2742.705 2742.705 0 0 1 169.922 35.108 Z" id="2" vector-effect="non-scaling-stroke"/><path d="M 209.619 35.108 L 211.328 35.791 L 200.244 58.057 A 77.912 77.912 0 0 1 206.396 51.05 A 38.643 38.643 0 0 1 210.068 47.776 A 30.924 30.924 0 0 1 212.988 45.752 Q 215.479 44.287 217.383 43.726 Q 219.287 43.164 220.996 43.164 A 8.446 8.446 0 0 1 222.136 43.237 Q 222.722 43.317 223.212 43.485 A 4.241 4.241 0 0 1 223.73 43.701 A 4.935 4.935 0 0 1 224.838 44.448 A 4.261 4.261 0 0 1 225.439 45.117 Q 226.074 45.996 226.318 47.046 Q 226.563 48.096 226.563 49.121 A 13.737 13.737 0 0 1 225.781 53.662 A 33.053 33.053 0 0 1 223.853 58.106 Q 222.705 60.303 221.338 62.427 A 88.384 88.384 0 0 0 219.411 65.558 A 78.189 78.189 0 0 0 218.823 66.577 A 34.482 34.482 0 0 0 217.419 69.329 A 29.623 29.623 0 0 0 216.895 70.557 A 11.326 11.326 0 0 0 216.285 72.591 A 8.992 8.992 0 0 0 216.113 74.317 Q 216.113 74.943 216.225 75.408 A 2.66 2.66 0 0 0 216.333 75.757 A 2.704 2.704 0 0 0 216.544 76.187 Q 216.707 76.452 216.919 76.636 A 1.895 1.895 0 0 0 217.444 76.963 A 1.735 1.735 0 0 0 217.725 77.051 Q 218.164 77.149 218.604 77.149 A 2.533 2.533 0 0 0 219.343 77.029 Q 219.977 76.835 220.728 76.327 A 8.55 8.55 0 0 0 220.776 76.294 A 15.936 15.936 0 0 0 221.899 75.444 Q 222.455 74.984 223.043 74.429 A 28.386 28.386 0 0 0 223.438 74.048 A 39.764 39.764 0 0 0 225.054 72.359 A 50.286 50.286 0 0 0 226.343 70.874 Q 227.832 69.092 229.224 67.212 Q 230.615 65.332 231.836 63.501 A 123.247 123.247 0 0 0 232.979 61.756 Q 233.514 60.923 233.977 60.168 A 93.882 93.882 0 0 0 233.984 60.156 L 235.791 61.524 Q 235.306 62.494 234.402 64.022 A 87.961 87.961 0 0 1 234.204 64.356 A 55.101 55.101 0 0 1 233.063 66.181 A 73.082 73.082 0 0 1 231.738 68.14 A 60.321 60.321 0 0 1 229.055 71.686 A 66.436 66.436 0 0 1 228.638 72.193 A 34.874 34.874 0 0 1 225.329 75.67 A 32.19 32.19 0 0 1 225.098 75.879 A 21.647 21.647 0 0 1 222.75 77.716 A 17.959 17.959 0 0 1 221.313 78.589 A 9.175 9.175 0 0 1 219.521 79.343 A 7.028 7.028 0 0 1 217.529 79.639 Q 216.26 79.639 215.088 79.248 Q 213.916 78.858 213.037 78.052 A 5.436 5.436 0 0 1 212.031 76.795 A 6.904 6.904 0 0 1 211.621 75.977 Q 211.12 74.792 211.086 73.181 A 11.193 11.193 0 0 1 211.084 72.949 A 12.593 12.593 0 0 1 211.242 71.028 Q 211.451 69.675 211.938 68.115 A 16.265 16.265 0 0 1 212.803 65.955 Q 213.312 64.89 214.018 63.73 A 36.72 36.72 0 0 1 215.234 61.865 Q 216.611 59.885 217.733 58.354 A 96.881 96.881 0 0 1 218.701 57.056 Q 219.823 55.579 220.644 54.389 A 43.158 43.158 0 0 0 221.118 53.687 Q 222.07 52.246 222.51 51.05 A 7.135 7.135 0 0 0 222.897 49.364 A 8.914 8.914 0 0 0 222.949 48.389 A 3.519 3.519 0 0 0 222.867 47.602 Q 222.741 47.057 222.427 46.663 A 2.115 2.115 0 0 0 222.217 46.436 A 2.618 2.618 0 0 0 221.487 45.945 A 2.282 2.282 0 0 0 220.557 45.752 Q 218.066 45.752 215.43 47.168 Q 212.793 48.584 210.205 50.904 Q 207.617 53.223 205.127 56.201 A 103.081 103.081 0 0 0 200.415 62.28 A 128.801 128.801 0 0 0 197.275 66.863 A 114.233 114.233 0 0 0 196.313 68.36 A 197.815 197.815 0 0 0 194.767 70.849 Q 194.068 71.993 193.461 73.028 A 114.35 114.35 0 0 0 193.066 73.706 A 197.492 197.492 0 0 0 192.421 74.832 Q 191.795 75.934 191.331 76.789 A 61.166 61.166 0 0 0 190.942 77.515 A 214.017 214.017 0 0 1 190.764 77.853 Q 190.238 78.85 190.151 78.985 A 0.141 0.141 0 0 1 190.137 79.004 A 1338.083 1338.083 0 0 1 186.623 86.147 A 1216.874 1216.874 0 0 1 186.133 87.134 A 2938.38 2938.38 0 0 0 184.235 90.961 A 2480.227 2480.227 0 0 0 182.446 94.58 Q 180.713 98.096 179.248 101.001 A 2257.173 2257.173 0 0 0 178.204 103.074 Q 177.792 103.893 177.419 104.638 A 1241.703 1241.703 0 0 0 176.709 106.055 L 175.024 109.424 A 141.737 141.737 0 0 1 174.881 109.711 Q 174.408 110.651 174.365 110.694 L 169.043 107.666 Q 173.047 100.098 176.27 93.994 A 1224.81 1224.81 0 0 1 179.419 88.068 A 1027.69 1027.69 0 0 1 182.422 82.495 A 1061.001 1061.001 0 0 1 188.095 72.18 A 981.799 981.799 0 0 1 188.184 72.022 Q 191.016 66.944 194.189 61.402 A 1223.888 1223.888 0 0 1 197.504 55.652 A 1521.895 1521.895 0 0 1 201.099 49.487 A 1663.026 1663.026 0 0 1 204.831 43.154 Q 206.796 39.836 208.988 36.164 A 2742.705 2742.705 0 0 1 209.619 35.108 Z" id="3" vector-effect="non-scaling-stroke"/><path d="M 245.557 44.824 L 247.656 46.289 Q 247.07 47.119 246.045 48.584 A 52.269 52.269 0 0 0 245.051 50.059 Q 244.543 50.841 244.003 51.724 A 86.234 86.234 0 0 0 243.848 51.978 A 79.47 79.47 0 0 0 242.373 54.513 A 95.069 95.069 0 0 0 241.479 56.153 Q 240.283 58.399 239.307 60.742 A 35.341 35.341 0 0 0 237.72 65.43 A 19.7 19.7 0 0 0 237.243 67.837 A 15.327 15.327 0 0 0 237.109 69.824 Q 237.109 70.801 237.28 71.704 A 5.204 5.204 0 0 0 237.547 72.645 A 4.223 4.223 0 0 0 237.866 73.291 Q 238.281 73.975 238.965 74.365 Q 239.648 74.756 240.723 74.756 A 6.526 6.526 0 0 0 242.395 74.525 Q 243.382 74.264 244.458 73.706 A 19.581 19.581 0 0 0 246.521 72.461 Q 247.571 71.741 248.657 70.825 A 45.901 45.901 0 0 0 251.133 68.572 A 58.326 58.326 0 0 0 253.101 66.553 A 84.09 84.09 0 0 0 257.018 62.019 A 92.301 92.301 0 0 0 257.568 61.328 A 116.155 116.155 0 0 0 261.816 55.591 A 119.661 119.661 0 0 0 265.181 50.477 A 108.769 108.769 0 0 0 265.625 49.756 A 1463.482 1463.482 0 0 0 268.75 44.556 A 280.764 280.764 0 0 1 271.875 39.453 L 274.17 40.625 A 17.42 17.42 0 0 0 274.145 40.675 Q 274.014 40.94 273.267 42.456 A 265.346 265.346 0 0 0 272.804 43.399 Q 272.058 44.928 270.996 47.144 A 1516.34 1516.34 0 0 1 269.668 49.906 Q 268.985 51.324 268.22 52.906 A 2692.365 2692.365 0 0 1 267.7 53.98 A 2706.346 2706.346 0 0 0 265.765 57.984 A 3225.047 3225.047 0 0 0 263.721 62.232 A 1730.751 1730.751 0 0 0 259.448 71.192 A 8117.79 8117.79 0 0 0 255.353 79.855 A 7466.893 7466.893 0 0 0 255.225 80.127 A 62.477 62.477 0 0 0 267.7 71.094 A 72.657 72.657 0 0 0 275.056 63.157 A 63.527 63.527 0 0 0 277.295 60.156 L 279.102 61.524 Q 274.854 68.018 268.555 73.511 A 79.108 79.108 0 0 1 261.609 78.888 A 106.97 106.97 0 0 1 253.369 84.033 A 338.113 338.113 0 0 1 249.359 92.346 A 265.448 265.448 0 0 1 245.435 99.903 A 117.735 117.735 0 0 1 242.038 105.791 Q 240.196 108.771 238.353 111.29 A 69.084 69.084 0 0 1 237.671 112.207 A 49.467 49.467 0 0 1 234.517 115.99 Q 232.86 117.776 231.204 119.139 A 26.246 26.246 0 0 1 229.907 120.142 A 16.173 16.173 0 0 1 226.618 122.008 A 11.941 11.941 0 0 1 222.021 122.949 A 6.497 6.497 0 0 1 219.708 122.55 A 5.839 5.839 0 0 1 217.627 121.192 Q 216.012 119.577 215.881 116.685 A 11.511 11.511 0 0 1 215.869 116.162 A 13.446 13.446 0 0 1 216.445 112.336 A 16.807 16.807 0 0 1 217.09 110.547 A 26.237 26.237 0 0 1 218.978 106.936 A 32.701 32.701 0 0 1 220.459 104.761 A 43.374 43.374 0 0 1 223.459 101.148 A 52.68 52.68 0 0 1 225.562 98.999 A 68.769 68.769 0 0 1 231.142 94.169 A 75.749 75.749 0 0 1 232.007 93.506 A 100.03 100.03 0 0 1 239.331 88.477 A 99.958 99.958 0 0 1 247.119 84.082 A 327.283 327.283 0 0 1 248.181 81.879 A 382.667 382.667 0 0 1 249.316 79.566 A 606.212 606.212 0 0 1 251.471 75.254 A 551.428 551.428 0 0 1 251.611 74.976 A 256.375 256.375 0 0 1 252.716 72.815 A 218.693 218.693 0 0 1 253.784 70.777 A 115.998 115.998 0 0 1 254.534 69.386 Q 254.83 68.845 255.101 68.369 A 55.012 55.012 0 0 1 255.615 67.481 A 58.759 58.759 0 0 1 252.261 70.898 A 52.981 52.981 0 0 1 251.758 71.362 A 39.872 39.872 0 0 1 249.335 73.409 A 32.679 32.679 0 0 1 247.9 74.463 A 22.272 22.272 0 0 1 245.781 75.769 A 17.612 17.612 0 0 1 244.165 76.538 A 10.335 10.335 0 0 1 242.254 77.129 A 8.258 8.258 0 0 1 240.625 77.295 A 8.854 8.854 0 0 1 238.599 77.071 A 7.437 7.437 0 0 1 237.183 76.587 A 7.449 7.449 0 0 1 234.546 74.561 A 8.981 8.981 0 0 1 233.148 72.216 A 10.731 10.731 0 0 1 232.861 71.436 A 11.909 11.909 0 0 1 232.358 69.025 A 14.953 14.953 0 0 1 232.275 67.432 A 15.66 15.66 0 0 1 232.776 63.578 A 19.859 19.859 0 0 1 233.496 61.328 A 34.014 34.014 0 0 1 236.646 55.152 A 46.955 46.955 0 0 1 240.942 49.463 A 57.08 57.08 0 0 1 243.28 46.961 A 43.252 43.252 0 0 1 245.557 44.824 Z M 244.873 88.819 A 97.918 97.918 0 0 0 235.663 95.241 A 89.696 89.696 0 0 0 234.448 96.216 Q 229.639 100.147 226.099 103.98 A 56.268 56.268 0 0 0 223.385 107.131 Q 222.132 108.708 221.167 110.198 A 30.215 30.215 0 0 0 220.557 111.182 A 20.555 20.555 0 0 0 219.544 113.092 Q 218.624 115.095 218.56 116.66 A 5.672 5.672 0 0 0 218.555 116.895 A 4.371 4.371 0 0 0 218.679 117.967 A 3.069 3.069 0 0 0 219.458 119.385 Q 220.361 120.313 221.777 120.313 Q 223.682 120.313 225.708 119.019 Q 227.734 117.725 229.761 115.479 A 38.22 38.22 0 0 0 231.907 112.865 A 50.665 50.665 0 0 0 233.789 110.181 A 97.454 97.454 0 0 0 236.751 105.356 A 111.3 111.3 0 0 0 237.72 103.638 Q 239.648 100.147 241.455 96.362 A 204.369 204.369 0 0 0 244.873 88.819 Z" id="4" vector-effect="non-scaling-stroke"/><path d="M 449.365 15.772 L 446.875 15.235 A 32.742 32.742 0 0 0 447.046 14.087 A 8.491 8.491 0 0 0 447.119 12.988 A 9.877 9.877 0 0 0 446.313 9.058 A 9.802 9.802 0 0 0 443.97 5.737 A 10.974 10.974 0 0 0 441.324 3.922 A 13.291 13.291 0 0 0 440.234 3.443 A 12.47 12.47 0 0 0 437.199 2.698 A 15.801 15.801 0 0 0 435.303 2.588 A 15.116 15.116 0 0 0 431.858 3.004 A 20.055 20.055 0 0 0 429.199 3.833 A 16.006 16.006 0 0 0 426.077 5.48 Q 424.727 6.384 423.377 7.617 A 28.628 28.628 0 0 0 422.754 8.203 A 40.975 40.975 0 0 0 419.987 11.184 Q 418.637 12.781 417.257 14.687 A 74.94 74.94 0 0 0 416.333 15.991 A 127.38 127.38 0 0 0 412.232 22.324 A 154.652 154.652 0 0 0 409.79 26.489 A 222.401 222.401 0 0 0 404.22 36.997 A 246.648 246.648 0 0 0 403.442 38.574 Q 400.342 44.922 397.559 51.074 A 472.401 472.401 0 0 0 394.885 57.092 A 404.106 404.106 0 0 0 392.432 62.842 A 915.428 915.428 0 0 0 390.502 67.498 Q 389.631 69.619 388.872 71.501 A 499.569 499.569 0 0 0 388.379 72.73 Q 387.07 76.001 386.206 78.284 A 148.062 148.062 0 0 0 385.718 79.59 A 1042.193 1042.193 0 0 1 385.494 80.198 Q 384.84 81.972 384.734 82.234 A 0.727 0.727 0 0 1 384.717 82.276 L 382.227 81.641 A 3184.333 3184.333 0 0 1 381.675 78.091 Q 381.415 76.406 381.184 74.901 A 1925.388 1925.388 0 0 1 381.177 74.854 A 157.701 157.701 0 0 1 380.563 70.45 A 137.811 137.811 0 0 1 380.396 69.043 Q 380.078 66.26 379.932 63.526 Q 379.785 60.791 379.785 57.666 A 70.48 70.48 0 0 1 379.827 55.304 Q 379.868 54.098 379.947 52.761 A 120.399 120.399 0 0 1 380.005 51.856 A 142.72 142.72 0 0 1 380.356 47.614 A 169.915 169.915 0 0 1 380.64 44.922 A 238.693 238.693 0 0 1 381.581 37.643 A 260.058 260.058 0 0 1 381.616 37.403 A 245.415 245.415 0 0 1 382.837 29.834 A 187.956 187.956 0 0 1 383.856 24.527 A 162.564 162.564 0 0 1 384.229 22.779 A 107.775 107.775 0 0 1 384.973 19.599 A 79.602 79.602 0 0 1 385.742 16.748 A 163.145 163.145 0 0 0 378.149 29.248 A 465.785 465.785 0 0 0 371.823 41.223 A 428.412 428.412 0 0 0 371.631 41.602 A 10305.991 10305.991 0 0 0 366.397 51.917 A 9388.275 9388.275 0 0 0 365.674 53.345 A 163.235 163.235 0 0 1 361.27 61.479 A 142.595 142.595 0 0 1 359.766 64.014 Q 356.738 68.994 353.369 73.145 A 40.643 40.643 0 0 1 347.214 79.297 A 37.18 37.18 0 0 1 345.972 80.249 Q 341.943 83.203 337.061 84.839 A 31.088 31.088 0 0 1 330.849 86.205 A 39.957 39.957 0 0 1 326.123 86.475 A 29.628 29.628 0 0 1 319.134 85.669 A 26.99 26.99 0 0 1 317.456 85.205 A 25.017 25.017 0 0 1 312.643 83.158 A 21.456 21.456 0 0 1 310.303 81.641 A 17.081 17.081 0 0 1 305.444 76.074 A 14.775 14.775 0 0 1 303.666 69.217 A 17.345 17.345 0 0 1 303.662 68.848 A 17.905 17.905 0 0 1 304.272 64.095 A 15.271 15.271 0 0 1 305.591 60.816 A 18.561 18.561 0 0 1 310.693 54.859 A 22.627 22.627 0 0 1 316.682 51.62 A 26.361 26.361 0 0 1 318.018 51.172 Q 322.168 49.903 326.611 49.903 Q 329.15 49.903 331.763 50.244 A 30.652 30.652 0 0 1 336.89 51.367 A 25.976 25.976 0 0 1 341.748 53.443 A 21.056 21.056 0 0 1 346.094 56.641 L 344.189 58.35 L 343.14 57.446 Q 342.191 56.63 340.406 55.675 A 32.115 32.115 0 0 0 340.015 55.469 Q 338.426 54.646 336.193 53.924 A 41.972 41.972 0 0 0 334.766 53.491 Q 331.908 52.678 328.179 52.597 A 38.47 38.47 0 0 0 327.344 52.588 A 22.772 22.772 0 0 0 320.703 53.565 A 18.433 18.433 0 0 0 315.934 55.764 A 17.094 17.094 0 0 0 314.966 56.445 A 14.506 14.506 0 0 0 310.938 61.133 A 12.383 12.383 0 0 0 309.572 65.375 A 15.922 15.922 0 0 0 309.424 67.578 A 14.994 14.994 0 0 0 309.927 71.527 A 12.726 12.726 0 0 0 311.035 74.292 A 15.419 15.419 0 0 0 315.332 79.273 A 19.455 19.455 0 0 0 321.011 82.214 A 22.025 22.025 0 0 0 321.436 82.349 A 23.814 23.814 0 0 0 328.467 83.399 A 28.007 28.007 0 0 0 334.193 82.835 A 23.089 23.089 0 0 0 338.208 81.616 A 29.294 29.294 0 0 0 346.313 76.612 A 42.321 42.321 0 0 0 351.219 71.58 A 50.701 50.701 0 0 0 353.296 68.897 A 100.607 100.607 0 0 0 357.288 62.919 A 119.949 119.949 0 0 0 359.619 58.985 Q 362.695 53.565 365.82 47.388 A 886.147 886.147 0 0 1 370.7 37.889 A 988.143 988.143 0 0 1 372.412 34.619 A 332.766 332.766 0 0 1 378.89 22.897 A 364.912 364.912 0 0 1 379.883 21.192 A 175.236 175.236 0 0 1 388.721 7.617 L 390.967 8.789 A 70.788 70.788 0 0 0 388.633 17.47 A 78.353 78.353 0 0 0 388.379 18.775 A 118.817 118.817 0 0 0 386.89 29.566 A 180.827 180.827 0 0 0 386.206 40.772 Q 386.035 46.436 385.986 51.953 Q 385.938 57.471 385.913 62.72 A 221.556 221.556 0 0 1 385.776 69.672 A 187.13 187.13 0 0 1 385.645 72.656 Q 386.786 69.736 388.25 66.146 A 736.474 736.474 0 0 1 389.648 62.744 A 395.613 395.613 0 0 1 392.114 56.922 A 473.053 473.053 0 0 1 394.824 50.781 Q 397.656 44.483 400.854 37.964 A 256.989 256.989 0 0 1 406.564 26.986 A 234.515 234.515 0 0 1 407.397 25.488 A 144.732 144.732 0 0 1 411.617 18.433 A 120.071 120.071 0 0 1 414.185 14.575 A 69.441 69.441 0 0 1 417.173 10.571 Q 419.08 8.209 420.947 6.397 A 28.571 28.571 0 0 1 424.042 3.8 Q 425.767 2.56 427.497 1.777 A 16.645 16.645 0 0 1 428.296 1.441 A 21.935 21.935 0 0 1 432.013 0.338 A 17.161 17.161 0 0 1 435.352 0 A 17.311 17.311 0 0 1 438.693 0.31 A 13.945 13.945 0 0 1 441.333 1.099 Q 443.994 2.197 445.85 3.98 A 12.143 12.143 0 0 1 448.682 8.106 A 12.453 12.453 0 0 1 449.658 12.94 A 14.014 14.014 0 0 1 449.479 15.135 A 16.102 16.102 0 0 1 449.365 15.772 Z" id="6" vector-effect="non-scaling-stroke"/><path d="M 442.822 60.156 L 444.482 61.621 A 70.426 70.426 0 0 1 441.44 66.287 Q 439.92 68.416 438.38 70.182 A 42.018 42.018 0 0 1 437.939 70.679 A 46.186 46.186 0 0 1 434.729 73.924 A 33.573 33.573 0 0 1 431.323 76.66 Q 428.027 78.955 424.854 79.981 Q 421.68 81.006 418.799 81.006 A 16.946 16.946 0 0 1 416.079 80.777 A 21.016 21.016 0 0 1 414.355 80.42 Q 412.012 79.834 410.034 78.467 A 10.546 10.546 0 0 1 407.228 75.566 A 12.632 12.632 0 0 1 406.763 74.805 Q 405.469 72.51 405.469 69.092 A 20.323 20.323 0 0 1 406.714 62.036 A 28.651 28.651 0 0 1 409.961 55.713 A 31.986 31.986 0 0 1 414.551 50.366 A 39.318 39.318 0 0 1 417.979 47.499 A 33.228 33.228 0 0 1 419.8 46.24 A 30.611 30.611 0 0 1 422.755 44.557 A 24.292 24.292 0 0 1 425 43.579 A 17.816 17.816 0 0 1 426.822 42.999 Q 427.728 42.767 428.544 42.679 A 8.932 8.932 0 0 1 429.492 42.627 A 8.905 8.905 0 0 1 431.669 42.905 A 10.212 10.212 0 0 1 432.08 43.018 A 6.973 6.973 0 0 1 434.448 44.238 A 5.816 5.816 0 0 1 435.756 45.709 A 7.245 7.245 0 0 1 436.157 46.436 Q 436.816 47.803 436.816 49.707 A 10.27 10.27 0 0 1 435.62 54.566 A 16.202 16.202 0 0 1 433.028 58.154 A 18.663 18.663 0 0 1 432.422 58.765 A 23.424 23.424 0 0 1 429.062 61.438 A 27.182 27.182 0 0 1 427.783 62.232 Q 425.146 63.77 422.266 64.844 Q 419.385 65.918 416.455 66.553 A 31.026 31.026 0 0 1 412.907 67.117 A 25.62 25.62 0 0 1 410.889 67.237 Q 410.791 67.822 410.742 68.408 A 14.105 14.105 0 0 0 410.693 69.58 A 10.818 10.818 0 0 0 411.198 72.9 A 10.324 10.324 0 0 0 411.206 72.925 A 8.406 8.406 0 0 0 412.305 75.166 A 7.788 7.788 0 0 0 412.72 75.708 A 7.007 7.007 0 0 0 415.21 77.588 Q 416.699 78.272 418.604 78.272 A 19.467 19.467 0 0 0 427.761 75.928 A 25.76 25.76 0 0 0 430.957 73.926 A 33.194 33.194 0 0 0 435.418 69.953 Q 439.13 66.046 442.822 60.156 Z M 411.279 65.137 A 27.036 27.036 0 0 0 416.338 64.13 A 24.464 24.464 0 0 0 417.432 63.77 Q 420.313 62.744 422.705 61.255 A 28.514 28.514 0 0 0 425.974 58.897 A 24.983 24.983 0 0 0 426.978 58.008 A 25.601 25.601 0 0 0 428.899 56.015 A 20.334 20.334 0 0 0 430.127 54.444 A 21.162 21.162 0 0 0 431.235 52.701 A 15.489 15.489 0 0 0 432.08 50.977 A 10.71 10.71 0 0 0 432.497 49.78 Q 432.672 49.151 432.732 48.58 A 5.549 5.549 0 0 0 432.764 47.998 A 3.98 3.98 0 0 0 432.672 47.12 Q 432.527 46.478 432.151 46.011 A 2.496 2.496 0 0 0 432.056 45.899 A 2.499 2.499 0 0 0 431.41 45.378 A 2.121 2.121 0 0 0 430.371 45.117 Q 428.688 45.117 426.676 46.061 A 15.754 15.754 0 0 0 425.537 46.655 A 21.839 21.839 0 0 0 422.852 48.487 Q 421.593 49.482 420.334 50.735 A 34.934 34.934 0 0 0 420.166 50.904 Q 417.48 53.613 415.112 57.276 A 36.647 36.647 0 0 0 411.279 65.137 Z" id="7" vector-effect="non-scaling-stroke"/><path d="M 454.248 44.531 L 456.348 45.899 Q 453.564 50.147 451.611 53.98 A 90.45 90.45 0 0 0 449.829 57.672 A 66.649 66.649 0 0 0 448.389 61.084 A 49.768 49.768 0 0 0 447.409 63.835 Q 446.965 65.213 446.664 66.468 A 29 29 0 0 0 446.533 67.041 Q 446.085 69.097 445.979 70.724 A 14.836 14.836 0 0 0 445.947 71.68 Q 445.947 74.545 447 75.582 A 2.094 2.094 0 0 0 448.535 76.172 A 3.871 3.871 0 0 0 449.772 75.952 Q 450.858 75.586 452.124 74.61 A 20.356 20.356 0 0 0 453.911 73.046 Q 454.78 72.198 455.661 71.167 A 35.732 35.732 0 0 0 456.25 70.459 A 44.888 44.888 0 0 0 458.581 67.301 A 57.261 57.261 0 0 0 460.352 64.502 A 56.042 56.042 0 0 0 463.867 57.52 L 463.916 57.569 A 93.497 93.497 0 0 1 467.017 50.684 A 76.552 76.552 0 0 1 469.149 46.704 A 62.491 62.491 0 0 1 470.459 44.531 L 472.656 45.899 Q 472.086 47.476 471.353 49.516 A 2771.502 2771.502 0 0 0 470.654 51.465 A 118.236 118.236 0 0 0 468.965 56.551 A 131.941 131.941 0 0 0 468.433 58.325 A 97.908 97.908 0 0 0 466.626 65.479 A 38.175 38.175 0 0 0 466.109 68.467 Q 465.903 70.045 465.874 71.464 A 22.558 22.558 0 0 0 465.869 71.924 A 17.039 17.039 0 0 0 465.91 73.128 A 14.941 14.941 0 0 0 465.942 73.511 A 7.199 7.199 0 0 0 466.042 74.204 A 5.26 5.26 0 0 0 466.211 74.854 A 2.44 2.44 0 0 0 466.428 75.335 A 1.845 1.845 0 0 0 466.797 75.781 A 1.37 1.37 0 0 0 467.552 76.11 A 1.83 1.83 0 0 0 467.773 76.123 A 4.611 4.611 0 0 0 469.141 75.9 Q 469.737 75.714 470.382 75.376 A 11.517 11.517 0 0 0 471.558 74.658 A 22.073 22.073 0 0 0 473.814 72.861 A 29.762 29.762 0 0 0 475.806 70.874 A 45.82 45.82 0 0 0 479.128 66.783 A 51.79 51.79 0 0 0 479.858 65.747 A 50.249 50.249 0 0 0 481.934 62.473 A 40.436 40.436 0 0 0 483.105 60.303 A 16.297 16.297 0 0 1 481.253 54.129 A 20.134 20.134 0 0 1 481.152 52.1 A 23.291 23.291 0 0 1 481.218 50.305 Q 481.286 49.428 481.424 48.67 A 11.54 11.54 0 0 1 481.616 47.803 Q 482.08 46.045 482.764 44.946 Q 483.447 43.848 484.277 43.384 Q 484.886 43.044 485.416 42.953 A 2.221 2.221 0 0 1 485.791 42.92 A 2.441 2.441 0 0 1 487.387 43.52 A 3.922 3.922 0 0 1 488.013 44.19 Q 488.965 45.459 488.965 48.731 A 15.961 15.961 0 0 1 488.806 50.908 Q 488.602 52.388 488.135 54.077 Q 487.305 57.08 485.84 60.303 Q 486.719 61.572 487.988 62.354 A 5.549 5.549 0 0 0 490.028 63.096 A 7.107 7.107 0 0 0 490.967 63.184 L 490.527 65.528 A 8.059 8.059 0 0 1 487.966 64.975 A 7.517 7.517 0 0 1 487.305 64.673 A 8.868 8.868 0 0 1 484.717 62.647 A 47.389 47.389 0 0 1 480.981 68.628 A 37.222 37.222 0 0 1 477.631 72.615 A 32.806 32.806 0 0 1 476.44 73.779 A 24.297 24.297 0 0 1 473.173 76.349 A 20.845 20.845 0 0 1 471.387 77.393 A 12.27 12.27 0 0 1 468.241 78.534 A 10.631 10.631 0 0 1 466.064 78.76 A 5.226 5.226 0 0 1 463.94 78.32 A 5.065 5.065 0 0 1 462.332 77.189 A 5.915 5.915 0 0 1 462.158 77.002 A 5.419 5.419 0 0 1 461.387 75.859 A 7.405 7.405 0 0 1 460.938 74.756 Q 460.542 73.525 460.502 71.898 A 15.063 15.063 0 0 1 460.498 71.533 A 21.827 21.827 0 0 1 460.517 70.641 A 26.714 26.714 0 0 1 460.547 70.069 A 14.22 14.22 0 0 1 460.699 68.715 A 15.914 15.914 0 0 1 460.742 68.457 A 56.368 56.368 0 0 1 458.393 71.834 A 50.149 50.149 0 0 1 457.837 72.559 A 26.376 26.376 0 0 1 456.138 74.531 A 20.982 20.982 0 0 1 454.785 75.83 A 14.563 14.563 0 0 1 452.733 77.341 A 12.369 12.369 0 0 1 451.538 77.979 Q 449.854 78.76 448.096 78.76 A 9.216 9.216 0 0 1 446.558 78.638 Q 445.693 78.492 444.972 78.169 A 5.631 5.631 0 0 1 444.824 78.101 Q 443.457 77.442 442.578 76.245 Q 441.699 75.049 441.284 73.438 Q 440.869 71.826 440.869 69.922 A 22.393 22.393 0 0 1 441.581 64.405 A 26.041 26.041 0 0 1 441.968 63.037 Q 443.066 59.522 444.922 56.153 Q 446.777 52.783 449.194 49.805 A 43.887 43.887 0 0 1 452.863 45.799 A 38.281 38.281 0 0 1 454.248 44.531 Z M 484.473 57.324 Q 485.4 55.127 485.889 52.881 A 20.945 20.945 0 0 0 486.367 49.093 A 19.096 19.096 0 0 0 486.377 48.487 A 16.987 16.987 0 0 0 486.362 47.739 Q 486.33 47.023 486.232 46.556 A 2.793 2.793 0 0 0 486.133 46.192 A 7.912 7.912 0 0 0 486.045 45.956 Q 485.861 45.49 485.742 45.41 Q 485.701 45.41 485.464 45.605 A 8.871 8.871 0 0 0 485.376 45.679 Q 485.114 45.9 484.803 46.437 A 7.764 7.764 0 0 0 484.668 46.68 A 5.533 5.533 0 0 0 484.408 47.25 Q 484.288 47.553 484.176 47.918 A 14.163 14.163 0 0 0 483.96 48.706 A 9.425 9.425 0 0 0 483.773 49.734 Q 483.708 50.236 483.675 50.815 A 22.081 22.081 0 0 0 483.643 52.051 Q 483.643 53.467 483.862 54.834 A 16.226 16.226 0 0 0 484.164 56.295 A 12.904 12.904 0 0 0 484.473 57.324 Z" id="8" vector-effect="non-scaling-stroke"/><path d="M 552.588 70.02 L 551.758 72.412 A 43.381 43.381 0 0 0 550.354 72.016 A 32.063 32.063 0 0 0 549.072 71.704 A 25.896 25.896 0 0 0 546.655 71.289 Q 545.459 71.143 544.238 71.07 A 39.557 39.557 0 0 0 542.969 71.015 A 49.281 49.281 0 0 0 541.602 70.996 Q 536.963 70.996 532.861 72.559 A 21.848 21.848 0 0 0 525.9 76.778 A 21.059 21.059 0 0 0 525.708 76.953 A 20.875 20.875 0 0 0 520.874 83.716 Q 519.092 87.647 519.092 92.334 A 21.084 21.084 0 0 0 519.605 97.077 A 17.017 17.017 0 0 0 521.021 101.001 A 18.571 18.571 0 0 0 526.318 107.373 Q 529.688 109.961 534.277 111.304 A 33.458 33.458 0 0 0 540.958 112.516 A 40.213 40.213 0 0 0 544.238 112.647 A 44.567 44.567 0 0 0 551.861 112.018 A 36.94 36.94 0 0 0 556.641 110.864 A 41.427 41.427 0 0 0 567.163 105.86 Q 572.021 102.637 576.221 98.194 A 93.857 93.857 0 0 0 583.289 89.745 A 104.615 104.615 0 0 0 584.253 88.428 A 145.605 145.605 0 0 0 590.755 78.553 A 161.577 161.577 0 0 0 591.65 77.051 Q 595.215 70.996 598.828 64.6 A 94.182 94.182 0 0 1 595.227 68.235 A 75.963 75.963 0 0 1 592.822 70.435 A 48.086 48.086 0 0 1 589.36 73.203 A 39.026 39.026 0 0 1 587.012 74.78 A 28.371 28.371 0 0 1 583.42 76.674 A 23.73 23.73 0 0 1 581.274 77.49 Q 578.418 78.418 575.439 78.418 A 13.912 13.912 0 0 1 572.734 78.143 A 16.314 16.314 0 0 1 571.802 77.93 A 9.52 9.52 0 0 1 568.408 76.294 A 8.75 8.75 0 0 1 566.253 73.898 A 10.4 10.4 0 0 1 565.918 73.316 A 7.941 7.941 0 0 1 565.156 71.145 Q 564.968 70.218 564.945 69.154 A 13.862 13.862 0 0 1 564.941 68.848 A 9.945 9.945 0 0 1 565.199 66.645 A 12.649 12.649 0 0 1 565.601 65.259 Q 566.167 63.643 567.256 61.794 A 29.313 29.313 0 0 1 567.627 61.182 Q 568.903 59.13 570.754 56.76 A 72.092 72.092 0 0 1 571.021 56.421 A 123.751 123.751 0 0 1 573.076 53.894 Q 574.329 52.393 575.781 50.733 A 72.722 72.722 0 0 0 578.784 47.107 A 53.299 53.299 0 0 0 581.25 43.653 A 57.906 57.906 0 0 0 583.24 40.381 A 42.572 42.572 0 0 0 584.814 37.305 A 33.124 33.124 0 0 0 585.986 34.419 A 24.421 24.421 0 0 0 586.768 31.714 A 25.249 25.249 0 0 0 587.225 29.042 A 19.379 19.379 0 0 0 587.354 26.856 A 20.198 20.198 0 0 0 587.052 23.272 Q 586.651 21.049 585.718 19.238 Q 584.082 16.065 581.299 14.063 A 18.547 18.547 0 0 0 576.414 11.575 A 22.038 22.038 0 0 0 574.854 11.109 A 30.136 30.136 0 0 0 568.146 10.171 A 33.893 33.893 0 0 0 567.139 10.156 A 46.281 46.281 0 0 0 558.594 10.962 A 46.199 46.199 0 0 0 550.293 13.33 A 40.215 40.215 0 0 0 542.798 17.188 A 30.028 30.028 0 0 0 537.296 21.798 A 27.823 27.823 0 0 0 536.719 22.437 A 23.592 23.592 0 0 0 532.642 28.98 A 19.785 19.785 0 0 0 531.177 35.695 A 23.043 23.043 0 0 0 531.152 36.768 A 17.032 17.032 0 0 0 531.548 40.504 A 14.369 14.369 0 0 0 532.275 42.822 Q 533.398 45.557 535.474 47.534 A 13.714 13.714 0 0 0 539.267 50.073 A 16.43 16.43 0 0 0 540.527 50.586 A 17.81 17.81 0 0 0 544.34 51.483 A 23.266 23.266 0 0 0 547.266 51.66 A 23.06 23.06 0 0 0 551.409 51.274 A 26.274 26.274 0 0 0 552.393 51.074 A 29.338 29.338 0 0 0 557.593 49.39 A 32.803 32.803 0 0 0 562.545 46.73 A 35.867 35.867 0 0 0 562.622 46.68 A 32.395 32.395 0 0 0 567.285 42.969 L 568.799 44.58 Q 566.211 47.412 563.281 49.487 A 35.364 35.364 0 0 1 558.042 52.577 A 32.365 32.365 0 0 1 557.275 52.93 A 31.004 31.004 0 0 1 551.074 54.956 A 30.011 30.011 0 0 1 545.905 55.599 A 27.243 27.243 0 0 1 544.971 55.615 A 26.485 26.485 0 0 1 539.424 55.051 A 23.392 23.392 0 0 1 537.378 54.517 A 18.166 18.166 0 0 1 532.383 52.115 A 16.85 16.85 0 0 1 531.177 51.196 A 15.675 15.675 0 0 1 527.026 45.758 A 18.037 18.037 0 0 1 526.978 45.654 A 16.193 16.193 0 0 1 525.713 41.44 A 21.999 21.999 0 0 1 525.439 37.891 A 23.089 23.089 0 0 1 526.328 31.412 A 20.86 20.86 0 0 1 527.319 28.711 A 27.133 27.133 0 0 1 532.373 21.143 A 34.575 34.575 0 0 1 539.225 15.555 A 38.484 38.484 0 0 1 539.746 15.235 A 51.344 51.344 0 0 1 548.584 10.987 Q 553.223 9.278 558.008 8.423 A 54.784 54.784 0 0 1 564.403 7.652 A 47.182 47.182 0 0 1 567.188 7.569 A 35.838 35.838 0 0 1 572.56 7.954 A 28.111 28.111 0 0 1 576.831 8.936 A 21.74 21.74 0 0 1 581.515 11.024 A 18.564 18.564 0 0 1 584.204 12.988 Q 587.256 15.674 588.916 19.58 A 20.354 20.354 0 0 1 590.281 24.505 A 27.365 27.365 0 0 1 590.576 28.613 Q 590.576 33.838 589.111 38.404 A 45.707 45.707 0 0 1 585.767 46.282 A 42.184 42.184 0 0 1 585.425 46.9 A 64.993 64.993 0 0 1 581.275 53.348 A 59.201 59.201 0 0 1 580.64 54.199 A 600.418 600.418 0 0 1 578.162 57.434 A 470.875 470.875 0 0 1 575.854 60.401 A 71.733 71.733 0 0 0 574.055 62.79 Q 573.191 63.991 572.485 65.096 A 40.581 40.581 0 0 0 572.168 65.601 A 12.267 12.267 0 0 0 571.338 67.171 Q 570.703 68.637 570.703 69.922 Q 570.703 71.094 571.069 72.168 A 5.127 5.127 0 0 0 572.192 74.048 A 5.411 5.411 0 0 0 573.598 75.113 A 6.502 6.502 0 0 0 574.072 75.342 A 5.693 5.693 0 0 0 575.417 75.73 Q 576.023 75.83 576.709 75.83 A 10.634 10.634 0 0 0 579.266 75.498 Q 580.446 75.206 581.721 74.656 A 21.249 21.249 0 0 0 582.91 74.097 A 34.144 34.144 0 0 0 586.395 72.046 Q 588.116 70.899 589.9 69.454 A 55.305 55.305 0 0 0 590.015 69.361 A 71.885 71.885 0 0 0 594.208 65.65 A 91.341 91.341 0 0 0 597.534 62.305 A 127.949 127.949 0 0 0 604.571 54.191 A 139.711 139.711 0 0 0 605.029 53.613 Q 607.861 48.633 610.913 43.701 Q 613.965 38.77 617.31 34.009 A 153.971 153.971 0 0 1 624.39 24.707 Q 628.125 20.166 632.324 16.065 L 633.936 17.627 A 145.535 145.535 0 0 0 622.388 33.618 Q 617.236 41.895 612.695 50.22 A 826.135 826.135 0 0 0 603.979 66.626 A 239.426 239.426 0 0 1 596.502 80.056 A 215.688 215.688 0 0 1 595.361 81.934 A 126.057 126.057 0 0 1 587.156 93.758 A 114.278 114.278 0 0 1 585.913 95.313 A 58.867 58.867 0 0 1 574.731 105.933 Q 568.555 110.401 560.938 112.915 A 48.569 48.569 0 0 1 551.841 114.931 A 65.154 65.154 0 0 1 543.604 115.43 A 44.849 44.849 0 0 1 532.544 114.063 A 31.81 31.81 0 0 1 525.834 111.564 A 27.88 27.88 0 0 1 522.949 109.863 Q 518.75 107.031 516.211 102.783 A 17.683 17.683 0 0 1 513.972 96.535 A 23.319 23.319 0 0 1 513.672 92.725 Q 513.672 88.379 514.917 84.912 A 23.036 23.036 0 0 1 517.222 80.197 A 20.629 20.629 0 0 1 518.237 78.76 A 22.792 22.792 0 0 1 523.047 74.121 Q 525.781 72.168 528.76 70.923 Q 531.738 69.678 534.79 69.092 A 33.045 33.045 0 0 1 538.481 68.588 A 27.293 27.293 0 0 1 540.576 68.506 A 98.34 98.34 0 0 1 542.402 68.522 Q 543.26 68.538 544.022 68.57 A 57.422 57.422 0 0 1 544.238 68.579 A 34.823 34.823 0 0 1 546.144 68.716 A 28.293 28.293 0 0 1 547.241 68.848 A 40.066 40.066 0 0 1 549.422 69.214 A 35.542 35.542 0 0 1 549.902 69.312 Q 551.172 69.58 552.588 70.02 Z" id="10" vector-effect="non-scaling-stroke"/><path d="M 653.955 60.156 L 655.615 61.621 A 70.426 70.426 0 0 1 652.573 66.287 Q 651.053 68.416 649.513 70.182 A 42.018 42.018 0 0 1 649.072 70.679 A 46.186 46.186 0 0 1 645.861 73.924 A 33.573 33.573 0 0 1 642.456 76.66 Q 639.16 78.955 635.986 79.981 Q 632.813 81.006 629.932 81.006 A 16.946 16.946 0 0 1 627.212 80.777 A 21.016 21.016 0 0 1 625.488 80.42 Q 623.145 79.834 621.167 78.467 A 10.546 10.546 0 0 1 618.36 75.566 A 12.632 12.632 0 0 1 617.896 74.805 Q 616.602 72.51 616.602 69.092 A 20.323 20.323 0 0 1 617.847 62.036 A 28.651 28.651 0 0 1 621.094 55.713 A 31.986 31.986 0 0 1 625.684 50.366 A 39.318 39.318 0 0 1 629.112 47.499 A 33.228 33.228 0 0 1 630.933 46.24 A 30.611 30.611 0 0 1 633.888 44.557 A 24.292 24.292 0 0 1 636.133 43.579 A 17.816 17.816 0 0 1 637.955 42.999 Q 638.861 42.767 639.677 42.679 A 8.932 8.932 0 0 1 640.625 42.627 A 8.905 8.905 0 0 1 642.802 42.905 A 10.212 10.212 0 0 1 643.213 43.018 A 6.973 6.973 0 0 1 645.581 44.238 A 5.816 5.816 0 0 1 646.888 45.709 A 7.245 7.245 0 0 1 647.29 46.436 Q 647.949 47.803 647.949 49.707 A 10.27 10.27 0 0 1 646.753 54.566 A 16.202 16.202 0 0 1 644.161 58.154 A 18.663 18.663 0 0 1 643.555 58.765 A 23.424 23.424 0 0 1 640.195 61.438 A 27.182 27.182 0 0 1 638.916 62.232 Q 636.279 63.77 633.398 64.844 Q 630.518 65.918 627.588 66.553 A 31.026 31.026 0 0 1 624.04 67.117 A 25.62 25.62 0 0 1 622.021 67.237 Q 621.924 67.822 621.875 68.408 A 14.105 14.105 0 0 0 621.826 69.58 A 10.818 10.818 0 0 0 622.331 72.9 A 10.324 10.324 0 0 0 622.339 72.925 A 8.406 8.406 0 0 0 623.438 75.166 A 7.788 7.788 0 0 0 623.853 75.708 A 7.007 7.007 0 0 0 626.343 77.588 Q 627.832 78.272 629.736 78.272 A 19.467 19.467 0 0 0 638.894 75.928 A 25.76 25.76 0 0 0 642.09 73.926 A 33.194 33.194 0 0 0 646.551 69.953 Q 650.262 66.046 653.955 60.156 Z M 622.412 65.137 A 27.036 27.036 0 0 0 627.47 64.13 A 24.464 24.464 0 0 0 628.564 63.77 Q 631.445 62.744 633.838 61.255 A 28.514 28.514 0 0 0 637.107 58.897 A 24.983 24.983 0 0 0 638.11 58.008 A 25.601 25.601 0 0 0 640.032 56.015 A 20.334 20.334 0 0 0 641.26 54.444 A 21.162 21.162 0 0 0 642.368 52.701 A 15.489 15.489 0 0 0 643.213 50.977 A 10.71 10.71 0 0 0 643.629 49.78 Q 643.805 49.151 643.865 48.58 A 5.549 5.549 0 0 0 643.896 47.998 A 3.98 3.98 0 0 0 643.805 47.12 Q 643.66 46.478 643.284 46.011 A 2.496 2.496 0 0 0 643.188 45.899 A 2.499 2.499 0 0 0 642.543 45.378 A 2.121 2.121 0 0 0 641.504 45.117 Q 639.821 45.117 637.809 46.061 A 15.754 15.754 0 0 0 636.67 46.655 A 21.839 21.839 0 0 0 633.984 48.487 Q 632.726 49.482 631.467 50.735 A 34.934 34.934 0 0 0 631.299 50.904 Q 628.613 53.613 626.245 57.276 A 36.647 36.647 0 0 0 622.412 65.137 Z" id="11" vector-effect="non-scaling-stroke"/><path d="M 691.211 45.215 L 692.773 45.899 A 46.652 46.652 0 0 1 692.424 46.582 Q 691.852 47.681 690.991 49.219 Q 689.844 51.27 688.525 53.736 A 206.705 206.705 0 0 0 686.534 57.558 A 229.844 229.844 0 0 0 685.864 58.887 A 101.388 101.388 0 0 0 683.987 62.847 A 90.74 90.74 0 0 0 683.423 64.136 A 56.061 56.061 0 0 0 682.31 66.927 A 44.118 44.118 0 0 0 681.616 68.97 A 19.963 19.963 0 0 0 681.213 70.447 Q 681.051 71.154 680.975 71.775 A 8.493 8.493 0 0 0 680.908 72.803 A 6.306 6.306 0 0 0 680.937 73.434 Q 681.042 74.467 681.519 74.829 A 2.182 2.182 0 0 0 682.334 75.208 Q 682.686 75.293 683.105 75.293 A 5.334 5.334 0 0 0 684.858 74.985 A 7.232 7.232 0 0 0 686.011 74.463 A 14.499 14.499 0 0 0 687.853 73.235 A 17.845 17.845 0 0 0 688.94 72.315 Q 690.381 70.996 691.748 69.336 A 59.014 59.014 0 0 0 694.312 65.991 A 80.75 80.75 0 0 0 695.721 63.943 A 66.802 66.802 0 0 0 696.484 62.769 A 4260.535 4260.535 0 0 1 697.176 61.68 Q 697.446 61.254 697.689 60.873 A 2104.635 2104.635 0 0 1 698.145 60.156 L 699.902 61.524 A 50.254 50.254 0 0 1 698.999 63.147 A 66.233 66.233 0 0 1 697.949 64.893 A 56.724 56.724 0 0 1 695.816 68.073 A 62.577 62.577 0 0 1 695.483 68.53 A 42.434 42.434 0 0 1 692.578 72.07 A 25.086 25.086 0 0 1 689.606 74.847 A 23.041 23.041 0 0 1 689.282 75.098 A 16.165 16.165 0 0 1 685.882 77.098 A 15.117 15.117 0 0 1 685.645 77.197 A 10.202 10.202 0 0 1 681.738 77.979 Q 679.64 77.979 678.343 77.077 A 4.108 4.108 0 0 1 677.441 76.221 Q 676.074 74.463 676.074 71.68 A 6.181 6.181 0 0 1 676.075 71.572 Q 676.079 71.395 676.091 71.051 A 98.359 98.359 0 0 1 676.099 70.825 Q 676.123 70.166 676.221 69.776 A 52.651 52.651 0 0 1 674.129 72.259 Q 672.808 73.727 671.558 74.854 Q 669.419 76.781 667.416 77.939 A 17.68 17.68 0 0 1 667.261 78.028 A 17.998 17.998 0 0 1 665.222 79.022 A 13.629 13.629 0 0 1 663.257 79.663 A 16.897 16.897 0 0 1 660.913 80.062 A 14.121 14.121 0 0 1 659.57 80.127 A 10.024 10.024 0 0 1 656.543 79.676 A 9.401 9.401 0 0 1 656.079 79.517 A 8.486 8.486 0 0 1 653.198 77.735 A 8.07 8.07 0 0 1 651.437 75.285 A 9.468 9.468 0 0 1 651.245 74.854 A 9.046 9.046 0 0 1 650.673 72.761 A 12.236 12.236 0 0 1 650.537 70.899 Q 650.537 68.606 651.382 65.768 A 29.148 29.148 0 0 1 651.782 64.527 A 21.499 21.499 0 0 1 653.176 61.399 Q 654.366 59.187 656.201 56.787 A 40.714 40.714 0 0 1 659.204 53.225 A 31.895 31.895 0 0 1 661.792 50.781 A 37.431 37.431 0 0 1 664.851 48.456 A 28.654 28.654 0 0 1 667.505 46.851 Q 670.313 45.362 672.852 44.727 A 23.836 23.836 0 0 1 674.934 44.298 Q 675.963 44.137 676.885 44.102 A 13.28 13.28 0 0 1 677.393 44.092 Q 681.718 44.092 684.006 45.473 A 6.254 6.254 0 0 1 684.18 45.581 Q 686.475 47.07 686.963 50.147 A 67.981 67.981 0 0 1 689.014 47.705 Q 690.088 46.485 691.211 45.215 Z M 677.783 64.453 A 75.664 75.664 0 0 0 678.119 63.906 Q 678.615 63.089 679.254 61.998 A 216.375 216.375 0 0 0 679.346 61.841 A 209.166 209.166 0 0 1 680.792 59.406 A 232.238 232.238 0 0 1 681.299 58.57 Q 682.324 56.885 683.301 55.322 A 110.514 110.514 0 0 1 683.999 54.219 Q 684.275 53.788 684.528 53.405 A 55.628 55.628 0 0 1 685.01 52.686 Q 685.01 52.354 684.94 51.718 A 28.686 28.686 0 0 0 684.888 51.27 A 5.262 5.262 0 0 0 684.549 49.977 A 6.625 6.625 0 0 0 684.229 49.292 A 4.164 4.164 0 0 0 683.367 48.198 A 5.73 5.73 0 0 0 682.52 47.559 A 4.214 4.214 0 0 0 681.438 47.091 Q 680.917 46.942 680.289 46.877 A 10.091 10.091 0 0 0 679.248 46.826 Q 677.734 46.826 675.854 47.29 Q 674.004 47.747 671.917 48.819 A 25.231 25.231 0 0 0 671.851 48.853 A 23.228 23.228 0 0 0 669.491 50.266 A 30.782 30.782 0 0 0 667.48 51.758 A 28.307 28.307 0 0 0 665.094 53.926 A 37.935 37.935 0 0 0 662.988 56.25 A 40.183 40.183 0 0 0 659.843 60.563 A 31.332 31.332 0 0 0 657.788 64.38 A 24.711 24.711 0 0 0 656.672 67.325 Q 656.203 68.873 656.042 70.286 A 12.715 12.715 0 0 0 655.957 71.729 A 9.815 9.815 0 0 0 656.087 73.381 Q 656.241 74.277 656.574 74.993 A 4.668 4.668 0 0 0 657.227 76.026 A 4.127 4.127 0 0 0 659.735 77.445 A 6.156 6.156 0 0 0 660.84 77.539 A 10.906 10.906 0 0 0 665.869 76.343 A 19.318 19.318 0 0 0 670.006 73.478 A 21.619 21.619 0 0 0 670.264 73.242 Q 672.314 71.338 674.17 69.019 Q 676.025 66.699 677.783 64.453 Z" id="12" vector-effect="non-scaling-stroke"/><path d="M 727.148 60.156 L 728.955 61.524 A 21.589 21.589 0 0 0 728.471 62.269 Q 727.928 63.141 727.265 64.349 A 67.623 67.623 0 0 0 727.222 64.429 A 72.872 72.872 0 0 1 726.141 66.333 A 95.518 95.518 0 0 1 724.902 68.384 A 72.256 72.256 0 0 1 722.774 71.611 A 81.552 81.552 0 0 1 721.997 72.705 A 27.179 27.179 0 0 1 718.53 76.66 A 17.848 17.848 0 0 1 714.453 79.541 A 10.156 10.156 0 0 1 709.766 80.664 A 8.046 8.046 0 0 1 707.41 80.324 A 7.562 7.562 0 0 1 707.178 80.249 A 5.802 5.802 0 0 1 705.029 78.955 A 6.07 6.07 0 0 1 703.78 77.253 A 7.218 7.218 0 0 1 703.564 76.782 A 6.744 6.744 0 0 1 703.149 75.301 Q 703.035 74.616 703.028 73.838 A 11.366 11.366 0 0 1 703.027 73.731 Q 703.027 71.338 703.979 68.726 A 42.452 42.452 0 0 1 706.201 63.672 A 69.836 69.836 0 0 1 707.748 60.851 A 56.519 56.519 0 0 1 708.74 59.204 A 63.703 63.703 0 0 0 709.332 58.241 Q 710.156 56.873 710.596 55.957 A 7.828 7.828 0 0 0 710.917 55.193 Q 711.054 54.809 711.12 54.466 A 3.223 3.223 0 0 0 711.182 53.858 A 1.684 1.684 0 0 0 710.767 52.735 A 5.773 5.773 0 0 0 710.24 52.195 A 7.568 7.568 0 0 0 709.741 51.782 A 139.019 139.019 0 0 1 708.798 51.059 A 157.887 157.887 0 0 1 708.472 50.806 Q 707.813 50.293 707.373 49.561 A 713.648 713.648 0 0 1 704.883 53.516 Q 703.76 55.225 702.441 57.349 A 263.047 263.047 0 0 0 699.902 61.524 L 698.145 60.156 L 708.594 43.799 L 710.01 44.531 Q 709.912 44.824 709.692 45.459 Q 709.473 46.094 709.473 46.826 Q 709.473 47.363 709.644 47.876 Q 709.802 48.351 710.275 48.764 A 3.215 3.215 0 0 0 710.352 48.828 A 267.346 267.346 0 0 0 711.276 49.657 Q 712.176 50.459 712.856 51.048 A 72.485 72.485 0 0 0 713.428 51.538 A 37.069 37.069 0 0 1 713.951 51.99 Q 714.679 52.631 715.063 53.052 A 5.991 5.991 0 0 1 715.295 53.32 Q 715.607 53.705 715.698 53.98 A 2.058 2.058 0 0 1 715.772 54.283 Q 715.799 54.442 715.811 54.627 A 4.805 4.805 0 0 1 715.82 54.932 A 4.425 4.425 0 0 1 715.793 55.406 Q 715.766 55.657 715.712 55.942 A 9.53 9.53 0 0 1 715.625 56.348 A 10.195 10.195 0 0 1 715.441 57.018 Q 715.337 57.355 715.2 57.734 A 22.311 22.311 0 0 1 714.966 58.35 A 23.978 23.978 0 0 1 714.57 59.287 Q 714.2 60.117 713.696 61.109 A 55.881 55.881 0 0 1 713.034 62.371 Q 712.733 62.927 712.392 63.533 A 102.559 102.559 0 0 1 711.67 64.795 A 130.047 130.047 0 0 0 710.229 67.359 A 29.632 29.632 0 0 0 708.96 69.971 Q 708.398 71.289 708.057 72.608 A 10.707 10.707 0 0 0 707.755 74.296 A 9.119 9.119 0 0 0 707.715 75.147 A 5.224 5.224 0 0 0 707.746 75.735 Q 707.779 76.025 707.847 76.267 A 2.282 2.282 0 0 0 707.983 76.636 A 2.411 2.411 0 0 0 708.267 77.097 A 1.852 1.852 0 0 0 708.691 77.49 Q 709.131 77.783 709.644 77.881 A 5.41 5.41 0 0 0 710.522 77.977 A 4.93 4.93 0 0 0 710.645 77.979 A 5.794 5.794 0 0 0 712.945 77.488 A 7.462 7.462 0 0 0 713.843 77.027 A 15.346 15.346 0 0 0 715.71 75.698 A 19.392 19.392 0 0 0 716.968 74.561 A 28.513 28.513 0 0 0 719.036 72.283 A 33.65 33.65 0 0 0 719.946 71.118 A 81.222 81.222 0 0 0 722.705 67.188 A 153.554 153.554 0 0 0 723.975 65.228 A 130.267 130.267 0 0 0 725.146 63.355 A 227.405 227.405 0 0 1 726.082 61.841 Q 726.654 60.925 727.148 60.156 Z" id="13" vector-effect="non-scaling-stroke"/><path d="M 769.189 7.959 L 738.623 66.504 L 736.523 65.674 L 763.525 5.371 L 769.189 7.959 Z M 735.701 77.775 A 3.425 3.425 0 0 0 736.719 75.293 A 3.345 3.345 0 0 0 736.454 73.964 A 3.62 3.62 0 0 0 735.669 72.827 A 3.592 3.592 0 0 0 734.698 72.127 A 3.593 3.593 0 0 0 733.105 71.778 A 3.345 3.345 0 0 0 731.776 72.042 A 3.62 3.62 0 0 0 730.64 72.827 A 4.371 4.371 0 0 0 730.607 72.86 A 3.367 3.367 0 0 0 729.59 75.293 A 3.58 3.58 0 0 0 729.75 76.374 A 3.5 3.5 0 0 0 730.64 77.808 A 4.371 4.371 0 0 0 730.673 77.84 A 3.367 3.367 0 0 0 733.105 78.858 A 4.332 4.332 0 0 0 733.153 78.857 A 3.482 3.482 0 0 0 735.669 77.808 A 4.226 4.226 0 0 0 735.701 77.775 Z" id="14" vector-effect="non-scaling-stroke"/></g></svg>