<?xml version="1.0" encoding="UTF-8" standalone="no"?>
<!-- Created with Inkscape (http://www.inkscape.org/) -->

<svg
   width="376.47202mm"
   height="378.36267mm"
   viewBox="0 0 376.47202 378.36267"
   version="1.1"
   id="svg1"
   xml:space="preserve"
   inkscape:version="1.3.2 (091e20e, 2023-11-25)"
   sodipodi:docname="fair.svg"
   inkscape:export-filename="fair.png"
   inkscape:export-xdpi="26.852537"
   inkscape:export-ydpi="26.852537"
   xmlns:inkscape="http://www.inkscape.org/namespaces/inkscape"
   xmlns:sodipodi="http://sodipodi.sourceforge.net/DTD/sodipodi-0.dtd"
   xmlns:xlink="http://www.w3.org/1999/xlink"
   xmlns="http://www.w3.org/2000/svg"
   xmlns:svg="http://www.w3.org/2000/svg"><sodipodi:namedview
     id="namedview1"
     pagecolor="#505050"
     bordercolor="#eeeeee"
     borderopacity="1"
     inkscape:showpageshadow="true"
     inkscape:pageopacity="0"
     inkscape:pagecheckerboard="0"
     inkscape:deskcolor="#505050"
     inkscape:document-units="mm"
     inkscape:zoom="0.34697521"
     inkscape:rotation="1"
     inkscape:cx="749.57758"
     inkscape:cy="502.88166"
     inkscape:window-width="1160"
     inkscape:window-height="950"
     inkscape:window-x="554"
     inkscape:window-y="39"
     inkscape:window-maximized="0"
     inkscape:current-layer="g17"
     showgrid="false" /><defs
     id="defs1" /><g
     inkscape:label="Layer 1"
     inkscape:groupmode="layer"
     id="layer1"
     transform="translate(340.67907,660.61461)"><g
       id="g18"><g
         id="g14"><path
           id="path6"
           style="fill:#ef476f;fill-opacity:1;stroke:none;stroke-width:4.99999;stroke-linecap:round;stroke-linejoin:bevel;stroke-miterlimit:10;stroke-opacity:0.253247"
           d="m -316.49543,-497.05981 c 1.8412,-18.04709 16.45274,-62.74374 39.88335,-88.62642 26.60193,-29.38579 75.12307,-48.18701 116.49732,-52.37768 v 34.33641 c -6.7e-4,18.87811 0.22422,42.05053 0,51.49453 v 17.17104 l -5.64828,0.72244 c -13.25334,1.69548 -23.02037,6.53443 -32.67364,16.18764 -9.72701,9.72696 -14.56753,19.56769 -16.21254,32.96078 l -0.72037,6.02589 h -10.9472 c -6.02088,0.001 -29.18888,-0.0841 -51.48387,0 h -40.16922 z"
           sodipodi:nodetypes="csccsccscccccc" /><path
           style="fill:#000000;fill-opacity:0.5"
           d="m -256.17791,-507.39921 c 1.62501,-0.53733 1.85566,-0.78604 8.89905,-9.59588 7.31923,-9.15483 7.34689,-9.1966 7.47229,-11.28501 l 0.0638,-1.0625 2.66571,-3.38167 2.66571,-3.38167 -0.79629,-0.51623 c -1.8229,-1.18178 -4.64607,-3.49848 -5.65218,-4.63819 l -0.32472,-0.36783 -2.69396,3.35386 -2.69396,3.35386 -0.98678,0.22099 c -2.08157,0.46617 -2.29499,0.68169 -9.14274,9.23302 -3.4221,4.27346 -6.49048,8.22353 -6.81861,8.77795 -0.80883,1.36664 -1.03364,2.46289 -0.83514,4.07259 0.23166,1.87857 0.8043,2.88991 2.31942,4.09635 0.8776,0.69879 1.43905,1.00841 2.14938,1.18527 1.13516,0.28265 2.74303,0.25451 3.70903,-0.0649 z m 44.79368,-27.31922 c 7.73563,-1.67239 13.41038,-5.11918 18.07695,-10.97978 6.24563,-7.8437 8.23415,-17.89117 5.44041,-27.48892 -2.34796,-8.06626 -8.03447,-14.85443 -15.67366,-18.71015 -1.64455,-0.83004 -4.98438,-2.019 -6.73182,-2.39648 -5.54304,-1.19739 -10.88789,-0.94687 -16.22586,0.76052 -10.19483,3.26091 -17.93849,11.81823 -20.26178,22.39078 -3.60368,16.39922 6.938,32.79464 23.30612,36.24786 4.00758,0.84549 8.6596,0.91339 12.06964,0.17617 z m -7.72191,-6.37903 c -2.22864,-0.19945 -4.26034,-0.67489 -6.41879,-1.50208 -6.65089,-2.54884 -11.70694,-7.86936 -14.03299,-14.76703 -0.78145,-2.31729 -1.29596,-6.85349 -1.05336,-9.28693 0.97009,-9.73089 7.26777,-17.57661 16.50655,-20.56407 2.10255,-0.67988 6.97482,-1.19249 9.14576,-0.96222 4.90441,0.5202 8.89506,2.11889 12.50598,5.01001 2.23905,1.79271 3.68912,3.36413 5.15419,5.58548 1.99483,3.02458 2.9932,5.67965 3.55111,9.44385 0.5527,3.72909 0.4244,6.21934 -0.49986,9.70222 -1.76643,6.6564 -6.71845,12.47737 -13.01554,15.29941 -1.34448,0.60253 -3.23283,1.24599 -4.72948,1.61159 -1.34072,0.3275 -5.46922,0.57692 -7.11357,0.42977 z m 15.46103,-13.31395 c 1.57307,-1.84567 2.92606,-5.08066 3.31549,-7.92731 0.5588,-4.08471 -0.32361,-8.01576 -2.58381,-11.51067 -1.55967,-2.41169 -3.74045,-4.412 -4.69235,-4.30404 -0.61195,0.0694 -1.21716,0.72586 -1.26596,1.37315 -0.0404,0.53568 0.0975,0.72088 1.70724,2.29353 4.69931,4.59092 5.39728,12.03717 1.6573,17.68077 -0.77377,1.16761 -0.90944,1.48516 -0.85235,1.99491 0.084,0.74965 0.57701,1.18008 1.39679,1.2194 0.53857,0.0258 0.66285,-0.0515 1.31765,-0.81974 z"
           id="path1" /></g><g
         id="g16"><path
           id="path3"
           style="fill:#06d6a0;fill-opacity:1;stroke:none;stroke-width:4.99999;stroke-linecap:round;stroke-linejoin:bevel;stroke-miterlimit:10;stroke-opacity:0.253247"
           d="m 1.4660964,-456.27054 c -1.84120019,18.04709 -16.4527384,62.74374 -39.8833484,88.62642 -26.60186,29.38579 -75.122718,48.18701 -116.496728,52.37768 v -34.33641 c 6.7e-4,-18.87811 -0.22422,-42.05053 0,-51.49453 v -17.17104 l 5.64824,-0.72244 c 13.25326,-1.69548 23.02024,-6.53443 32.67345,-16.18764 9.72696,-9.72696 14.56745,-19.56769 16.21245,-32.96078 l 0.720367,-6.02589 h 10.947131 c 6.02085,-0.001 29.18872,0.0841 51.48367,0 H 2.9405463 Z"
           sodipodi:nodetypes="csccsccscccccc" /><path
           style="fill:#000000;fill-opacity:0.5"
           d="m -63.990442,-366.29997 c -0.47388,-0.16913 -0.7903,-0.70602 -1.58904,-2.69623 l -0.61416,-1.53026 -1.49844,-0.14388 c -0.82414,-0.0791 -1.6128,-0.16106 -1.75257,-0.18206 -0.16905,-0.0254 -0.69795,0.54011 -1.5797,1.68904 -0.72906,0.94998 -1.46902,1.76665 -1.64435,1.81484 -0.21031,0.0578 -1.20936,-0.41361 -2.936,-1.38535 -2.24811,-1.26523 -2.63516,-1.53828 -2.74452,-1.93619 -0.0971,-0.35333 0.0639,-0.9293 0.6784,-2.42762 l 0.80569,-1.96438 -0.43666,-0.47828 c -0.24016,-0.26305 -0.68626,-0.82693 -0.99133,-1.25307 -0.30506,-0.42613 -0.63293,-0.8326 -0.72858,-0.90325 -0.0956,-0.0707 -1.01719,0.012 -2.04787,0.18364 -1.90994,0.3181 -2.64163,0.29612 -2.9243,-0.0878 -0.0872,-0.11846 -0.50451,-1.47419 -0.92733,-3.01274 -0.67146,-2.44325 -0.74695,-2.84688 -0.59632,-3.18849 0.14789,-0.33541 0.46437,-0.50877 2.22162,-1.21691 l 2.04917,-0.82578 0.0596,-0.98745 c 0.0328,-0.54309 0.13379,-1.33021 0.22452,-1.74916 l 0.16496,-0.76171 -1.69384,-1.28159 c -1.29761,-0.98179 -1.72393,-1.39107 -1.82246,-1.74961 -0.1111,-0.40424 0.0771,-0.82589 1.38143,-3.09451 1.78276,-3.10081 1.54995,-2.9887 4.07011,-1.95999 0.92447,0.37737 1.78504,0.72246 1.91237,0.76687 0.15273,0.0533 0.60704,-0.21592 1.33508,-0.79109 0.60696,-0.47952 1.23171,-0.95118 1.38832,-1.04813 0.25448,-0.15752 0.25254,-0.39727 -0.0183,-2.25483 -0.31966,-2.19248 -0.29347,-2.58385 0.20052,-2.99634 0.38202,-0.31899 4.87564,-1.56922 5.44491,-1.5149 0.68255,0.0651 1.00688,0.5057 1.8117,2.46107 0.42139,1.02379 0.78415,1.87076 0.80614,1.88215 0.022,0.0114 0.6684,0.0809 1.43646,0.15437 0.76807,0.0735 1.49727,0.17628 1.62044,0.22837 0.32623,0.13796 0.51545,-0.0462 1.80939,-1.76139 0.86944,-1.15246 1.28515,-1.58144 1.62232,-1.6741 0.38336,-0.10536 0.84616,0.0983 2.99878,1.31992 2.14689,1.21833 2.56452,1.51476 2.66726,1.89317 0.0903,0.33251 -0.0836,0.9534 -0.67165,2.39834 l -0.79347,1.94969 1.07406,1.41257 1.07407,1.41257 2.04208,-0.3004 c 2.25752,-0.33209 2.53121,-0.3317 2.85007,0.004 0.12037,0.12675 0.56635,1.49489 0.99106,3.04031 0.98282,3.57621 1.07167,3.34593 -1.7486,4.53189 -1.08711,0.45715 -1.98165,0.83669 -1.98786,0.84343 -0.006,0.007 -0.018,0.32004 -0.0262,0.69621 -0.008,0.37618 -0.0884,1.14954 -0.17829,1.71857 l -0.16344,1.03461 1.68919,1.26559 c 1.26065,0.9445 1.72166,1.38028 1.81719,1.71769 0.10924,0.38585 -0.0914,0.8337 -1.36889,3.05571 -0.82329,1.43198 -1.61306,2.63552 -1.75504,2.67454 -0.38142,0.10482 -0.78431,-0.0151 -2.68404,-0.79917 -0.94612,-0.39047 -1.77817,-0.69402 -1.849,-0.67456 -0.0708,0.0195 -0.40103,0.28023 -0.73379,0.57947 -0.33276,0.29924 -0.91741,0.75075 -1.29923,1.00334 -0.78372,0.51849 -0.75602,0.25534 -0.3302,3.13683 0.33824,2.28891 0.40673,2.21688 -2.99704,3.1523 -2.21062,0.60753 -2.79879,0.72274 -3.11441,0.6101 z m 1.72946,-15.22172 c 4.46427,-3.80534 1.27769,-11.09107 -4.57628,-10.46312 -2.59051,0.27788 -4.73332,2.31656 -5.19858,4.94594 -0.17393,0.98299 -0.15432,1.23512 0.19493,2.50596 0.35144,1.27878 0.45919,1.49534 1.13438,2.27989 1.67226,1.94312 4.01198,2.60573 6.42456,1.81944 0.9484,-0.3091 1.37919,-0.54104 2.02099,-1.08811 z m -40.141978,7.14754 c -0.20857,-0.11864 -0.39562,-0.27537 -0.41565,-0.34828 -0.02,-0.0729 -0.44313,-1.09043 -0.94021,-2.26115 -0.49708,-1.17072 -0.91557,-2.16962 -0.92998,-2.21978 -0.0144,-0.0502 -0.51965,-0.11859 -1.12275,-0.1521 -0.6031,-0.0335 -1.58781,-0.15876 -2.18825,-0.27835 l -1.09171,-0.21744 -1.49617,2.06918 c -1.17637,1.62689 -1.59582,2.09746 -1.96236,2.20152 -0.40926,0.11619 -0.82196,-0.0781 -3.37882,-1.59097 -2.49409,-1.47569 -2.9311,-1.7903 -3.04126,-2.18944 -0.10223,-0.37043 0.0798,-0.94141 0.88676,-2.7813 l 1.01539,-2.31517 -0.72934,-0.78132 c -0.40113,-0.42973 -1.00161,-1.17441 -1.33439,-1.65485 -0.33278,-0.48044 -0.62044,-0.88739 -0.63923,-0.90433 -0.0188,-0.0169 -1.09463,0.14841 -2.39075,0.36744 -1.73793,0.29369 -2.47347,0.3549 -2.80186,0.23319 l -0.44529,-0.16505 -0.91652,-3.17038 c -0.50408,-1.7437 -0.92107,-3.33584 -0.92664,-3.53807 -0.0148,-0.53846 0.57197,-0.91381 2.94311,-1.88256 l 2.10481,-0.85994 0.0107,-0.6598 c 0.006,-0.36289 0.10996,-1.35374 0.23133,-2.20189 0.19063,-1.33227 0.18381,-1.56981 -0.0501,-1.7459 -0.14891,-0.11211 -0.94263,-0.66707 -1.76382,-1.23324 -0.82118,-0.56618 -1.65275,-1.16352 -1.84792,-1.32742 -0.7216,-0.606 -0.65308,-0.85525 1.07993,-3.92857 0.8995,-1.59518 1.73698,-2.9662 1.86107,-3.04671 0.38997,-0.25301 0.95279,-0.0983 3.18421,0.87511 1.19284,0.52037 2.23024,0.89566 2.30533,0.83397 1.59929,-1.31386 2.57914,-2.06467 2.9421,-2.25441 0.51208,-0.26768 0.50856,-0.11447 0.0721,-3.13462 -0.44007,-3.04484 -0.56701,-2.89665 3.41954,-3.99223 1.77795,-0.48862 3.16027,-0.80103 3.35189,-0.75754 0.57891,0.1314 0.85985,0.59479 1.732,2.85672 l 0.85644,2.22117 1.22755,0.10106 c 0.67516,0.0556 1.63092,0.18379 2.12392,0.28489 0.493,0.10111 0.96427,0.11332 1.04726,0.0271 0.083,-0.0862 0.670188,-0.88659 1.304858,-1.77867 1.49503,-2.10135 1.7439,-2.37181 2.18557,-2.37516 0.19819,-0.002 1.69658,0.72843 3.32975,1.62209 2.4057,1.31637 2.98979,1.70133 3.07683,2.02783 0.0764,0.28673 -0.1891,1.08294 -0.92026,2.75946 l -1.02768,2.35644 0.80261,0.9522 c 0.44143,0.52371 1.048,1.31669 1.34791,1.76217 l 0.5453,0.80996 2.5159,-0.34257 c 3.43506,-0.46773 3.13883,-0.70461 4.27105,3.41523 1.13082,4.11475 1.2895,3.73437 -2.11974,5.08129 -1.14924,0.45404 -2.11698,0.88489 -2.15054,0.95745 -0.0336,0.0726 -0.0932,0.60868 -0.13253,1.19139 -0.0393,0.5827 -0.16465,1.47262 -0.27847,1.97759 -0.11382,0.50497 -0.14083,0.98031 -0.06,1.05631 0.0808,0.076 1.02863,0.78074 2.1063,1.5661 1.53356,1.11758 1.98707,1.5286 2.08672,1.89121 0.10956,0.39864 -0.10192,0.86884 -1.51532,3.36915 -2.07768,3.6754 -1.813,3.55646 -4.89592,2.2002 -1.23098,-0.54154 -2.29765,-0.96826 -2.37039,-0.94828 -0.0727,0.02 -0.62184,0.45213 -1.22023,0.9603 -0.59839,0.50817 -1.33866,1.07917 -1.64506,1.26888 l -0.55707,0.34493 0.40923,2.45803 c 0.56937,3.41991 0.83567,3.0849 -3.37122,4.24104 -3.122338,0.85809 -3.343308,0.8997 -3.699888,0.69686 z m 0.84643,-16.24595 c 1.626128,-0.83254 3.122208,-2.59426 3.628278,-4.27253 1.16016,-3.84734 -0.9329,-7.78638 -4.782728,-9.00091 -2.24315,-0.70765 -4.86955,-0.14928 -6.6929,1.42291 -1.30969,1.12928 -2.09155,2.51143 -2.397,4.23736 -0.2067,1.16793 -0.19544,1.46031 0.10626,2.76022 0.52993,2.28326 1.63078,3.71827 3.66588,4.77866 2.02784,1.05661 4.49813,1.08496 6.47221,0.0743 z m 26.884928,-16.35776 c -0.52785,-0.0975 -0.77073,-0.46579 -1.47296,-2.23327 l -0.63201,-1.59073 -0.75295,-0.0403 c -0.41412,-0.0222 -1.09462,-0.0743 -1.51222,-0.11571 l -0.75927,-0.0754 -1.08436,1.4444 c -0.69107,0.92054 -1.22106,1.48198 -1.46128,1.548 -0.28257,0.0777 -0.96306,-0.22542 -2.71861,-1.2108 -1.28793,-0.72292 -2.4215,-1.45572 -2.51906,-1.62845 -0.20757,-0.36754 -0.0942,-0.78217 0.69819,-2.55357 l 0.57193,-1.27855 -0.91097,-1.21175 -0.91097,-1.21175 -1.7677,0.28689 c -1.60184,0.25998 -1.81716,0.25876 -2.29482,-0.013 l -0.52713,-0.29985 -0.63875,-2.32425 c -0.67054,-2.43993 -0.70727,-3.08466 -0.19712,-3.46067 0.13074,-0.0964 0.97196,-0.45658 1.86937,-0.80048 1.57888,-0.60505 1.63122,-0.6385 1.6178,-1.03399 -0.008,-0.22479 0.0601,-0.88909 0.15055,-1.47622 l 0.16441,-1.0675 -1.5208,-1.16747 c -0.83644,-0.6421 -1.55966,-1.30887 -1.60716,-1.48171 -0.0558,-0.20312 0.3961,-1.17293 1.27801,-2.74257 1.08145,-1.92478 1.44806,-2.45133 1.76798,-2.53925 0.28099,-0.0772 0.91417,0.11328 2.08411,0.62703 0.92427,0.40587 1.72024,0.72581 1.76883,0.71097 0.11765,-0.0359 2.27008,-1.68573 2.32481,-1.78194 0.0235,-0.0414 -0.0848,-0.86473 -0.24065,-1.8297 -0.40702,-2.51951 -0.48596,-2.42386 2.72993,-3.30765 2.50308,-0.6879 2.52778,-0.69136 2.91195,-0.40766 0.26947,0.19899 0.51451,0.63097 0.80468,1.41855 0.71401,1.93798 0.9239,2.35294 1.15761,2.28871 0.11911,-0.0327 0.77015,0.0108 1.44676,0.0967 1.41193,0.17925 1.09596,0.3951 2.67952,-1.83055 0.58028,-0.81556 1.01731,-1.27939 1.27123,-1.34917 0.29531,-0.0812 0.93959,0.20386 2.72087,1.20369 2.90854,1.63256 2.881,1.57625 1.93144,3.94921 -0.37474,0.93648 -0.61064,1.76038 -0.53673,1.87456 0.0725,0.11204 0.40575,0.56036 0.7405,0.99627 0.33474,0.43591 0.67493,0.89033 0.75598,1.00982 0.10518,0.15507 0.42477,0.17113 1.11643,0.0561 2.48939,-0.41397 2.63438,-0.42204 3.07529,-0.17124 0.4255,0.24205 0.46139,0.33053 1.14928,2.83358 0.89569,3.25919 0.95327,3.10193 -1.49197,4.0747 l -1.70545,0.67847 -0.1365,1.50652 -0.13649,1.50652 1.41909,1.07861 c 1.99462,1.51605 1.98868,1.44166 0.34585,4.32966 -1.03217,1.8145 -1.41383,2.35525 -1.72211,2.43997 -0.2626,0.0722 -0.98743,-0.12797 -2.151,-0.59394 l -1.75495,-0.70278 -0.45265,0.40771 c -0.24896,0.22423 -0.77049,0.61792 -1.15896,0.87484 -0.79791,0.52772 -0.78059,0.39593 -0.37185,2.82811 0.20235,1.20409 0.19377,1.4267 -0.0701,1.81895 -0.28623,0.42544 -0.4131,0.47731 -2.63778,1.07839 -1.28539,0.3473 -2.49906,0.60152 -2.69705,0.56493 z m 1.4002,-13.5385 c 0.90442,-0.7984 1.61409,-2.20316 1.72701,-3.41858 0.0694,-0.74731 0.0119,-1.15953 -0.28531,-2.04487 -0.63441,-1.88972 -1.95788,-3.05331 -3.89484,-3.42435 -0.9379,-0.17967 -1.28403,-0.16791 -2.17259,0.0738 -1.59385,0.43362 -2.40204,1.05578 -3.18349,2.45071 -0.75585,1.34923 -0.90578,2.45042 -0.52222,3.83577 0.6276,2.26679 2.43997,3.69642 4.83039,3.81029 1.0688,0.0509 2.64405,-0.52626 3.50105,-1.2828 z"
           id="path4" /></g><g
         id="g15"><path
           id="path5"
           style="fill:#306a9d;fill-opacity:1;stroke:none;stroke-width:4.99999;stroke-linecap:round;stroke-linejoin:bevel;stroke-miterlimit:10;stroke-opacity:0.253247"
           d="m 1.4661061,-497.05981 c -1.84119001,-18.04709 -16.4526401,-62.74374 -39.8831181,-88.62642 -26.601726,-29.38579 -75.122658,-48.18701 -116.496908,-52.37768 v 34.33641 c 6.7e-4,18.87811 -0.22422,42.05053 0,51.49453 v 17.17104 l 5.64827,0.72244 c 13.25334,1.69548 23.02037,6.53443 32.67364,16.18764 9.72702,9.72696 14.56753,19.56769 16.21254,32.96078 l 0.720371,6.02589 h 10.947131 c 6.02085,0.001 29.188706,-0.0841 51.48353,0 H 2.9405462 Z"
           sodipodi:nodetypes="csccsccscccccc" /><path
           style="fill:#000000;fill-opacity:0.5"
           d="m -93.705275,-516.22533 c -1.74794,-0.44143 -2.95728,-1.72261 -3.23804,-3.43039 -0.0721,-0.43889 0.50891,-3.90221 2.3158,-13.80285 3.17786,-17.41285 4.01027,-23.68527 3.37838,-25.45705 -0.25897,-0.72613 -0.5908,-1.07958 -1.39499,-1.48588 -0.36148,-0.18263 -3.77913,-1.30139 -7.594775,-2.48614 -7.66197,-2.37901 -9.18886,-2.99376 -10.37036,-4.17526 -1.2929,-1.29291 -1.51659,-3.09056 -0.61967,-4.98001 1.01491,-2.13799 2.54985,-2.85562 4.64909,-2.17358 5.8464,1.89951 16.370135,3.97611 22.333795,4.40702 6.26086,0.45238 14.98395,-0.84478 26.152748,-3.88903 1.611622,-0.43927 3.090414,-0.79831 3.286206,-0.79786 1.758707,0.004 3.505862,1.95638 3.733325,4.1718 0.207896,2.02485 -0.765302,3.48304 -3.054108,4.57614 -0.659754,0.31509 -4.354311,1.67183 -8.210126,3.01497 -3.855815,1.34314 -7.313395,2.59406 -7.683505,2.77982 -1.18463,0.59456 -1.55293,1.00144 -1.74629,1.92917 -0.41477,1.99006 0.47855,8.24632 3.46057,24.23581 1.37023,7.34713 2.41595,13.32298 2.41303,13.78952 -0.013,2.07689 -1.64251,3.61055 -4.11465,3.87255 -2.30167,0.24394 -4.03111,-0.91959 -4.80894,-3.23536 -0.16189,-0.48198 -0.59587,-2.42084 -0.96441,-4.30858 -2.21235,-11.33228 -4.16525,-18.5862 -5.34456,-19.85204 -0.29112,-0.31248 -0.30927,-0.31423 -0.59366,-0.0573 -1.18542,1.07113 -3.09763,8.17659 -5.299,19.69021 -0.78538,4.10772 -0.87047,4.4515 -1.32284,5.3442 -0.81994,1.61807 -1.90406,2.32196 -3.70705,2.40688 -0.6083,0.0286 -1.35349,-0.0104 -1.65597,-0.0868 z m 10.3132,-58.5618 c -1.2167,-0.31896 -1.92149,-0.65644 -2.91323,-1.39499 -1.26253,-0.9402 -2.31977,-2.41323 -2.85898,-3.98333 -0.47583,-1.3856 -0.47583,-3.63586 0,-5.02146 0.84839,-2.4704 2.78516,-4.40717 5.25556,-5.25555 1.28755,-0.44217 3.63618,-0.47322 4.84759,-0.0641 1.98425,0.67014 3.44383,1.78959 4.53548,3.47859 1.67413,2.5902 1.67413,6.11338 0,8.70358 -1.19235,1.8448 -2.79031,2.99538 -4.91464,3.53869 -1.39239,0.35611 -2.58951,0.35568 -3.95178,-10e-4 z"
           id="path2" /></g><g
         id="g17"><path
           id="path7"
           style="fill:#ffd166;fill-opacity:1;stroke:none;stroke-width:4.99999;stroke-linecap:round;stroke-linejoin:bevel;stroke-miterlimit:10;stroke-opacity:0.253247"
           d="m -316.49543,-456.27054 c 1.8412,18.04709 16.45274,62.74374 39.88335,88.62642 26.60193,29.38579 75.12307,48.18701 116.49732,52.37768 v -34.33641 c -6.7e-4,-18.87811 0.22422,-42.05053 0,-51.49453 v -17.17104 l -5.64828,-0.72244 c -13.25334,-1.69548 -23.02037,-6.53443 -32.67364,-16.18764 -9.72701,-9.72696 -14.56753,-19.56769 -16.21254,-32.96078 l -0.72037,-6.02589 h -10.9472 c -6.02088,-0.001 -29.18888,0.0841 -51.48387,0 h -40.16922 z"
           sodipodi:nodetypes="csccsccscccccc" /><path
           style="fill:#000000;fill-opacity:0.5"
           d="m -225.30387,-366.94096 c -0.77463,-0.60632 -4.6408,-3.64773 -8.5915,-6.75871 -3.95069,-3.11098 -7.87563,-6.19549 -8.72208,-6.85448 -1.6423,-1.27858 -2.02783,-1.81604 -1.74615,-2.43427 0.0878,-0.19277 2.36003,-2.08296 5.04933,-4.20041 2.68929,-2.11746 7.16773,-5.6443 9.95208,-7.83742 2.78435,-2.19313 5.24987,-4.081 5.47894,-4.19527 0.34641,-0.17282 0.48618,-0.17435 0.8308,-0.009 0.71095,0.34089 0.79658,0.72519 0.79901,3.58556 l 0.002,2.63078 1.142,-0.0965 c 2.92972,-0.24765 5.9693,-1.13549 8.91431,-2.6038 2.60836,-1.30047 4.47026,-2.64604 6.57819,-4.75396 2.61421,-2.61421 3.52225,-3.99776 5.95366,-9.07137 0.2384,-0.49748 0.86793,-0.71678 1.3834,-0.48192 0.4806,0.21897 0.84724,1.01203 1.362,2.94606 0.63416,2.38262 0.84589,3.83362 0.93101,6.38039 0.39315,11.76258 -6.71816,22.55459 -17.64215,26.77344 -2.25281,0.87003 -6.21082,1.7287 -7.97973,1.73116 l -0.64269,8.9e-4 v 2.65634 c 0,2.67795 -0.0717,3.10182 -0.59179,3.50118 -0.52234,0.40104 -1.02467,0.21558 -2.46087,-0.90855 z m -43.63524,-30.0873 c -0.59234,-0.63937 -1.5217,-4.19236 -1.8708,-7.15221 -0.21613,-1.83245 -0.0951,-5.66013 0.23703,-7.49516 0.73898,-4.0831 2.32611,-7.86523 4.76684,-11.35939 1.41856,-2.03082 4.80342,-5.3663 6.84705,-6.74717 3.91312,-2.64405 8.57662,-4.31413 12.99513,-4.65377 l 1.31379,-0.10098 0.0468,-2.86053 c 0.0465,-2.84614 0.0486,-2.86203 0.42481,-3.15815 0.8652,-0.6811 0.66475,-0.81512 11.44542,7.65223 6.93161,5.44423 10.08185,8.00832 10.24641,8.33991 0.16896,0.34044 0.19768,0.58385 0.0994,0.84234 -0.15242,0.40089 -20.04334,15.93119 -20.74226,16.195 -0.50359,0.19008 -1.13334,-0.15683 -1.35817,-0.74817 -0.0795,-0.20899 -0.14447,-1.54121 -0.14447,-2.96047 v -2.58048 l -1.09636,0.10407 c -9.17767,0.87121 -17.52722,6.98141 -20.97921,15.35258 -0.25539,0.61932 -0.57523,1.24857 -0.71075,1.39832 -0.34889,0.38551 -1.13294,0.35046 -1.52061,-0.068 z"
           id="path8" /></g></g><text
       xml:space="preserve"
       style="font-weight:500;font-size:35.2778px;font-family:Avenir;-inkscape-font-specification:'Avenir Medium';letter-spacing:0.145521px;opacity:0.8;fill:#ef476f;fill-opacity:1;stroke:#000000;stroke-width:1;stroke-linecap:round;stroke-linejoin:bevel;stroke-miterlimit:10;stroke-dasharray:none;stroke-opacity:0.253247"
       id="text7"
       transform="rotate(13.644875,-147.55497,-526.66255)"><textPath
         xlink:href="#path6"
         id="textPath11"
         style="font-size:35.2778px;fill:#ef476f;fill-opacity:1;stroke:#000000;stroke-width:1;stroke-dasharray:none;stroke-opacity:0.253247">F<tspan
   style="fill:#000000;fill-opacity:1"
   id="tspan19">indable</tspan></textPath></text><text
       xml:space="preserve"
       style="font-weight:500;font-size:35.2778px;font-family:Avenir;-inkscape-font-specification:'Avenir Medium';letter-spacing:0.145521px;opacity:0.8;fill:#26547c;fill-opacity:1;stroke:#000000;stroke-width:1;stroke-linecap:round;stroke-linejoin:bevel;stroke-miterlimit:10;stroke-dasharray:none;stroke-opacity:0.253247"
       id="text8"
       transform="rotate(97.913885,-152.48118,-476.62446)"><textPath
         xlink:href="#path6"
         id="textPath12"
         style="font-size:35.2778px;fill:#26547c;fill-opacity:1;stroke:#000000;stroke-width:1;stroke-dasharray:none;stroke-opacity:0.253247">A<tspan
   style="fill:#000000;fill-opacity:1"
   id="tspan20">ccessible</tspan></textPath></text><text
       xml:space="preserve"
       style="font-weight:500;font-size:35.2778px;font-family:Avenir;-inkscape-font-specification:'Avenir Medium';letter-spacing:0.145521px;opacity:0.8;fill:#ffd166;fill-opacity:1;stroke:#000000;stroke-width:1;stroke-linecap:round;stroke-linejoin:bevel;stroke-miterlimit:10;stroke-dasharray:none;stroke-opacity:0.253247"
       id="text9"
       transform="rotate(-78.138438,-158.01895,-467.37554)"><textPath
         xlink:href="#path6"
         id="textPath14"
         style="font-size:35.2778px;fill:#ffd166;fill-opacity:1;stroke:#000000;stroke-width:1;stroke-dasharray:none;stroke-opacity:0.253247">R<tspan
   style="fill:#000000;fill-opacity:1"
   id="tspan22">eusable</tspan></textPath></text><text
       xml:space="preserve"
       style="font-weight:500;font-size:35.2778px;font-family:Avenir;-inkscape-font-specification:'Avenir Medium';letter-spacing:0.145521px;opacity:0.8;fill:#06d6a0;fill-opacity:1;stroke:#000000;stroke-width:1;stroke-linecap:round;stroke-linejoin:bevel;stroke-miterlimit:10;stroke-dasharray:none;stroke-opacity:0.253247"
       id="text10"
       transform="rotate(178.10379,-153.23184,-469.69734)"><textPath
         xlink:href="#path6"
         id="textPath13"
         style="font-size:35.2778px;fill:#06d6a0;fill-opacity:1;stroke:#000000;stroke-width:1;stroke-dasharray:none;stroke-opacity:0.253247">I<tspan
   style="fill:#000000;fill-opacity:1"
   id="tspan21">nteroperable</tspan></textPath></text></g></svg>
